<svg width="36" height="36" viewBox="0 0 36 36" fill="none" xmlns="http://www.w3.org/2000/svg">
<circle cx="18" cy="18" r="18" fill="#4E6297"/>
<path d="M25.3 12.4367C25.3 11.089 24.1109 9.8999 22.7632 9.8999H12.5368C11.1891 9.8999 10 11.089 10 12.4367V22.6631C10 24.0108 11.1891 25.1999 12.5368 25.1999H17.6896V19.4129H15.787V16.8761H17.6896V15.8455C17.6896 14.1015 18.958 12.5952 20.5435 12.5952H22.6047V15.132H20.5435C20.3057 15.132 20.0679 15.3699 20.0679 15.8455V16.8761H22.6047V19.4129H20.0679V25.1999H22.7632C24.1109 25.1999 25.3 24.0108 25.3 22.6631V12.4367Z" fill="white"/>
</svg>
