<svg width="2000" height="2000" viewBox="0 0 2000 2000" fill="none" xmlns="http://www.w3.org/2000/svg">
<g clip-path="url(#clip0_584_1102)">
<rect width="2000" height="2000" rx="1000" fill="url(#paint0_linear_584_1102)"/>
<g filter="url(#filter0_d_584_1102)">
<path d="M2274.15 352.548C2571.36 355.788 2626.48 426.142 3048.96 674.414C3086.05 695.615 3107.24 701.711 3146.32 706.335C3100.27 708.616 3048.13 704.996 3026.68 691.261C2588.53 410.748 2484.03 371.467 2274.15 372.941C1840.12 372.941 1671.92 371.466 1437.45 411.955L2015.05 419.049C1849.54 667.21 1760.91 744.463 1736.15 750.669C1727.94 733.907 1716.19 728.411 1680.04 726.729C1440.69 717.088 1299.2 714.956 1038.08 715.202C1369.37 698.172 1575.68 685.202 1736.15 696.581C1788.96 657.567 1935.84 476.683 1931.71 453.63C1707.77 451.453 1582.33 449.889 1359.89 442.103C1225.39 512.151 1068.44 619.048 993.527 685.055C1068.44 610.687 1106.51 574.551 1183.31 522.791C1066.14 575.992 1050.32 592.527 872.232 726.729C528.862 786.099 377.099 824.372 272.354 912.933C261.165 937.295 261.344 961.404 263.278 1004.26C265.45 1050.32 266.534 1075.68 252.551 1074.31C244.587 1073.02 240.313 1071.53 234.398 1062.78C246.128 1019.42 243.959 1007.11 226.146 1004.26C194.446 1046.32 198.377 1089.94 205.235 1166.04L205.518 1169.18C302.885 1227.71 283.906 1272.04 252.551 1336.77C234.247 1335.24 227.455 1329.35 222.846 1308.39C248.596 1317.54 248.425 1243.97 222.846 1238.35C198.779 1233.05 199.512 1276.84 207.993 1378.44C613.712 1411.29 850.847 1416.19 1282.33 1413.02C1288.49 1159.07 1333.49 1034.41 1466.33 979.434C1569.58 945.624 1665.89 984.52 1713.05 1116.87C1733.38 1197.26 1734.5 1339.43 1713.05 1437.85L2214.74 1428.98L1693.25 1456.47C1707.69 1262.25 1713.05 1235.6 1689.41 1134.14C1668.94 1064.47 1583.94 973.499 1482.84 1000.71C1341.82 1049.44 1322.67 1178.82 1308.73 1444.06C1012.51 1457.36 434.082 1444.06 175.814 1417.46C155.186 1295.98 154.362 1031.75 195.618 922.686C349.619 785.414 512.115 743.538 858.206 694.808C1063.75 554.172 1169.67 459.319 1359.89 381.808C1667.39 340.556 1704.8 346.341 2274.15 352.548Z" fill="white"/>
<path d="M2827.81 707.222L1918.51 719.635L2911.15 750.669C2579.45 321.514 2086.84 257.672 1883.03 676.188C2123.14 318.853 2519.21 366.734 2827.81 707.222Z" fill="white"/>
<path d="M906.062 943.08C789.79 899.096 457.186 898.746 369.721 943.08C438.208 927.12 721.213 914.115 858.206 967.021L767.439 1150.56L500.093 1197.56C479.415 1203.54 475.613 1202.81 457.186 1195.79L298.759 1139.92L286.382 1028.2L280.606 1156.77L438.208 1222.39C462.717 1232.44 477.443 1233.93 507.519 1229.48L801.269 1184.26L906.062 943.08Z" fill="white"/>
<path d="M1321.11 884.559C1157.25 909.652 1086.49 936.103 1026.53 1022C1045.76 917.503 1129.68 878.352 1380.52 826.038C1482.84 818.944 1494.62 865.724 1433.33 884.559C1312.56 932.396 1247.98 959.58 1253.45 1022C1256.72 1046.56 1249.43 1049.57 1229.52 1046.82C1208.89 1227.71 1193.21 1314.6 1134.63 1349.18L879.658 1342.98L839.226 1326.13L1117.3 1321.69C1167.11 1262.85 1178.96 1206.93 1193.21 1097.36C1196.51 1076.97 1171.76 1075.2 1171.76 1094.7L1161.03 1150.56C1147.28 1206.82 1118.97 1214.8 1059.54 1218.84L866.456 1256.97L801.269 1303.07L858.206 1238.35L1043.86 1191.35L1044.8 1191.26C1091.66 1186.62 1118.21 1184 1125.55 1145.24L1140.4 1056.58L1064.49 1051.26L1222.09 1016.67C1225.82 958.587 1245.93 929.347 1321.11 884.559Z" fill="white"/>
<path d="M1639.61 1304.85C1651.99 1061.01 1495.21 956.38 1388.77 1128.4C1466.33 947.513 1680.87 979.434 1685.82 1304.85C1685.82 1582.38 1437.45 1702.97 1371.44 1456.47C1441.58 1640.9 1633.01 1586.81 1639.61 1304.85Z" fill="white"/>
</g>
</g>
<defs>
<filter id="filter0_d_584_1102" x="161.953" y="348.182" width="2999.37" height="1256.82" filterUnits="userSpaceOnUse" color-interpolation-filters="sRGB">
<feFlood flood-opacity="0" result="BackgroundImageFix"/>
<feColorMatrix in="SourceAlpha" type="matrix" values="0 0 0 0 0 0 0 0 0 0 0 0 0 0 0 0 0 0 127 0" result="hardAlpha"/>
<feOffset dx="10" dy="10"/>
<feGaussianBlur stdDeviation="2.5"/>
<feComposite in2="hardAlpha" operator="out"/>
<feColorMatrix type="matrix" values="0 0 0 0 0 0 0 0 0 0 0 0 0 0 0 0 0 0 0.25 0"/>
<feBlend mode="normal" in2="BackgroundImageFix" result="effect1_dropShadow_584_1102"/>
<feBlend mode="normal" in="SourceGraphic" in2="effect1_dropShadow_584_1102" result="shape"/>
</filter>
<linearGradient id="paint0_linear_584_1102" x1="1000" y1="0" x2="1000" y2="2000" gradientUnits="userSpaceOnUse">
<stop stop-color="#D786A6"/>
<stop offset="1" stop-color="#8B3557"/>
</linearGradient>
<clipPath id="clip0_584_1102">
<rect width="2000" height="2000" rx="1000" fill="white"/>
</clipPath>
</defs>
</svg>
