<svg width="677" height="593" viewBox="0 0 677 593" fill="none" xmlns="http://www.w3.org/2000/svg">
<path d="M593 415.964C593 450.66 564.895 478.788 530.231 478.788H200.692C166.028 478.788 137.923 450.66 137.923 415.964V133.283C137.923 98.5869 166.028 70.4663 200.692 70.4663H530.231C564.895 70.4663 593 98.5869 593 133.283V415.964Z" fill="#FFB9D5"/>
<path d="M593 172.545V127.61C593 94.2402 561.395 70.4663 528.049 70.4663H195.992C162.646 70.4663 137.923 94.2402 137.923 127.61V172.545H593Z" fill="#CC5685"/>
<path d="M487.077 463.08H157.538C116.44 463.08 83 429.616 83 388.487V105.805C83 64.668 116.44 31.2042 157.538 31.2042H487.077C528.175 31.2042 561.615 64.668 561.615 105.805V388.487C561.615 429.616 528.175 463.08 487.077 463.08ZM157.538 54.7583C129.418 54.7583 106.538 77.6612 106.538 105.805V388.487C106.538 416.623 129.418 439.526 157.538 439.526H487.077C515.198 439.526 538.077 416.623 538.077 388.487V105.805C538.077 77.6612 515.198 54.7583 487.077 54.7583H157.538Z" fill="black"/>
<path d="M549.846 164.691H94.7692C88.2726 164.691 83 159.418 83 152.914V104.95C83 64.2835 115.067 31.2042 154.486 31.2042H486.543C526.535 31.2042 561.615 65.6645 561.615 104.95V152.914C561.615 159.426 556.343 164.691 549.846 164.691ZM106.538 141.137H538.077V104.95C538.077 78.6891 513.511 54.7583 486.543 54.7583H154.486C128.045 54.7583 106.538 77.2768 106.538 104.95V141.137Z" fill="black"/>
<path d="M182.081 101.035C182.081 108.395 176.118 114.358 168.766 114.358C161.406 114.358 155.443 108.395 155.443 101.035C155.443 93.6674 161.406 87.7043 168.766 87.7043C176.118 87.7043 182.081 93.6674 182.081 101.035Z" fill="black"/>
<path d="M226.467 101.035C226.467 108.395 220.504 114.358 213.152 114.358C205.792 114.358 199.837 108.395 199.837 101.035C199.837 93.6674 205.792 87.7043 213.152 87.7043C220.504 87.7043 226.467 93.6674 226.467 101.035Z" fill="black"/>
<path d="M270.86 101.035C270.86 108.395 264.905 114.358 257.545 114.358C250.194 114.358 244.23 108.395 244.23 101.035C244.23 93.6674 250.194 87.7043 257.545 87.7043C264.905 87.7043 270.86 93.6674 270.86 101.035Z" fill="black"/>
<path d="M254.721 328.267V317.142H224.717C220.943 317.142 218.103 316.286 216.212 314.568C214.313 312.858 213.372 310.527 213.372 307.577C213.372 306.816 213.513 306.047 213.795 305.278C214.07 304.494 214.486 303.678 215.043 302.822C215.6 301.959 216.181 301.135 216.777 300.335C217.373 299.543 218.111 298.57 218.989 297.408L250.649 255.016C252.728 252.23 254.431 250.206 255.764 248.951C257.09 247.695 258.699 247.068 260.574 247.068C266.623 247.068 269.652 250.536 269.652 257.472V303.748H272.218C275.286 303.748 277.749 304.164 279.601 305.011C281.453 305.843 282.379 307.679 282.379 310.504C282.379 312.81 281.617 314.497 280.111 315.557C278.597 316.616 276.329 317.142 273.301 317.142H269.652V328.267C269.652 331.335 268.977 333.618 267.62 335.109C266.263 336.6 264.458 337.353 262.183 337.353C259.954 337.353 258.15 336.584 256.777 335.054C255.403 333.516 254.721 331.257 254.721 328.267ZM229.025 303.748H254.721V269.013L229.025 303.748Z" fill="black"/>
<path d="M351.511 292.866C351.511 299.401 351.111 305.019 350.31 309.735C349.518 314.435 348.043 318.695 345.893 322.524C343.178 327.232 339.679 330.857 335.379 333.407C331.072 335.957 326.301 337.228 321.036 337.228C314.979 337.228 309.558 335.517 304.764 332.088C299.954 328.668 296.337 323.921 293.912 317.863C292.68 314.552 291.77 310.896 291.198 306.887C290.617 302.885 290.334 298.546 290.334 293.878C290.334 287.86 290.648 282.438 291.284 277.613C291.919 272.803 292.916 268.652 294.273 265.184C296.627 259.441 300.04 255.071 304.512 252.058C309 249.053 314.344 247.538 320.558 247.538C324.661 247.538 328.38 248.213 331.731 249.547C335.081 250.889 338.016 252.834 340.542 255.408C343.068 257.982 345.218 261.159 346.968 264.941C349.989 271.516 351.511 280.83 351.511 292.866ZM335.144 291.673C335.144 284.376 334.697 278.405 333.826 273.768C332.947 269.123 331.472 265.616 329.4 263.238C327.337 260.869 324.457 259.684 320.801 259.684C315.544 259.684 311.888 262.336 309.832 267.632C307.784 272.936 306.764 281.104 306.764 292.152C306.764 299.645 307.196 305.78 308.075 310.566C308.953 315.353 310.421 318.962 312.492 321.418C314.571 323.874 317.372 325.09 320.919 325.09C324.583 325.09 327.447 323.819 329.526 321.261C331.597 318.719 333.049 315.07 333.888 310.331C334.72 305.584 335.144 299.362 335.144 291.673Z" fill="black"/>
<path d="M400.142 328.267V317.142H370.146C366.364 317.142 363.524 316.286 361.633 314.568C359.742 312.858 358.792 310.527 358.792 307.577C358.792 306.816 358.934 306.047 359.216 305.278C359.491 304.494 359.907 303.678 360.464 302.822C361.029 301.959 361.601 301.135 362.198 300.335C362.794 299.543 363.532 298.57 364.41 297.408L396.07 255.016C398.149 252.23 399.851 250.206 401.185 248.951C402.519 247.695 404.12 247.068 405.995 247.068C412.044 247.068 415.073 250.536 415.073 257.472V303.748H417.639C420.706 303.748 423.17 304.164 425.022 305.011C426.874 305.843 427.799 307.679 427.799 310.504C427.799 312.81 427.046 314.497 425.532 315.557C424.018 316.616 421.75 317.142 418.721 317.142H415.073V328.267C415.073 331.335 414.398 333.618 413.041 335.109C411.691 336.6 409.879 337.353 407.603 337.353C405.375 337.353 403.57 336.584 402.205 335.054C400.824 333.516 400.142 331.257 400.142 328.267ZM374.446 303.748H400.142V269.013L374.446 303.748Z" fill="black"/>
<path d="M39.1411 585.288C36.6131 585.288 34.2771 584.872 32.1331 584.04C29.9891 583.176 28.1331 581.976 26.5651 580.44C24.9971 578.904 23.7651 577.096 22.8691 575.016C22.0051 572.936 21.5731 570.664 21.5731 568.2C21.5731 565.736 22.0051 563.464 22.8691 561.384C23.7651 559.304 24.9971 557.496 26.5651 555.96C28.1651 554.424 30.0371 553.24 32.1811 552.408C34.3251 551.544 36.6611 551.112 39.1891 551.112C41.6211 551.112 43.9091 551.528 46.0531 552.36C48.1971 553.16 50.0051 554.376 51.4771 556.008L49.2211 558.264C47.8451 556.856 46.3251 555.848 44.6611 555.24C42.9971 554.6 41.2051 554.28 39.2851 554.28C37.2691 554.28 35.3971 554.632 33.6691 555.336C31.9411 556.008 30.4371 556.984 29.1571 558.264C27.8771 559.512 26.8691 560.984 26.1331 562.68C25.4291 564.344 25.0771 566.184 25.0771 568.2C25.0771 570.216 25.4291 572.072 26.1331 573.768C26.8691 575.432 27.8771 576.904 29.1571 578.184C30.4371 579.432 31.9411 580.408 33.6691 581.112C35.3971 581.784 37.2691 582.12 39.2851 582.12C41.2051 582.12 42.9971 581.8 44.6611 581.16C46.3251 580.52 47.8451 579.496 49.2211 578.088L51.4771 580.344C50.0051 581.976 48.1971 583.208 46.0531 584.04C43.9091 584.872 41.6051 585.288 39.1411 585.288ZM65.0626 585V553.512L66.0226 554.472H53.2546V551.4H80.3746V554.472H67.6546L68.5666 553.512V585H65.0626ZM86.6093 585V551.4H99.1853C102.033 551.4 104.481 551.864 106.529 552.792C108.577 553.688 110.145 555 111.233 556.728C112.353 558.424 112.913 560.488 112.913 562.92C112.913 565.288 112.353 567.336 111.233 569.064C110.145 570.76 108.577 572.072 106.529 573C104.481 573.928 102.033 574.392 99.1853 574.392H88.5773L90.1613 572.712V585H86.6093ZM90.1613 573L88.5773 571.272H99.0893C102.449 571.272 104.993 570.552 106.721 569.112C108.481 567.64 109.361 565.576 109.361 562.92C109.361 560.232 108.481 558.152 106.721 556.68C104.993 555.208 102.449 554.472 99.0893 554.472H88.5773L90.1613 552.792V573ZM113.54 585L128.9 551.4H132.404L147.764 585H144.02L129.908 553.464H131.348L117.236 585H113.54ZM119.588 576.024L120.644 573.144H140.18L141.236 576.024H119.588ZM178.779 551.4H182.283V585H178.779V551.4ZM157.755 585H154.203V551.4H157.755V585ZM179.115 569.496H157.371V566.376H179.115V569.496ZM193.625 585V551.4H197.129V579.24L218.633 551.4H221.849V585H218.345V557.208L196.841 585H193.625ZM233.187 585V551.4H236.691V581.928H256.995V551.4H260.499V585H233.187ZM262.515 592.872V584.04L263.427 585H256.995V581.928H265.827V592.872H262.515ZM267.947 585L283.307 551.4H286.811L302.171 585H298.427L284.315 553.464H285.755L271.643 585H267.947ZM273.995 576.024L275.051 573.144H294.587L295.643 576.024H273.995ZM345.748 551.4H349.252V585H345.748V551.4ZM324.724 585H321.172V551.4H324.724V585ZM346.084 569.496H324.34V566.376H346.084V569.496ZM363.762 566.424H381.522V569.448H363.762V566.424ZM364.146 581.928H384.354V585H360.594V551.4H383.634V554.472H364.146V581.928ZM429.373 551.4H432.877V585H429.373V551.4ZM408.349 585H404.797V551.4H408.349V585ZM429.709 569.496H407.965V566.376H429.709V569.496ZM439.275 585L454.635 551.4H458.139L473.499 585H469.755L455.643 553.464H457.083L442.971 585H439.275ZM445.323 576.024L446.379 573.144H465.915L466.971 576.024H445.323ZM479.937 585V551.4H483.441V579.24L504.945 551.4H508.161V585H504.657V557.208L483.153 585H479.937ZM493.953 548.952C491.553 548.952 489.649 548.408 488.241 547.32C486.865 546.232 486.161 544.712 486.129 542.76H488.769C488.801 544.04 489.281 545.048 490.209 545.784C491.169 546.52 492.417 546.888 493.953 546.888C495.489 546.888 496.721 546.52 497.649 545.784C498.609 545.048 499.105 544.04 499.137 542.76H501.777C501.745 544.712 501.025 546.232 499.617 547.32C498.209 548.408 496.321 548.952 493.953 548.952ZM541.304 583.32V554.472H525.224L524.936 562.632C524.84 565.16 524.68 567.592 524.456 569.928C524.264 572.232 523.944 574.312 523.496 576.168C523.08 577.992 522.504 579.48 521.768 580.632C521.064 581.784 520.136 582.456 518.984 582.648L515.096 581.928C516.376 581.992 517.432 581.528 518.264 580.536C519.128 579.544 519.784 578.152 520.232 576.36C520.712 574.568 521.064 572.472 521.288 570.072C521.512 567.672 521.672 565.08 521.768 562.296L522.152 551.4H544.808V583.32H541.304ZM513.848 592.536L513.896 581.928H549.848V592.536H546.536V585H517.208L517.16 592.536H513.848ZM560.262 566.424H578.022V569.448H560.262V566.424ZM560.646 581.928H580.854V585H557.094V551.4H580.134V554.472H560.646V581.928ZM613.31 551.4H616.814V585H613.31V551.4ZM592.286 585H588.734V551.4H592.286V585ZM613.646 569.496H591.902V566.376H613.646V569.496ZM623.212 585L638.572 551.4H642.076L657.436 585H653.692L639.58 553.464H641.02L626.908 585H623.212ZM629.26 576.024L630.316 573.144H649.852L650.908 576.024H629.26Z" fill="black"/>
</svg>
