<svg width="188" height="160" viewBox="0 0 188 160" fill="none" xmlns="http://www.w3.org/2000/svg">
<g clip-path="url(#clip0_1_580)">
<path d="M24.7745 120.941C26.3525 120.201 28.1258 119.985 29.8354 120.324C30.7528 120.479 31.7154 120.753 32.3358 121.452C32.9562 122.152 33.0878 123.355 32.3621 123.949C31.8999 124.262 31.3423 124.403 30.7867 124.348C29.4481 124.348 27.9629 124.096 26.8951 124.9C26.286 125.363 25.8799 126.126 25.1505 126.352C24.7878 126.432 24.4089 126.393 24.0703 126.24C23.7316 126.088 23.4511 125.83 23.2705 125.506C22.9225 124.836 22.8445 124.058 23.0524 123.332C23.1365 122.828 23.3356 122.35 23.6343 121.936C23.9329 121.521 24.3231 121.181 24.7745 120.941Z" fill="#EBEBEB"/>
<path d="M21.2476 114.128C22.1913 115.474 24.0187 115.027 24.8685 114.207C25.7182 113.387 26.0754 112.199 26.3988 111.064C27.1508 108.473 27.9028 105.754 27.3425 103.115C27.2065 102.319 26.8525 101.575 26.3198 100.968C26.055 100.662 25.7143 100.432 25.3321 100.3C24.95 100.168 24.5397 100.139 24.1428 100.216C23.2216 100.46 22.6388 101.344 22.2327 102.224C21.0102 104.76 20.368 107.537 20.3527 110.353C20.3527 111.661 20.5031 113.038 21.2401 114.113" fill="#EBEBEB"/>
<path d="M18.6644 116.061C19.6872 114.85 19.8789 113.079 19.4164 111.549C18.9013 110.039 17.9787 108.701 16.7506 107.683C15.3573 106.444 13.7369 105.486 11.9792 104.863C11.2984 104.587 10.5665 104.458 9.8322 104.487C9.46531 104.508 9.1091 104.619 8.79456 104.809C8.48002 104.999 8.21667 105.263 8.0274 105.578C7.52732 106.537 8.0086 107.698 8.53124 108.65C9.4456 110.327 10.4903 111.93 11.6558 113.444C12.5958 114.658 13.6749 115.854 15.1075 116.399C16.54 116.944 18.0478 116.884 18.7998 115.891" fill="#EBEBEB"/>
<path d="M21.1836 134.409C21.2365 134.211 21.2655 134.006 21.2701 133.8C21.3152 133.357 21.3679 132.796 21.4318 132.135C21.5154 131.313 21.6409 130.496 21.8078 129.687C22.0264 128.703 22.3231 127.739 22.6952 126.803C23.0618 125.867 23.5579 124.988 24.1691 124.19C24.6727 123.54 25.315 123.011 26.0491 122.641C26.5427 122.396 27.0718 122.231 27.617 122.152C27.8227 122.146 28.027 122.117 28.2261 122.065C28.0199 122.043 27.8119 122.043 27.6057 122.065C27.031 122.102 26.4678 122.244 25.9438 122.483C25.1766 122.844 24.5036 123.378 23.9773 124.043C23.3397 124.852 22.8253 125.75 22.4508 126.709C22.0716 127.659 21.7759 128.64 21.5672 129.642C21.4104 130.459 21.3024 131.285 21.2438 132.116C21.1912 132.823 21.1724 133.398 21.1611 133.793C21.1491 133.999 21.1566 134.205 21.1836 134.409Z" fill="#E0E0E0"/>
<path d="M21.3002 133.127C21.3115 133.034 21.3115 132.939 21.3002 132.845V132.033C21.3002 131.33 21.3002 130.311 21.3341 129.055C21.398 126.544 21.6123 123.836 22.0334 120.031C22.4094 116.444 22.9584 112.271 23.5374 109.556C23.6577 108.939 23.7818 108.383 23.8946 107.898C24.0074 107.413 24.0976 106.988 24.1841 106.649C24.2706 106.311 24.3232 106.067 24.3759 105.86C24.4032 105.769 24.4196 105.676 24.4248 105.581C24.3817 105.665 24.3489 105.753 24.327 105.845C24.2631 106.052 24.1879 106.307 24.0901 106.623C23.9924 106.939 23.8796 107.375 23.7555 107.864C23.6314 108.353 23.4961 108.902 23.3795 109.518C22.6814 112.725 22.1568 115.967 21.8078 119.23C21.3905 123.05 21.1987 126.532 21.1837 129.051C21.1837 130.311 21.1837 131.334 21.2288 132.037C21.2288 132.364 21.2626 132.635 21.2777 132.845C21.2754 132.94 21.2829 133.034 21.3002 133.127Z" fill="#E0E0E0"/>
<path d="M21.3152 126.416C21.3382 126.134 21.3382 125.851 21.3152 125.57C21.2675 124.801 21.1809 124.036 21.0558 123.276C20.8675 122.149 20.6164 121.033 20.3038 119.933C19.9375 118.582 19.47 117.259 18.9051 115.978C17.9353 113.616 16.544 111.45 14.7992 109.586C14.4977 109.266 14.1749 108.967 13.8328 108.691C13.6862 108.563 13.5546 108.439 13.423 108.341L13.047 108.082C12.8222 107.912 12.5846 107.76 12.3364 107.627C13.1544 108.273 13.9317 108.968 14.6638 109.71C16.3485 111.591 17.7013 113.745 18.6644 116.079C19.2213 117.352 19.6912 118.661 20.0707 119.997C20.3912 121.086 20.656 122.19 20.864 123.306C21.0408 124.257 21.1423 125.036 21.2024 125.562C21.2193 125.849 21.257 126.134 21.3152 126.416Z" fill="#E0E0E0"/>
<path d="M14.8292 138.256L15.5023 147.472H27.3387L28.0118 138.256H14.8292Z" fill="#E0E0E0"/>
<path d="M29.4255 134.624H13.6862V138.256H29.4255V134.624Z" fill="#E0E0E0"/>
<path d="M13.6862 147.118V148.126H14.4269H29.1661V147.118H13.6862Z" fill="#EBEBEB"/>
<path d="M15.1488 149.897L14.4269 148.126H28.6021L27.7561 149.897H15.1488Z" fill="#E0E0E0"/>
<path d="M27.7937 141.268L27.7373 141.354C27.6884 141.414 27.632 141.493 27.5606 141.587L26.8725 142.471L26.8387 142.508L26.8086 142.467L25.1166 140.125H25.2143L23.5449 142.486L23.4923 142.561L23.4359 142.49C22.8192 141.76 22.1499 140.963 21.4581 140.136H21.5709L21.4619 140.271L19.6947 142.49L19.6345 142.565L19.5781 142.486C18.9803 141.636 18.4163 140.843 17.9087 140.125H18.0064L15.9535 142.463L15.9159 142.505L15.8895 142.46C15.6151 142.005 15.4007 141.64 15.2428 141.377L15.0774 141.091C15.0584 141.059 15.042 141.025 15.0285 140.989C15.0285 140.989 15.0548 141.016 15.0962 141.08L15.2804 141.354L15.9572 142.418H15.8933L17.9124 140.049L17.9651 139.989L18.0102 140.053L19.6947 142.403H19.5819L21.3453 140.181L21.4543 140.046L21.5107 139.974L21.5709 140.042L23.5411 142.399H23.4321C24.0412 141.55 24.6052 140.756 25.1166 140.049L25.1655 139.978L25.2143 140.049L26.8725 142.418H26.8123L27.5305 141.576L27.7223 141.354C27.7674 141.29 27.7899 141.264 27.7937 141.268Z" fill="#F5F5F5"/>
<path d="M28.1772 138.192C28.1772 138.233 25.2106 138.267 21.5521 138.267C17.8936 138.267 14.927 138.233 14.927 138.192C14.927 138.151 17.8936 138.117 21.5521 138.117C25.2106 138.117 28.1772 138.154 28.1772 138.192Z" fill="#F5F5F5"/>
<path d="M28.7751 148.224C28.7751 148.265 25.5527 148.299 21.5747 148.299C17.5966 148.299 14.3743 148.265 14.3743 148.224C14.3743 148.182 17.5966 148.152 21.5747 148.152C25.5527 148.152 28.7751 148.182 28.7751 148.224Z" fill="#F5F5F5"/>
<path d="M158.585 -7.17712H10.8963V81.213H158.585V-7.17712Z" fill="#F5F5F5"/>
<path d="M164.458 117.181H131.205V149.355H164.458V117.181Z" fill="#F5F5F5"/>
<path d="M133.784 146.599L142.981 130.044L150.505 140.625L155.077 135.007L161.879 146.599H133.784Z" fill="#E0E0E0"/>
<path d="M153.712 126.825C153.712 127.299 153.572 127.762 153.309 128.156C153.046 128.55 152.671 128.857 152.234 129.038C151.796 129.22 151.315 129.267 150.85 129.175C150.385 129.082 149.959 128.854 149.624 128.519C149.289 128.184 149.061 127.757 148.968 127.293C148.876 126.828 148.923 126.347 149.104 125.909C149.286 125.471 149.593 125.097 149.987 124.834C150.38 124.571 150.844 124.43 151.317 124.43C151.952 124.43 152.562 124.683 153.011 125.132C153.46 125.581 153.712 126.19 153.712 126.825Z" fill="#E0E0E0"/>
<g opacity="0.3">
<path opacity="0.3" d="M161.879 146.69C161.879 146.69 161.879 146.641 161.879 146.558C161.879 146.475 161.879 146.34 161.879 146.182C161.879 145.84 161.879 145.359 161.879 144.734C161.879 143.46 161.86 141.614 161.845 139.271C161.826 134.571 161.804 127.878 161.774 119.843L161.909 119.982L133.814 120.005C133.777 120.035 134.111 119.704 133.972 119.851V123.487C133.972 124.69 133.972 125.886 133.972 127.066C133.972 129.431 133.972 131.747 133.972 134C133.972 138.512 133.972 142.768 133.972 146.686L133.837 146.547L154.141 146.618L159.871 146.652L161.375 146.671H161.77C161.815 146.668 161.86 146.668 161.905 146.671C161.865 146.675 161.825 146.675 161.785 146.671H161.409H159.905L154.205 146.708L133.803 146.78H133.664V146.641C133.664 142.723 133.664 138.463 133.664 133.954C133.664 131.698 133.664 129.386 133.664 127.021V119.854L133.826 119.689L161.92 119.712H162.06V119.847C162.029 127.92 162.007 134.639 161.988 139.361C161.988 141.689 161.962 143.524 161.954 144.795C161.954 145.404 161.954 145.881 161.935 146.216C161.935 146.366 161.935 146.483 161.935 146.592C161.922 146.627 161.903 146.66 161.879 146.69Z" fill="#E0E0E0"/>
</g>
<path d="M166.162 1.91452H16.8333V86.804H166.162V1.91452Z" fill="#E0E0E0"/>
<path d="M183.533 149.506C183.533 149.562 144.286 149.604 95.8839 149.604C47.4814 149.604 8.22705 149.562 8.22705 149.506C8.22705 149.449 47.4664 149.408 95.8839 149.408C144.301 149.408 183.533 149.472 183.533 149.506Z" fill="#263238"/>
<path d="M163.372 118.204C163.908 118.452 164.388 118.805 164.785 119.243C165.181 119.681 165.484 120.195 165.677 120.753C166.055 121.874 166.172 123.066 166.019 124.239C165.79 126.495 164.515 128.807 163.169 130.631C161.24 128.991 160.766 126.092 160.62 124.615C160.386 122.268 161.39 117.884 163.372 118.223" fill="#FF6BA6"/>
<path d="M165.44 134.342C165.304 133.696 165.34 133.027 165.545 132.4C165.749 131.773 166.115 131.211 166.606 130.77C167.105 130.339 167.686 130.012 168.313 129.808C168.941 129.604 169.603 129.527 170.26 129.582C170.866 129.619 171.524 129.788 171.877 130.285C172.029 130.526 172.114 130.804 172.122 131.089C172.13 131.374 172.061 131.656 171.922 131.905C171.64 132.404 171.23 132.818 170.734 133.105C169.095 134.161 167.316 134.879 165.44 134.342Z" fill="#FF6BA6"/>
<path d="M162.24 135.658C161.954 134.296 161.348 133.021 160.471 131.94C159.594 130.859 158.472 130.003 157.198 129.442C156.548 129.164 155.694 129.003 155.205 129.495C154.716 129.988 154.852 130.837 155.138 131.488C155.754 132.83 156.754 133.96 158.011 134.736C159.268 135.511 160.726 135.897 162.203 135.846" fill="#FF6BA6"/>
<path d="M162.827 141.452C162.836 141.292 162.86 141.134 162.898 140.978C162.951 140.677 163.037 140.226 163.158 139.703C163.444 138.296 163.913 136.932 164.553 135.646C165.208 134.354 166.197 133.259 167.418 132.477C167.789 132.248 168.187 132.065 168.602 131.932C168.714 131.893 168.828 131.862 168.944 131.838C168.984 131.825 169.026 131.817 169.068 131.815C168.512 132.009 167.978 132.261 167.474 132.567C166.292 133.362 165.332 134.447 164.688 135.718C164.054 136.994 163.574 138.34 163.259 139.73L162.955 140.989C162.921 141.146 162.878 141.3 162.827 141.452Z" fill="#263238"/>
<path d="M162.902 121.61C162.92 121.677 162.928 121.745 162.928 121.814C162.928 121.96 162.951 122.156 162.966 122.396C163 122.904 163.037 123.637 163.075 124.543C163.154 126.356 163.229 128.864 163.252 131.635C163.274 134.406 163.252 136.899 163.184 138.726C163.158 139.636 163.131 140.369 163.109 140.877C163.109 141.117 163.086 141.313 163.079 141.46C163.076 141.528 163.069 141.596 163.056 141.663C163.051 141.595 163.051 141.527 163.056 141.46C163.056 141.309 163.056 141.117 163.056 140.873C163.056 140.35 163.075 139.621 163.086 138.726C163.109 136.91 163.131 134.406 163.109 131.635C163.086 128.864 163.03 126.371 162.977 124.547C162.951 123.652 162.932 122.923 162.917 122.4C162.917 122.156 162.917 121.964 162.917 121.814C162.905 121.746 162.9 121.678 162.902 121.61Z" fill="#263238"/>
<path d="M157.623 131.548C157.767 131.597 157.907 131.658 158.04 131.732C158.204 131.804 158.363 131.888 158.514 131.984C158.72 132.099 158.92 132.224 159.112 132.36L159.446 132.601C159.563 132.687 159.676 132.789 159.792 132.887C160.037 133.082 160.266 133.319 160.518 133.563C161.035 134.118 161.493 134.724 161.887 135.372C162.266 136.027 162.574 136.72 162.808 137.44C162.909 137.755 162.991 138.075 163.056 138.399C163.082 138.549 163.12 138.696 163.139 138.839C163.158 138.982 163.173 139.117 163.191 139.249C163.229 139.512 163.229 139.749 163.24 139.959C163.252 140.138 163.252 140.318 163.24 140.497C163.239 140.649 163.226 140.801 163.203 140.952C163.165 140.952 163.225 140.298 163.094 139.264C163.075 139.132 163.052 138.997 163.034 138.858C163.015 138.718 162.973 138.576 162.94 138.425C162.883 138.124 162.782 137.812 162.684 137.481C162.222 136.056 161.452 134.751 160.428 133.657C160.183 133.413 159.962 133.172 159.725 132.977C159.608 132.879 159.499 132.778 159.386 132.691L159.063 132.443C158.206 131.838 157.604 131.578 157.623 131.548Z" fill="#263238"/>
<path d="M166.73 149.506H159.822L158.412 139.384H168.046L166.73 149.506Z" fill="#263238"/>
<path d="M167.425 144.05C167.425 144.103 165.545 144.148 163.259 144.148C160.973 144.148 159.093 144.103 159.093 144.05C159.093 143.997 160.973 143.952 163.259 143.952C165.545 143.952 167.425 143.997 167.425 144.05Z" fill="#FAFAFA"/>
<path d="M167.425 144.652C167.425 144.704 165.545 144.749 163.259 144.749C160.973 144.749 159.093 144.704 159.093 144.652C159.093 144.599 160.973 144.554 163.259 144.554C165.545 144.554 167.425 144.584 167.425 144.652Z" fill="#FAFAFA"/>
<path d="M146.11 149.472L93.4398 149.494C93.3343 149.495 93.2298 149.475 93.1322 149.435C93.0346 149.395 92.9459 149.336 92.8711 149.261C92.7963 149.187 92.737 149.098 92.6965 149.001C92.656 148.904 92.6352 148.799 92.6352 148.694V116.88C92.6352 116.775 92.656 116.67 92.6965 116.573C92.737 116.475 92.7963 116.387 92.8711 116.313C92.9459 116.238 93.0346 116.179 93.1322 116.139C93.2298 116.099 93.3343 116.079 93.4398 116.079L146.11 116.053C146.323 116.054 146.526 116.139 146.676 116.29C146.827 116.441 146.911 116.645 146.911 116.858V148.667C146.911 148.88 146.827 149.084 146.676 149.235C146.526 149.386 146.323 149.471 146.11 149.472Z" fill="#263238"/>
<path d="M120.331 129.424L124.787 131.819L120.512 134.635L116.233 137.455L116.056 132.24L115.876 127.025L120.331 129.424Z" fill="white"/>
<path d="M142.989 146.144C142.989 146.201 132.593 146.25 119.771 146.253C106.95 146.257 96.5531 146.22 96.5531 146.167C96.5531 146.114 106.946 146.065 119.771 146.058C132.596 146.05 142.989 146.088 142.989 146.144Z" fill="white"/>
<path d="M97.3841 146.167C97.3841 146.283 97.3497 146.396 97.2852 146.493C97.2208 146.589 97.1292 146.664 97.022 146.709C96.9148 146.753 96.7969 146.765 96.6831 146.742C96.5693 146.72 96.4648 146.664 96.3827 146.582C96.3007 146.5 96.2448 146.395 96.2222 146.281C96.1996 146.168 96.2112 146.05 96.2556 145.942C96.3 145.835 96.3752 145.744 96.4716 145.679C96.5681 145.615 96.6815 145.58 96.7975 145.58C96.9531 145.58 97.1023 145.642 97.2123 145.752C97.3223 145.862 97.3841 146.011 97.3841 146.167Z" fill="white"/>
<path d="M137.879 149.389L81.9455 149.416C81.7321 149.416 81.5274 149.331 81.3765 149.18C81.2256 149.029 81.1409 148.824 81.1409 148.611V114.79C81.1409 114.684 81.1617 114.58 81.2022 114.482C81.2427 114.385 81.302 114.296 81.3768 114.222C81.4515 114.148 81.5403 114.089 81.6379 114.049C81.7355 114.009 81.84 113.988 81.9455 113.989L137.879 113.963C138.092 113.963 138.296 114.047 138.447 114.197C138.598 114.347 138.683 114.551 138.684 114.763V148.603C138.68 148.814 138.593 149.014 138.443 149.161C138.292 149.308 138.09 149.39 137.879 149.389Z" fill="#455A64"/>
<path d="M110.503 128.123L115.229 130.661L110.694 133.65L106.16 136.639L105.972 131.112L105.78 125.581L110.503 128.123Z" fill="white"/>
<path d="M134.525 145.851C134.525 145.907 123.505 145.956 109.912 145.96C96.32 145.964 85.2957 145.93 85.2957 145.874C85.2957 145.817 96.3162 145.772 109.912 145.765C123.509 145.757 134.525 145.798 134.525 145.851Z" fill="white"/>
<path d="M86.1529 145.874C86.1529 145.996 86.1166 146.116 86.0484 146.218C85.9802 146.32 85.8833 146.4 85.77 146.447C85.6566 146.494 85.5318 146.506 85.4115 146.482C85.2912 146.458 85.1806 146.399 85.0939 146.312C85.0071 146.226 84.948 146.115 84.9241 145.995C84.9001 145.874 84.9124 145.75 84.9594 145.636C85.0063 145.523 85.0858 145.426 85.1879 145.358C85.2899 145.29 85.4098 145.253 85.5325 145.253C85.6971 145.253 85.8549 145.319 85.9712 145.435C86.0876 145.551 86.1529 145.709 86.1529 145.874Z" fill="white"/>
<path d="M116.421 129.172H85.0137C84.5693 129.172 84.209 129.532 84.209 129.976V148.694C84.209 149.138 84.5693 149.498 85.0137 149.498H116.421C116.865 149.498 117.226 149.138 117.226 148.694V129.976C117.226 129.532 116.865 129.172 116.421 129.172Z" fill="#FF6BA6"/>
<path d="M101.061 137.29L103.772 138.745L101.17 140.459L98.5685 142.178L98.4594 139.004L98.3504 135.831L101.061 137.29Z" fill="white"/>
<path d="M114.846 147.464C114.846 147.517 108.521 147.562 100.723 147.566C92.9247 147.569 86.5966 147.528 86.5966 147.475C86.5966 147.423 92.9209 147.374 100.723 147.37C108.525 147.366 114.846 147.408 114.846 147.464Z" fill="white"/>
<path d="M87.0892 147.475C87.0892 147.546 87.0681 147.615 87.0287 147.674C86.9893 147.733 86.9333 147.779 86.8678 147.806C86.8023 147.833 86.7303 147.84 86.6609 147.825C86.5915 147.811 86.5279 147.777 86.4781 147.727C86.4283 147.676 86.3946 147.612 86.3812 147.543C86.3678 147.473 86.3755 147.401 86.4031 147.336C86.4307 147.271 86.4771 147.215 86.5363 147.177C86.5955 147.138 86.6649 147.117 86.7358 147.118C86.8298 147.119 86.9197 147.157 86.9859 147.224C87.0521 147.291 87.0892 147.381 87.0892 147.475Z" fill="white"/>
<path d="M170.411 11.2431H22.5562V105.431H170.411V11.2431Z" fill="white"/>
<path d="M170.512 105.07C170.512 104.344 170.482 68.6847 170.433 10.8822L170.512 10.9724L22.6727 10.9987L22.778 10.8822C22.778 44.2183 22.778 76.0693 22.778 105.07L22.6802 104.961L170.531 105.07L22.6802 105.179H22.5599V105.07C22.5599 76.0693 22.5599 44.2183 22.5599 10.8822V10.7656H22.6802L170.52 10.7919H170.602V10.8822C170.546 68.6847 170.516 104.352 170.512 105.07Z" fill="#263238"/>
<path d="M170.599 16.5297C170.599 16.5861 137.458 16.635 96.5906 16.635C55.7231 16.635 22.5599 16.5861 22.5599 16.5297C22.5599 16.4733 55.693 16.4206 96.5755 16.4206C137.458 16.4206 170.599 16.4695 170.599 16.5297Z" fill="#263238"/>
<path d="M27.4479 13.0404C27.4479 13.2293 27.3919 13.414 27.287 13.571C27.182 13.7281 27.0329 13.8505 26.8584 13.9228C26.6839 13.995 26.4918 14.014 26.3066 13.9771C26.1213 13.9403 25.9511 13.8493 25.8176 13.7157C25.684 13.5822 25.593 13.412 25.5562 13.2267C25.5193 13.0415 25.5383 12.8495 25.6105 12.6749C25.6828 12.5004 25.8052 12.3513 25.9623 12.2463C26.1193 12.1414 26.304 12.0854 26.4929 12.0854C26.7462 12.0854 26.9891 12.186 27.1682 12.3651C27.3473 12.5442 27.4479 12.7871 27.4479 13.0404Z" fill="#263238"/>
<path d="M30.3769 13.0404C30.3769 13.2293 30.3209 13.414 30.216 13.571C30.111 13.7281 29.9619 13.8505 29.7874 13.9228C29.6129 13.995 29.4208 14.014 29.2356 13.9771C29.0503 13.9403 28.8801 13.8493 28.7466 13.7157C28.613 13.5822 28.5221 13.412 28.4852 13.2267C28.4484 13.0415 28.4673 12.8495 28.5396 12.6749C28.6118 12.5004 28.7343 12.3513 28.8913 12.2463C29.0484 12.1414 29.233 12.0854 29.4219 12.0854C29.5473 12.0854 29.6715 12.1101 29.7874 12.1581C29.9032 12.2061 30.0085 12.2764 30.0972 12.3651C30.1859 12.4538 30.2562 12.5591 30.3042 12.6749C30.3522 12.7908 30.3769 12.915 30.3769 13.0404Z" fill="#263238"/>
<path d="M33.2909 13.0404C33.2909 13.2293 33.2349 13.414 33.13 13.571C33.0251 13.7281 32.8759 13.8505 32.7014 13.9228C32.5269 13.995 32.3348 14.014 32.1496 13.9771C31.9643 13.9403 31.7942 13.8493 31.6606 13.7157C31.527 13.5822 31.4361 13.412 31.3992 13.2267C31.3624 13.0415 31.3813 12.8495 31.4536 12.6749C31.5258 12.5004 31.6483 12.3513 31.8053 12.2463C31.9624 12.1414 32.147 12.0854 32.3359 12.0854C32.5892 12.0854 32.8321 12.186 33.0112 12.3651C33.1903 12.5442 33.2909 12.7871 33.2909 13.0404Z" fill="#263238"/>
<path d="M62.9649 67.2785H32.475V96.7794H62.9649V67.2785Z" fill="#FF6BA6"/>
<g opacity="0.3">
<path opacity="0.3" d="M34.8401 94.2564L43.2738 79.0735L50.1734 88.7781L54.3658 83.6231L60.6036 94.2564H34.8401Z" fill="black"/>
</g>
<g opacity="0.3">
<path opacity="0.3" d="M53.1137 76.1219C53.1144 76.5564 52.9863 76.9813 52.7454 77.3429C52.5046 77.7045 52.1619 77.9865 51.7607 78.1533C51.3596 78.3201 50.9179 78.3641 50.4917 78.2798C50.0655 78.1955 49.6739 77.9867 49.3665 77.6797C49.059 77.3728 48.8495 76.9815 48.7645 76.5555C48.6794 76.1294 48.7227 75.6877 48.8888 75.2863C49.0549 74.8848 49.3363 74.5416 49.6975 74.3002C50.0587 74.0587 50.4834 73.9299 50.9178 73.9299C51.4992 73.9309 52.0566 74.162 52.4681 74.5728C52.8796 74.9835 53.1117 75.5405 53.1137 76.1219Z" fill="black"/>
</g>
<g opacity="0.3">
<path opacity="0.3" d="M60.6036 94.3353C60.5979 94.2954 60.5979 94.2549 60.6036 94.215C60.6036 94.1285 60.6036 94.0157 60.6036 93.8729C60.6036 93.557 60.6036 93.1209 60.6036 92.5456C60.6036 91.3762 60.6036 89.6842 60.5698 87.5335C60.5698 83.2245 60.5322 77.0882 60.5058 69.7224L60.6337 69.8465L34.8702 69.869L35.013 69.7261V76.3513C35.013 78.517 35.013 80.6414 35.013 82.7057C35.013 86.8417 35.013 90.7445 35.013 94.3353L34.889 94.2113L53.516 94.2752L58.78 94.309H60.175H60.551H60.6788C60.6414 94.3147 60.6034 94.3147 60.566 94.309H60.2163H58.8477L53.6213 94.3429L34.9153 94.4068H34.7874V94.2789C34.7874 90.6881 34.7874 86.7815 34.7874 82.6493C34.7874 80.585 34.7874 78.4606 34.7874 76.2949V69.7261L34.9341 69.5795L60.6976 69.5983H60.8217V69.7224C60.7954 77.1221 60.7728 83.2847 60.7578 87.6125C60.7578 89.7519 60.7314 91.4326 60.7239 92.5945C60.7239 93.1547 60.7239 93.5909 60.7239 93.8992C60.7239 94.0383 60.7239 94.1436 60.7239 94.2301C60.6867 94.2684 60.6465 94.3036 60.6036 94.3353Z" fill="black"/>
</g>
<path d="M87.8335 72.8921H67.1949V73.9299H87.8335V72.8921Z" fill="#FF6BA6"/>
<path d="M95.0076 77.3439C95.0076 77.4041 88.8073 77.453 81.1633 77.453C73.5192 77.453 67.3189 77.4041 67.3189 77.3439C67.3189 77.2838 73.5154 77.2386 81.1633 77.2386C88.8111 77.2386 95.0076 77.28 95.0076 77.3439Z" fill="#263238"/>
<path d="M95.0076 80.2391C95.0076 80.2993 88.8074 80.3482 81.1633 80.3482C73.5192 80.3482 67.3039 80.288 67.3039 80.2391C67.3039 80.1903 73.5004 80.1339 81.1482 80.1339C88.7961 80.1339 95.0076 80.1827 95.0076 80.2391Z" fill="#263238"/>
<path d="M95.0076 83.1343C95.0076 83.1945 88.8073 83.2396 81.1633 83.2396C73.5192 83.2396 67.3189 83.1945 67.3189 83.1343C67.3189 83.0742 73.5154 83.029 81.1633 83.029C88.8111 83.029 95.0076 83.0742 95.0076 83.1343Z" fill="#263238"/>
<path d="M95.0076 86.0295C95.0076 86.0859 88.8073 86.1348 81.1633 86.1348C73.5192 86.1348 67.3189 86.0859 67.3189 86.0295C67.3189 85.9731 73.5154 85.9242 81.1633 85.9242C88.8111 85.9242 95.0076 85.9694 95.0076 86.0295Z" fill="#263238"/>
<path d="M95.0076 88.936C95.0076 88.9924 88.8074 89.0413 81.1633 89.0413C73.5192 89.0413 67.3039 88.9812 67.3039 88.936C67.3039 88.8909 73.5004 88.827 81.1482 88.827C88.7961 88.827 95.0076 88.8646 95.0076 88.936Z" fill="#263238"/>
<path d="M81.5393 91.568C81.5393 91.6244 78.3546 91.6733 74.4291 91.6733C70.5037 91.6733 67.3039 91.6395 67.3039 91.568C67.3039 91.4966 70.4886 91.459 74.4141 91.459C78.3395 91.459 81.5393 91.5229 81.5393 91.568Z" fill="#263238"/>
<path d="M154.502 71.1437H133.863V72.1815H154.502V71.1437Z" fill="#FF6BA6"/>
<path d="M161.68 75.5993C161.68 75.6594 155.48 75.7046 147.836 75.7046C140.192 75.7046 133.991 75.6594 133.991 75.5993C133.991 75.5391 140.188 75.494 147.836 75.494C155.483 75.494 161.68 75.5391 161.68 75.5993Z" fill="#263238"/>
<path d="M161.68 78.4945C161.68 78.5547 155.48 78.5998 147.836 78.5998C140.192 78.5998 133.991 78.5547 133.991 78.4945C133.991 78.4344 140.188 78.3893 147.836 78.3893C155.483 78.3893 161.68 78.4344 161.68 78.4945Z" fill="#263238"/>
<path d="M161.68 81.3897C161.68 81.4461 155.48 81.495 147.836 81.495C140.192 81.495 133.991 81.4461 133.991 81.3897C133.991 81.3333 140.188 81.2807 147.836 81.2807C155.483 81.2807 161.68 81.3295 161.68 81.3897Z" fill="#263238"/>
<path d="M161.68 84.2849C161.68 84.3413 155.48 84.3902 147.836 84.3902C140.192 84.3902 133.991 84.3413 133.991 84.2849C133.991 84.2285 140.188 84.1759 147.836 84.1759C155.483 84.1759 161.68 84.2247 161.68 84.2849Z" fill="#263238"/>
<path d="M161.68 87.1763C161.68 87.2365 155.48 87.2853 147.836 87.2853C140.192 87.2853 133.991 87.2365 133.991 87.1763C133.991 87.1162 140.188 87.071 147.836 87.071C155.483 87.071 161.68 87.1199 161.68 87.1763Z" fill="#263238"/>
<path d="M148.208 89.8384C148.208 89.8948 145.023 89.9437 141.098 89.9437C137.172 89.9437 133.988 89.8948 133.988 89.8384C133.988 89.782 137.172 89.7294 141.098 89.7294C145.023 89.7294 148.208 89.7782 148.208 89.8384Z" fill="#263238"/>
<path d="M129.6 97.7758C129.93 97.673 130.278 97.6372 130.622 97.6705C130.408 97.8848 130.562 97.7307 130.513 97.7758V97.584V97.3923C130.513 97.2694 130.521 97.1604 130.536 97.0651C130.555 96.8809 130.581 96.7681 130.611 96.7681C130.641 96.7681 130.667 96.8809 130.686 97.0651C130.686 97.1604 130.694 97.2694 130.709 97.3923V97.7683L130.604 97.8773C130.265 97.9126 129.924 97.878 129.6 97.7758Z" fill="#263238"/>
<path d="M125.208 97.7758C125.931 97.6354 126.674 97.6354 127.396 97.7758C126.674 97.9211 125.93 97.9211 125.208 97.7758Z" fill="#263238"/>
<path d="M120.846 97.7758C121.569 97.6354 122.312 97.6354 123.035 97.7758C122.312 97.9211 121.569 97.9211 120.846 97.7758Z" fill="#263238"/>
<path d="M116.47 97.7758C117.192 97.6354 117.935 97.6354 118.658 97.7758C117.936 97.9211 117.192 97.9211 116.47 97.7758Z" fill="#263238"/>
<path d="M112.093 97.7758C112.816 97.6354 113.559 97.6354 114.281 97.7758C113.559 97.9211 112.815 97.9211 112.093 97.7758Z" fill="#263238"/>
<path d="M107.716 97.7758C108.439 97.6354 109.182 97.6354 109.905 97.7758C109.182 97.9211 108.439 97.9211 107.716 97.7758Z" fill="#263238"/>
<path d="M103.34 97.7758C104.062 97.6354 104.805 97.6354 105.528 97.7758C104.806 97.9211 104.062 97.9211 103.34 97.7758Z" fill="#263238"/>
<path d="M100.129 96.7568C100.236 97.0851 100.273 97.4323 100.238 97.7758L100.129 97.6705H100.527L100.854 97.6931C101.039 97.7156 101.151 97.742 101.151 97.7683C101.151 97.7946 101.039 97.8247 100.854 97.8472L100.527 97.8698H100.129C100.084 97.8209 100.238 97.9751 100.023 97.7608C99.9924 97.4225 100.028 97.0813 100.129 96.7568Z" fill="#263238"/>
<path d="M100.129 92.5306C100.274 93.2275 100.274 93.9469 100.129 94.6437C99.9883 93.9463 99.9883 93.228 100.129 92.5306Z" fill="#263238"/>
<path d="M100.129 88.3081C100.274 89.005 100.274 89.7244 100.129 90.4212C99.9883 89.7239 99.9883 89.0055 100.129 88.3081Z" fill="#263238"/>
<path d="M100.129 84.0856C100.274 84.7812 100.274 85.4994 100.129 86.195C100.026 85.8528 99.9905 85.4941 100.023 85.1384C99.9903 84.784 100.026 84.4265 100.129 84.0856Z" fill="#263238"/>
<path d="M100.129 79.8594C100.274 80.5562 100.274 81.2756 100.129 81.9725C99.9883 81.2751 99.9883 80.5567 100.129 79.8594Z" fill="#263238"/>
<path d="M100.129 75.6369C100.274 76.3325 100.274 77.0506 100.129 77.7462C100.026 77.4054 99.9903 77.0479 100.023 76.6934C99.9905 76.3378 100.026 75.9791 100.129 75.6369Z" fill="#263238"/>
<path d="M100.129 71.4106C100.274 72.1075 100.274 72.8269 100.129 73.5238C99.9883 72.8264 99.9883 72.108 100.129 71.4106Z" fill="#263238"/>
<path d="M101.144 68.2786C100.814 68.3832 100.466 68.419 100.121 68.3839L100.23 68.2786V68.4741V68.6659C100.23 68.7862 100.23 68.899 100.208 68.9893C100.189 69.1735 100.163 69.2901 100.132 69.2901C100.102 69.2901 100.076 69.1735 100.057 68.9893C100.057 68.899 100.057 68.7862 100.035 68.6659C100.012 68.5456 100.035 68.5343 100.035 68.4741V68.2786L100.14 68.1733C100.478 68.1407 100.82 68.1765 101.144 68.2786Z" fill="#263238"/>
<path d="M105.528 68.2786C104.805 68.419 104.062 68.419 103.34 68.2786C104.062 68.1382 104.805 68.1382 105.528 68.2786Z" fill="#263238"/>
<path d="M109.905 68.2786C109.182 68.419 108.439 68.419 107.716 68.2786C108.439 68.1382 109.182 68.1382 109.905 68.2786Z" fill="#263238"/>
<path d="M114.281 68.2786C113.559 68.419 112.816 68.419 112.093 68.2786C112.816 68.1382 113.559 68.1382 114.281 68.2786Z" fill="#263238"/>
<path d="M118.658 68.2786C117.935 68.419 117.192 68.419 116.47 68.2786C117.192 68.1382 117.935 68.1382 118.658 68.2786Z" fill="#263238"/>
<path d="M123.035 68.2786C122.312 68.419 121.569 68.419 120.846 68.2786C121.569 68.1382 122.312 68.1382 123.035 68.2786Z" fill="#263238"/>
<path d="M127.411 68.2786C126.689 68.419 125.946 68.419 125.223 68.2786C125.946 68.1382 126.689 68.1382 127.411 68.2786Z" fill="#263238"/>
<path d="M130.622 69.3013C130.515 68.9717 130.478 68.6234 130.513 68.2786L130.622 68.3839H130.416H130.224C130.1 68.3839 129.991 68.3839 129.897 68.3613C129.712 68.3425 129.6 68.3162 129.6 68.2861C129.6 68.256 129.712 68.2297 129.897 68.2109C129.992 68.2109 130.101 68.2034 130.224 68.1884H130.416H130.622L130.728 68.2936C130.758 68.6332 130.722 68.9754 130.622 69.3013Z" fill="#263238"/>
<path d="M130.622 73.52C130.477 72.8231 130.477 72.1038 130.622 71.4069C130.763 72.1043 130.763 72.8226 130.622 73.52Z" fill="#263238"/>
<path d="M130.622 77.7462C130.477 77.0506 130.477 76.3325 130.622 75.6369C130.725 75.9791 130.761 76.3378 130.728 76.6934C130.761 77.0479 130.725 77.4054 130.622 77.7462Z" fill="#263238"/>
<path d="M130.622 81.9725C130.477 81.2756 130.477 80.5562 130.622 79.8594C130.763 80.5567 130.763 81.2751 130.622 81.9725Z" fill="#263238"/>
<path d="M130.622 86.195C130.477 85.4994 130.477 84.7812 130.622 84.0856C130.725 84.4265 130.761 84.784 130.728 85.1384C130.761 85.4941 130.725 85.8528 130.622 86.195Z" fill="#263238"/>
<path d="M130.622 90.44C130.477 89.7431 130.477 89.0238 130.622 88.3269C130.763 89.0243 130.763 89.7426 130.622 90.44Z" fill="#263238"/>
<path d="M130.622 94.6437C130.477 93.9469 130.477 93.2275 130.622 92.5306C130.763 93.228 130.763 93.9463 130.622 94.6437Z" fill="#263238"/>
<path d="M121.264 40.1914C121.264 40.1914 121.264 40.1124 121.264 39.9696C121.264 39.8267 121.264 39.5936 121.264 39.3454C121.264 38.7927 121.264 37.9956 121.245 36.9766C121.245 34.9274 121.219 31.9871 121.204 28.3963L121.279 28.4715L102.125 28.494C102.103 28.5128 102.31 28.3098 102.219 28.3963V34.495C102.219 36.469 102.219 38.3716 102.219 40.1839L102.125 40.0936L115.894 40.1388L119.854 40.1651H120.91H121.185C121.217 40.1619 121.25 40.1619 121.282 40.1651H120.933H119.891L115.955 40.1914L102.125 40.2365H102.035V40.1425C102.035 38.3302 102.035 36.4276 102.035 34.4536V31.4456C102.035 30.938 102.035 30.4229 102.035 29.9078V28.4C101.949 28.4865 102.155 28.2797 102.137 28.3023L121.29 28.3211H121.369V28.4C121.35 32.0134 121.335 34.965 121.328 37.0292C121.328 38.0407 121.328 38.8303 121.309 39.3792C121.309 39.6424 121.309 39.8455 121.309 39.9921C121.309 40.1388 121.264 40.1914 121.264 40.1914Z" fill="#FF6BA6"/>
<path d="M111.803 33.3144L113.375 34.1604L111.867 35.153L110.356 36.1457L110.296 34.307L110.232 32.4684L111.803 33.3144Z" fill="#FF6BA6"/>
<path d="M119.88 39.0107C119.88 39.0671 116.21 39.1085 111.687 39.1085C107.164 39.1085 103.49 39.0671 103.49 39.0107C103.49 38.9543 107.16 38.928 111.672 38.928C116.184 38.928 119.88 38.9581 119.88 39.0107Z" fill="#FF6BA6"/>
<path d="M103.569 39.2176C103.683 39.2176 103.776 39.125 103.776 39.0108C103.776 38.8966 103.683 38.804 103.569 38.804C103.455 38.804 103.362 38.8966 103.362 39.0108C103.362 39.125 103.455 39.2176 103.569 39.2176Z" fill="#FF6BA6"/>
<path d="M146.208 29.7762H125.569V30.8139H146.208V29.7762Z" fill="#FF6BA6"/>
<path d="M153.382 34.2318C153.382 34.2882 147.185 34.3371 139.541 34.3371C131.897 34.3371 125.697 34.2882 125.697 34.2318C125.697 34.1754 131.893 34.1228 139.541 34.1228C147.189 34.1228 153.382 34.1716 153.382 34.2318Z" fill="#263238"/>
<path d="M153.382 37.1233C153.382 37.1834 147.185 37.2323 139.541 37.2323C131.897 37.2323 125.697 37.1834 125.697 37.1233C125.697 37.0631 131.893 37.018 139.541 37.018C147.189 37.018 153.382 37.0669 153.382 37.1233Z" fill="#263238"/>
<path d="M121.264 57.5137C121.264 57.5137 121.264 57.4385 121.264 57.2957C121.264 57.1528 121.264 56.9385 121.264 56.6715C121.264 56.1188 121.264 55.3217 121.245 54.3027C121.245 52.2535 121.219 49.3132 121.204 45.7224L121.279 45.7976L102.125 45.8201C102.103 45.8201 102.31 45.6321 102.219 45.7224V51.8249C102.219 53.7989 102.219 55.7014 102.219 57.5137L102.125 57.4235L115.894 57.4686L119.854 57.4949H120.91H121.185H121.282C121.282 57.4949 121.256 57.4949 121.196 57.4949H120.933H119.891L115.955 57.5213L102.125 57.5626H102.035V57.4686C102.035 55.6563 102.035 53.7537 102.035 51.7797V48.7717C102.035 48.2604 102.035 47.749 102.035 47.2339V45.6848C101.949 45.7713 102.155 45.5645 102.137 45.587L121.29 45.6058H121.369V45.6848C121.35 49.2981 121.335 52.2497 121.328 54.3102C121.328 55.3217 121.328 56.115 121.309 56.664C121.309 56.9272 121.309 57.1265 121.309 57.2731C121.299 57.3542 121.284 57.4345 121.264 57.5137Z" fill="#FF6BA6"/>
<path d="M111.803 50.6366L113.375 51.4826L111.867 52.479L110.356 53.4717L110.296 51.633L110.232 49.7906L111.803 50.6366Z" fill="#FF6BA6"/>
<path d="M119.88 56.3368C119.88 56.3894 116.21 56.4346 111.687 56.4346C107.164 56.4346 103.49 56.3894 103.49 56.3368C103.49 56.2842 107.16 56.224 111.672 56.224C116.184 56.224 119.88 56.2842 119.88 56.3368Z" fill="#FF6BA6"/>
<path d="M103.569 56.5436C103.683 56.5436 103.776 56.451 103.776 56.3368C103.776 56.2226 103.683 56.13 103.569 56.13C103.455 56.13 103.362 56.2226 103.362 56.3368C103.362 56.451 103.455 56.5436 103.569 56.5436Z" fill="#FF6BA6"/>
<path d="M146.208 47.1023H125.569V48.14H146.208V47.1023Z" fill="#FF6BA6"/>
<path d="M153.382 51.5541C153.382 51.6143 147.185 51.6632 139.541 51.6632C131.897 51.6632 125.697 51.6143 125.697 51.5541C125.697 51.494 131.893 51.4489 139.541 51.4489C147.189 51.4489 153.382 51.4977 153.382 51.5541Z" fill="#263238"/>
<path d="M153.382 54.4493C153.382 54.5095 147.185 54.5583 139.541 54.5583C131.897 54.5583 125.697 54.5095 125.697 54.4493C125.697 54.3891 131.893 54.344 139.541 54.344C147.189 54.344 153.382 54.3929 153.382 54.4493Z" fill="#263238"/>
<path d="M92.0334 61.6685C92.3371 61.5732 92.6567 61.5399 92.9734 61.5707L92.8757 61.6685V61.488V61.3113C92.8757 61.1985 92.8757 61.097 92.8945 61.0105C92.8945 60.8413 92.9358 60.736 92.9659 60.736C92.996 60.736 93.0148 60.8413 93.0336 61.0105C93.0336 61.097 93.0336 61.1985 93.0562 61.3113V61.6873L92.9584 61.785C92.6454 61.8098 92.3306 61.7701 92.0334 61.6685Z" fill="#E0E0E0"/>
<path d="M88.2809 61.6685C88.9008 61.5376 89.5411 61.5376 90.1609 61.6685C89.5411 61.7994 88.9008 61.7994 88.2809 61.6685Z" fill="#E0E0E0"/>
<path d="M84.5322 61.6685C85.152 61.5371 85.7925 61.5371 86.4122 61.6685C85.7925 61.7999 85.152 61.7999 84.5322 61.6685Z" fill="#E0E0E0"/>
<path d="M80.7798 61.6685C81.3996 61.5376 82.0399 61.5376 82.6598 61.6685C82.0399 61.7994 81.3996 61.7994 80.7798 61.6685Z" fill="#E0E0E0"/>
<path d="M77.031 61.6685C77.3333 61.573 77.6518 61.5397 77.9673 61.5707C78.284 61.54 78.6037 61.5732 78.9073 61.6685C78.6041 61.7659 78.284 61.7992 77.9673 61.7663C77.6518 61.7999 77.3328 61.7666 77.031 61.6685Z" fill="#E0E0E0"/>
<path d="M73.2786 61.6685C73.8984 61.5376 74.5387 61.5376 75.1586 61.6685C74.5387 61.7994 73.8984 61.7994 73.2786 61.6685Z" fill="#E0E0E0"/>
<path d="M69.5298 61.6685C70.1497 61.5376 70.79 61.5376 71.4098 61.6685C70.79 61.7994 70.1497 61.7994 69.5298 61.6685Z" fill="#E0E0E0"/>
<path d="M65.7773 61.6685C66.081 61.5732 66.4006 61.54 66.7173 61.5707C67.0328 61.5397 67.3513 61.573 67.6536 61.6685C67.3518 61.7666 67.0328 61.7999 66.7173 61.7663C66.4006 61.7992 66.0805 61.7659 65.7773 61.6685Z" fill="#E0E0E0"/>
<path d="M62.0399 61.6685C62.6597 61.5376 63.3001 61.5376 63.9199 61.6685C63.3001 61.7994 62.6597 61.7994 62.0399 61.6685Z" fill="#E0E0E0"/>
<path d="M58.2799 61.6685C58.8997 61.5371 59.5401 61.5371 60.1599 61.6685C59.5401 61.7999 58.8997 61.7999 58.2799 61.6685Z" fill="#E0E0E0"/>
<path d="M54.5199 61.6685C55.1397 61.5376 55.7801 61.5376 56.3999 61.6685C55.7801 61.7994 55.1397 61.7994 54.5199 61.6685Z" fill="#E0E0E0"/>
<path d="M50.7787 61.6685C51.3985 61.5371 52.0389 61.5371 52.6587 61.6685C52.0389 61.7999 51.3985 61.7999 50.7787 61.6685Z" fill="#E0E0E0"/>
<path d="M47.0262 61.6685C47.6461 61.5376 48.2864 61.5376 48.9062 61.6685C48.2864 61.7994 47.6461 61.7994 47.0262 61.6685Z" fill="#E0E0E0"/>
<path d="M43.2775 61.6685C43.5798 61.573 43.8983 61.5397 44.2138 61.5707C44.5292 61.5397 44.8477 61.573 45.15 61.6685C44.8483 61.7666 44.5292 61.7999 44.2138 61.7663C43.8983 61.7999 43.5793 61.7666 43.2775 61.6685Z" fill="#E0E0E0"/>
<path d="M39.525 61.6685C39.8286 61.5732 40.1483 61.54 40.465 61.5707C40.7805 61.5402 41.0989 61.5734 41.4013 61.6685C41.0993 61.7657 40.7805 61.799 40.465 61.7663C40.1483 61.7992 39.8282 61.7659 39.525 61.6685Z" fill="#E0E0E0"/>
<path d="M35.7763 61.6685C36.0786 61.573 36.3971 61.5397 36.7125 61.5707C37.0293 61.54 37.3489 61.5732 37.6525 61.6685C37.3494 61.7659 37.0293 61.7992 36.7125 61.7663C36.3971 61.7999 36.078 61.7666 35.7763 61.6685Z" fill="#E0E0E0"/>
<path d="M32.9601 60.736C33.0554 61.0396 33.0886 61.3593 33.0578 61.676L32.9601 61.5782H33.3361C33.4489 61.5782 33.5504 61.5782 33.6369 61.6008C33.8061 61.6008 33.9113 61.6422 33.9113 61.6685C33.9113 61.6948 33.8061 61.7211 33.6369 61.7399L33.3361 61.7587H33.1593H32.9713L32.8736 61.661C32.8412 61.35 32.8706 61.0356 32.9601 60.736Z" fill="#E0E0E0"/>
<path d="M32.9601 57.0362C33.0904 57.6446 33.0904 58.2738 32.9601 58.8823C32.8297 58.2738 32.8297 57.6446 32.9601 57.0362Z" fill="#E0E0E0"/>
<path d="M32.9601 53.3476C33.0904 53.9561 33.0904 54.5853 32.9601 55.1938C32.8297 54.5853 32.8297 53.9561 32.9601 53.3476Z" fill="#E0E0E0"/>
<path d="M32.9601 49.6553C33.0904 50.2638 33.0904 50.8929 32.9601 51.5014C32.8297 50.8929 32.8297 50.2638 32.9601 49.6553Z" fill="#E0E0E0"/>
<path d="M32.9601 45.963C33.0904 46.5715 33.0904 47.2007 32.9601 47.8092C32.8297 47.2007 32.8297 46.5715 32.9601 45.963Z" fill="#E0E0E0"/>
<path d="M32.9601 42.2706C33.0904 42.8791 33.0904 43.5083 32.9601 44.1168C32.8297 43.5083 32.8297 42.8791 32.9601 42.2706Z" fill="#E0E0E0"/>
<path d="M32.9601 38.5821C33.0905 39.1893 33.0905 39.8173 32.9601 40.4245C32.8297 39.8173 32.8297 39.1893 32.9601 38.5821Z" fill="#E0E0E0"/>
<path d="M32.9601 34.8898C33.0904 35.4982 33.0904 36.1274 32.9601 36.7359C32.8297 36.1274 32.8297 35.4982 32.9601 34.8898Z" fill="#E0E0E0"/>
<path d="M32.9601 31.1975C33.0904 31.806 33.0904 32.4352 32.9601 33.0437C32.8297 32.4352 32.8297 31.806 32.9601 31.1975Z" fill="#E0E0E0"/>
<path d="M32.9601 27.5051C33.0904 28.1136 33.0904 28.7428 32.9601 29.3513C32.8297 28.7428 32.8297 28.1136 32.9601 27.5051Z" fill="#E0E0E0"/>
<path d="M33.9001 24.719C33.5974 24.8189 33.277 24.8535 32.9601 24.8205C33.1556 24.6212 33.0127 24.7641 33.0578 24.7228V24.907C33.0578 24.9634 33.0578 25.0198 33.0578 25.0837C33.0578 25.1476 33.0578 25.298 33.0353 25.3808C33.0353 25.55 32.9939 25.6552 32.9676 25.6552C32.9413 25.6552 32.9149 25.55 32.8999 25.3808C32.8999 25.298 32.8999 25.1965 32.8773 25.0837V24.7077C32.9225 24.6626 32.7796 24.8017 32.9751 24.6062C33.2878 24.5823 33.6022 24.6206 33.9001 24.719Z" fill="#E0E0E0"/>
<path d="M37.6525 24.719C37.3499 24.8189 37.0295 24.8535 36.7125 24.8205C36.3968 24.8536 36.0776 24.819 35.7763 24.719C36.0786 24.6235 36.3971 24.5903 36.7125 24.6213C37.0293 24.5905 37.3489 24.6237 37.6525 24.719Z" fill="#E0E0E0"/>
<path d="M41.4013 24.719C41.0998 24.8183 40.7808 24.8529 40.465 24.8205C40.148 24.8534 39.8277 24.8188 39.525 24.719C39.8286 24.6237 40.1483 24.5904 40.465 24.6212C40.7805 24.5906 41.0989 24.6239 41.4013 24.719Z" fill="#E0E0E0"/>
<path d="M45.15 24.719C44.8487 24.819 44.5295 24.8536 44.2138 24.8205C43.898 24.8536 43.5788 24.819 43.2775 24.719C43.5798 24.6235 43.8983 24.5903 44.2138 24.6213C44.5292 24.5903 44.8477 24.6235 45.15 24.719Z" fill="#E0E0E0"/>
<path d="M48.9025 24.719C48.2832 24.855 47.6418 24.855 47.0225 24.719C47.6423 24.5881 48.2826 24.5881 48.9025 24.719Z" fill="#E0E0E0"/>
<path d="M52.6399 24.719C52.0207 24.8554 51.3792 24.8554 50.7599 24.719C51.3797 24.5876 52.0201 24.5876 52.6399 24.719Z" fill="#E0E0E0"/>
<path d="M56.3999 24.719C55.7806 24.855 55.1392 24.855 54.5199 24.719C55.1397 24.5881 55.7801 24.5881 56.3999 24.719Z" fill="#E0E0E0"/>
<path d="M60.1599 24.719C59.5407 24.8554 58.8991 24.8554 58.2799 24.719C58.8997 24.5876 59.5401 24.5876 60.1599 24.719Z" fill="#E0E0E0"/>
<path d="M63.9199 24.719C63.3006 24.855 62.6592 24.855 62.0399 24.719C62.6597 24.5881 63.3001 24.5881 63.9199 24.719Z" fill="#E0E0E0"/>
<path d="M67.6536 24.719C67.3523 24.819 67.0331 24.8536 66.7173 24.8205C66.4004 24.8535 66.08 24.8189 65.7773 24.719C66.081 24.6237 66.4006 24.5905 66.7173 24.6213C67.0328 24.5903 67.3513 24.6235 67.6536 24.719Z" fill="#E0E0E0"/>
<path d="M71.4061 24.719C70.7868 24.855 70.1454 24.855 69.5261 24.719C70.1459 24.5881 70.7862 24.5881 71.4061 24.719Z" fill="#E0E0E0"/>
<path d="M75.1548 24.719C74.5355 24.855 73.8941 24.855 73.2748 24.719C73.8946 24.5881 74.535 24.5881 75.1548 24.719Z" fill="#E0E0E0"/>
<path d="M78.9073 24.719C78.6046 24.8189 78.2843 24.8535 77.9673 24.8205C77.6515 24.8536 77.3324 24.819 77.031 24.719C77.3333 24.6235 77.6518 24.5903 77.9673 24.6213C78.284 24.5905 78.6037 24.6237 78.9073 24.719Z" fill="#E0E0E0"/>
<path d="M82.656 24.719C82.0367 24.855 81.3953 24.855 80.776 24.719C81.3958 24.5881 82.0362 24.5881 82.656 24.719Z" fill="#E0E0E0"/>
<path d="M86.4047 24.719C85.7855 24.8554 85.144 24.8554 84.5247 24.719C85.1445 24.5876 85.7849 24.5876 86.4047 24.719Z" fill="#E0E0E0"/>
<path d="M90.1572 24.719C89.5379 24.855 88.8965 24.855 88.2772 24.719C88.897 24.5881 89.5374 24.5881 90.1572 24.719Z" fill="#E0E0E0"/>
<path d="M92.9734 25.659C92.8756 25.3559 92.8423 25.0357 92.8757 24.719C93.0712 24.9145 92.9283 24.7754 92.9734 24.8205H92.7817H92.605H92.3079C92.1387 24.8017 92.0334 24.7792 92.0334 24.7491C92.0334 24.719 92.1387 24.7002 92.3079 24.6814L92.605 24.6589H92.981C93.0223 24.704 92.8832 24.5611 93.0787 24.7566C93.1025 25.0614 93.0667 25.3679 92.9734 25.659Z" fill="#E0E0E0"/>
<path d="M92.9734 29.3513C92.8431 28.7428 92.8431 28.1136 92.9734 27.5051C93.1038 28.1136 93.1038 28.7428 92.9734 29.3513Z" fill="#E0E0E0"/>
<path d="M92.9734 33.0437C92.8431 32.4352 92.8431 31.806 92.9734 31.1975C93.1038 31.806 93.1038 32.4352 92.9734 33.0437Z" fill="#E0E0E0"/>
<path d="M92.9734 36.7359C92.8431 36.1274 92.8431 35.4982 92.9734 34.8898C93.1038 35.4982 93.1038 36.1274 92.9734 36.7359Z" fill="#E0E0E0"/>
<path d="M92.9734 40.432C92.843 39.8248 92.843 39.1968 92.9734 38.5896C93.1038 39.1968 93.1038 39.8248 92.9734 40.432Z" fill="#E0E0E0"/>
<path d="M92.9734 44.1168C92.8431 43.5083 92.8431 42.8791 92.9734 42.2706C93.1038 42.8791 93.1038 43.5083 92.9734 44.1168Z" fill="#E0E0E0"/>
<path d="M92.9734 47.8092C92.8431 47.2007 92.8431 46.5715 92.9734 45.963C93.1038 46.5715 93.1038 47.2007 92.9734 47.8092Z" fill="#E0E0E0"/>
<path d="M92.9734 51.5014C92.8431 50.8929 92.8431 50.2638 92.9734 49.6553C93.1038 50.2638 93.1038 50.8929 92.9734 51.5014Z" fill="#E0E0E0"/>
<path d="M92.9734 55.1938C92.876 54.8958 92.8426 54.5806 92.8757 54.2688C92.8425 53.9583 92.8758 53.6443 92.9734 53.3476C93.0694 53.6446 93.1027 53.9583 93.0712 54.2688C93.102 54.5806 93.0687 54.8954 92.9734 55.1938Z" fill="#E0E0E0"/>
<path d="M92.9734 58.8823C92.8431 58.2738 92.8431 57.6446 92.9734 57.0362C93.1038 57.6446 93.1038 58.2738 92.9734 58.8823Z" fill="#E0E0E0"/>
<path d="M88.6419 61.3789L30.3205 64.5787C30.1089 64.59 29.9013 64.5174 29.7429 64.3766C29.5845 64.2358 29.4881 64.0382 29.4745 63.8267L27.5419 28.5353C27.5296 28.3235 27.6018 28.1154 27.7428 27.9567C27.8838 27.7981 28.082 27.7019 28.2939 27.6893L86.6115 24.4896C86.8231 24.4783 87.0307 24.5509 87.1891 24.6917C87.3475 24.8325 87.4439 25.0301 87.4575 25.2416L89.3939 60.5292C89.4005 60.6344 89.3863 60.7399 89.352 60.8396C89.3178 60.9393 89.2642 61.0313 89.1943 61.1102C89.1245 61.1892 89.0397 61.2535 88.9449 61.2996C88.8501 61.3458 88.7471 61.3727 88.6419 61.3789Z" fill="#FF6BA6"/>
<path d="M58.8928 40.7854L63.9537 43.1617L59.4041 46.5307L54.8508 49.8997L54.3394 44.1544L53.828 38.4091L58.8928 40.7854Z" fill="white"/>
<path d="M84.912 57.8897C84.912 57.9423 73.4402 58.6153 59.2838 59.3937C45.1274 60.172 33.6481 60.7548 33.6443 60.7021C33.6406 60.6495 45.1161 59.9727 59.2763 59.1981C73.4364 58.4236 84.9082 57.8333 84.912 57.8897Z" fill="white"/>
<path d="M34.5392 60.6532C34.5458 60.7809 34.5143 60.9076 34.4488 61.0174C34.3833 61.1272 34.2868 61.2151 34.1713 61.2701C34.0559 61.325 33.9268 61.3445 33.8003 61.3261C33.6738 61.3077 33.5556 61.2522 33.4606 61.1667C33.3656 61.0812 33.2981 60.9694 33.2666 60.8455C33.2351 60.7216 33.241 60.5911 33.2836 60.4706C33.3262 60.3501 33.4036 60.2449 33.5059 60.1683C33.6083 60.0917 33.731 60.0472 33.8587 60.0403C33.9436 60.0358 34.0287 60.048 34.1089 60.0764C34.1891 60.1047 34.2629 60.1486 34.3261 60.2056C34.3894 60.2625 34.4407 60.3313 34.4773 60.4081C34.5139 60.485 34.5349 60.5682 34.5392 60.6532Z" fill="white"/>
<g opacity="0.3">
<path opacity="0.3" d="M83.502 24.7114C82.5695 26.5012 81.6219 28.5428 82.2536 30.4567C82.5507 31.3328 83.1523 32.0697 83.6072 32.8744C85.006 35.3447 84.9571 38.3414 84.8743 41.1764C84.848 41.9811 84.7803 42.8835 84.175 43.4099C83.6749 43.8385 82.9643 43.8874 82.295 43.91L74.3614 44.2145V58.1829L89.078 54.9268L88.39 34.04L88.014 30.5169L86.5288 24.5009L83.502 24.7114Z" fill="black"/>
</g>
<path d="M70.8871 137.658L71.391 149.442L77.7529 149.299L77.2754 137.493L70.8871 137.658Z" fill="#FF6BA6"/>
<path d="M74.5156 148.927C74.5682 148.927 74.4667 146.344 74.2937 143.163C74.1208 139.982 73.9177 137.406 73.8801 137.41C73.8425 137.414 73.9252 139.993 74.102 143.174C74.2787 146.355 74.4479 148.931 74.5156 148.927Z" fill="#263238"/>
<path d="M71.3534 148.63L77.7191 148.468L77.7529 149.299L71.391 149.442L71.3534 148.63Z" fill="#E0E0E0"/>
<path d="M77.5988 145.528C77.5988 145.528 77.5499 145.426 77.4258 145.276C76.9746 144.748 76.4087 144.33 75.7714 144.054C75.2981 143.847 74.783 143.755 74.2674 143.783C73.802 143.802 73.3456 143.918 72.9274 144.123C72.5092 144.328 72.1383 144.619 71.8384 144.975C71.6604 145.189 71.5147 145.429 71.406 145.686C71.3578 145.777 71.3272 145.876 71.3158 145.979C71.4991 145.657 71.7078 145.35 71.94 145.061C72.5455 144.405 73.3862 144.014 74.2787 143.975C75.1708 143.96 76.0406 144.254 76.7415 144.806C77.298 145.212 77.5762 145.55 77.5988 145.528Z" fill="#263238"/>
<g opacity="0.3">
<path opacity="0.3" d="M77.4108 140.854L77.4634 142.151L71.0864 142.264L71.0413 141.286L77.4108 140.854Z" fill="black"/>
</g>
<path d="M55.4975 137.966L55.8171 145.336C55.8171 145.336 48.4287 148.137 48.3535 149.506L62.6716 149.401L62.6452 137.891L55.4975 137.966Z" fill="#FF6BA6"/>
<path d="M60.1599 144.712C60.2983 144.754 60.4166 144.845 60.4921 144.968C60.5677 145.092 60.5953 145.239 60.5697 145.381C60.534 145.521 60.4458 145.642 60.3233 145.719C60.2009 145.796 60.0535 145.823 59.9117 145.795C59.7639 145.752 59.6376 145.655 59.5576 145.523C59.4776 145.392 59.4497 145.235 59.4793 145.084C59.5312 144.941 59.637 144.824 59.774 144.758C59.911 144.692 60.0683 144.682 60.2125 144.731" fill="#E0E0E0"/>
<path d="M62.6716 149.401V148.246L48.816 148.773C48.816 148.773 48.1768 149.055 48.252 149.506L62.6716 149.401Z" fill="#E0E0E0"/>
<path d="M55.6855 145.385C55.6855 145.456 56.0615 145.486 56.3886 145.708C56.7157 145.93 56.9225 146.227 56.9902 146.201C57.0579 146.174 56.9451 145.765 56.5202 145.501C56.0953 145.238 55.6704 145.336 55.6855 145.385Z" fill="#263238"/>
<path d="M54.1777 146.02C54.1777 146.092 54.4673 146.208 54.7079 146.505C54.9485 146.802 55.0237 147.114 55.0839 147.111C55.1441 147.107 55.1967 146.708 54.8884 146.359C54.5801 146.009 54.1777 145.956 54.1777 146.02Z" fill="#263238"/>
<path d="M53.3317 147.84C53.3956 147.84 53.4934 147.502 53.3092 147.114C53.1249 146.727 52.794 146.581 52.764 146.641C52.7339 146.701 52.9407 146.904 53.0873 147.22C53.234 147.536 53.264 147.833 53.3317 147.84Z" fill="#263238"/>
<path d="M55.802 143.685C55.8321 143.749 56.1517 143.648 56.554 143.685C56.9564 143.723 57.2647 143.832 57.306 143.772C57.3474 143.712 57.0428 143.463 56.5728 143.441C56.1028 143.418 55.7644 143.629 55.802 143.685Z" fill="#263238"/>
<path d="M55.5313 142.099C55.7673 142.166 56.0173 142.166 56.2532 142.099C56.5129 142.052 56.7656 141.972 57.0052 141.862C57.148 141.797 57.2862 141.723 57.4188 141.64C57.4986 141.593 57.5708 141.535 57.6332 141.467C57.6803 141.417 57.709 141.353 57.7144 141.284C57.7199 141.216 57.7019 141.148 57.6632 141.091C57.6287 141.041 57.5826 141 57.5289 140.972C57.4752 140.944 57.4155 140.929 57.3549 140.929C57.2633 140.931 57.1723 140.945 57.0842 140.971C56.9304 141.009 56.7806 141.062 56.6368 141.129C56.3935 141.24 56.169 141.388 55.9712 141.568C55.6404 141.881 55.5276 142.147 55.5539 142.159C55.5802 142.17 55.7456 141.959 56.084 141.704C56.28 141.549 56.4963 141.423 56.727 141.328C56.8648 141.273 57.0069 141.231 57.1519 141.2C57.3023 141.159 57.4339 141.155 57.4715 141.223C57.5091 141.29 57.4715 141.26 57.4715 141.305C57.4257 141.355 57.3724 141.397 57.3135 141.429C57.1927 141.511 57.0672 141.585 56.9375 141.651C56.7144 141.763 56.4816 141.855 56.242 141.926C56.0011 141.966 55.7636 142.024 55.5313 142.099Z" fill="#263238"/>
<path d="M55.6253 142.2C55.7575 141.992 55.8218 141.747 55.8096 141.501C55.8209 141.233 55.7852 140.966 55.7043 140.711C55.6577 140.558 55.5947 140.411 55.5163 140.271C55.4791 140.173 55.4168 140.087 55.3356 140.021C55.2544 139.955 55.1572 139.912 55.0538 139.895C54.9897 139.897 54.9275 139.918 54.8743 139.954C54.8211 139.99 54.7791 140.04 54.753 140.098C54.7188 140.184 54.6948 140.274 54.6816 140.365C54.6589 140.526 54.6589 140.689 54.6816 140.85C54.7224 141.123 54.831 141.382 54.9974 141.602C55.2794 141.978 55.5764 142.057 55.5802 142.031C55.584 142.005 55.3584 141.862 55.1403 141.505C55.008 141.299 54.9244 141.066 54.8959 140.824C54.8772 140.685 54.8772 140.545 54.8959 140.407C54.9184 140.252 54.9748 140.128 55.0312 140.143C55.0876 140.158 55.2268 140.256 55.2869 140.38C55.3591 140.499 55.4196 140.625 55.4674 140.756C55.5511 140.987 55.6005 141.229 55.614 141.474C55.6479 141.926 55.5877 142.189 55.6253 142.2Z" fill="#263238"/>
<g opacity="0.3">
<path opacity="0.3" d="M62.6753 142.313L62.6603 143.949H55.7569V143.05L62.6753 142.313Z" fill="black"/>
</g>
<path d="M84.1111 25.8582C83.9494 25.8582 83.532 27.49 83.3252 28.3097C83.2509 28.61 83.2939 28.9274 83.4456 29.1971L85.1037 32.1336C85.414 32.6762 85.863 33.1265 86.4047 33.4383L87.2356 33.9083L87.3447 35.653L92.0109 35.7282L90.5896 30.2799L89.9955 26.9599C89.9163 26.7971 89.7992 26.6557 89.6539 26.5477C89.5086 26.4397 89.3395 26.3683 89.1608 26.3395L88.7209 26.2755L88.5554 25.8544C88.5077 25.7349 88.4301 25.6296 88.33 25.5486C88.23 25.4676 88.1108 25.4137 87.9839 25.3919L87.7094 25.3581L87.3334 24.4143C87.2721 24.2647 87.1681 24.1364 87.0344 24.0454C86.9007 23.9545 86.7431 23.9049 86.5814 23.903L84.3254 23.9331C84.3254 23.9331 83.8291 24.6023 84.9684 24.9182C85.2837 25.0076 85.6108 25.0481 85.9384 25.0385L86.4648 27.0727C86.4648 27.0727 86.8408 29.2083 85.8369 29.2083C84.9571 29.2083 84.8744 28.0578 84.8744 28.0578C84.8744 28.0578 85.2616 25.7303 84.1111 25.8582Z" fill="#FFBE9D"/>
<path d="M88.7359 27.8961C88.7166 27.7527 88.6877 27.6108 88.6494 27.4712C88.5307 27.1401 88.3077 26.8564 88.014 26.6628C87.8577 26.3408 87.7403 26.0012 87.6643 25.6514C87.6219 25.5088 87.6054 25.3599 87.6154 25.2115C87.6154 25.2115 87.6455 25.3769 87.7169 25.6364C87.8099 25.9712 87.9293 26.2981 88.0741 26.614L88.3035 26.802C88.3732 26.8682 88.4362 26.9413 88.4915 27.02C88.5866 27.152 88.6578 27.2997 88.702 27.4562C88.7318 27.5601 88.747 27.6677 88.7472 27.7758C88.7506 27.8163 88.7468 27.857 88.7359 27.8961Z" fill="#EB996E"/>
<path d="M89.4541 27.5013C89.4439 27.4277 89.421 27.3565 89.3864 27.2907C89.3427 27.2121 89.2805 27.1453 89.2051 27.0962C89.1298 27.047 89.0436 27.017 88.954 27.0087H88.9276V26.9862L88.9013 26.9147C88.7896 26.6404 88.7003 26.3575 88.6344 26.0687C88.7732 26.3296 88.8878 26.6028 88.9765 26.8847L89.0029 26.9599L88.969 26.9335C89.0708 26.9431 89.1683 26.9794 89.2515 27.0389C89.3347 27.0983 89.4007 27.1787 89.4428 27.2719C89.4879 27.4073 89.4653 27.5088 89.4541 27.5013Z" fill="#EB996E"/>
<path d="M85.8896 25.046C85.8708 25.046 85.7843 24.9445 85.8069 24.7866C85.8294 24.6287 85.9046 24.5309 85.9234 24.5422C85.9422 24.5535 85.9009 24.6588 85.8858 24.7941C85.8708 24.9295 85.9084 25.0348 85.8896 25.046Z" fill="#EB996E"/>
<path d="M61.9872 46.1998L70.4472 46.0945L69.5035 38.8866C69.5035 38.8866 70.0825 38.7625 70.1201 35.6304C70.1577 32.4983 70.3044 27.1667 70.3044 27.1667C68.5219 26.4014 66.5675 26.1255 64.6429 26.3674C62.7182 26.6093 60.8929 27.3603 59.3552 28.5428L58.8928 28.9188L61.9872 46.1998Z" fill="#FFBE9D"/>
<path d="M59.8741 32.7578C59.8215 32.7352 57.7197 32.1186 57.7873 34.2618C57.855 36.405 59.9944 35.8936 59.9944 35.8335C59.9944 35.7733 59.8741 32.7578 59.8741 32.7578Z" fill="#FFBE9D"/>
<path d="M69.9359 32.3103C69.9885 32.2878 71.8986 31.7727 71.8159 33.9159C71.7332 36.0591 69.6088 35.5477 69.6088 35.4838C69.6088 35.4199 69.9359 32.3103 69.9359 32.3103Z" fill="#FFBE9D"/>
<path d="M72.346 26.1176C72.3674 25.9231 72.3394 25.7264 72.2644 25.5456C72.1895 25.3649 72.0701 25.206 71.9174 25.0836C71.7598 24.9676 71.5659 24.9118 71.3708 24.9263C71.1756 24.9408 70.9921 25.0246 70.8533 25.1626C70.8827 25.0316 70.8842 24.8959 70.8578 24.7643C70.8314 24.6327 70.7776 24.5081 70.7 24.3986C70.6223 24.289 70.5226 24.197 70.4072 24.1285C70.2917 24.06 70.1632 24.0165 70.0299 24.0008C69.5185 23.9707 69.0824 24.3542 68.5898 24.4896C68.0969 24.5954 67.5829 24.536 67.1272 24.3204C66.6609 24.1361 66.2285 23.8767 65.7585 23.7075C64.7661 23.3434 63.6699 23.3866 62.7092 23.8275C61.7484 24.2684 61.001 25.0714 60.6299 26.0612C60.281 25.9767 59.9147 25.9997 59.5792 26.1272C59.2437 26.2547 58.9545 26.4807 58.7499 26.7756C58.3514 27.3822 58.192 28.115 58.3024 28.8324C58.3768 29.3133 58.5029 29.7847 58.6784 30.2386C58.6784 30.28 58.6784 30.3176 58.6784 30.3589C58.7085 32.081 59.6072 37.5292 60.3441 37.5405C61.6263 37.5593 60.6186 31.7238 60.6186 31.7238C62.1903 31.1147 61.6037 28.7572 61.9985 28.4C62.3933 28.0428 63.213 27.2118 66.5105 28.8963C67.7362 29.4434 69.103 29.5907 70.4172 29.3174H70.4999H70.5187C70.5187 29.3174 70.5375 29.3174 70.5488 29.3174C70.8474 29.2367 71.1315 29.1098 71.391 28.9414C71.6992 28.7653 71.943 28.4952 72.0866 28.1706C72.1554 28.0072 72.1749 27.8273 72.1429 27.653C72.1108 27.4786 72.0285 27.3175 71.9061 27.1892C72.1539 26.8825 72.3068 26.51 72.346 26.1176Z" fill="#263238"/>
<path d="M59.1785 32.536C59.4981 34.3333 59.4342 35.277 59.7312 36.4764C60.2012 38.3564 61.145 39.8304 62.8521 40.7779C64.5591 41.7254 66.8753 41.7066 68.3454 40.4019C69.3644 39.507 70.0863 38.4956 70.2254 37.1457C70.3645 35.7959 70.53 33.4121 70.5413 32.0547C70.5413 29.6069 70.7217 27.2682 70.7217 27.2682L63.7281 26.0011L59.75 28.3661L59.1785 32.536Z" fill="#263238"/>
<path d="M66.3902 41.842C65.999 41.9886 65.575 42.025 65.1645 41.9473C64.7461 41.9332 64.3399 41.803 63.9913 41.5713C64.0139 41.5186 64.529 41.6803 65.187 41.7518C65.845 41.8232 66.3827 41.7818 66.3902 41.842Z" fill="#263238"/>
<path d="M68.2063 25.6853C68.1001 25.7237 67.9883 25.744 67.8754 25.7454C67.5645 25.7481 67.2576 25.6759 66.9805 25.5349C66.5787 25.3253 66.2005 25.0732 65.8525 24.7829C65.4292 24.4287 64.9191 24.1938 64.3748 24.1023C63.8287 24.0279 63.2728 24.1251 62.7844 24.3805C62.3874 24.5944 62.0531 24.908 61.8143 25.2905C61.5963 25.6447 61.4542 26.0403 61.3969 26.4523C61.3979 26.34 61.4092 26.2279 61.4308 26.1177C61.4924 25.8149 61.6056 25.5249 61.7654 25.2604C62.0051 24.8647 62.3449 24.5392 62.7505 24.3166C63.2515 24.0499 63.824 23.9485 64.3861 24.0271C64.9424 24.117 65.4629 24.359 65.8901 24.7265C66.241 25.0129 66.6188 25.2647 67.0181 25.4785C67.2863 25.6203 67.5834 25.6987 67.8867 25.7078C68.0897 25.7153 68.2063 25.674 68.2063 25.6853Z" fill="#455A64"/>
<path d="M61.4909 26.5651C61.3305 26.4868 61.1631 26.4238 60.9908 26.3771C60.5686 26.2824 60.1262 26.3524 59.7538 26.5726C59.3904 26.8061 59.1316 27.1713 59.0319 27.5916C58.9968 27.7675 58.978 27.9462 58.9755 28.1255C58.9604 28.0794 58.9528 28.0312 58.9529 27.9826C58.9412 27.848 58.9501 27.7123 58.9792 27.5803C59.0199 27.3599 59.1062 27.1504 59.2325 26.9652C59.3589 26.7801 59.5225 26.6233 59.713 26.5051C59.9034 26.3869 60.1165 26.3097 60.3385 26.2786C60.5605 26.2475 60.7865 26.2631 61.0021 26.3245C61.1338 26.3586 61.2603 26.4105 61.3781 26.4786C61.4204 26.5008 61.4585 26.53 61.4909 26.5651Z" fill="#455A64"/>
<path d="M61.2879 34.2092C60.8405 33.514 60.5055 32.7527 60.2952 31.9532C60.7426 32.6484 61.0776 33.4097 61.2879 34.2092Z" fill="#455A64"/>
<path d="M63.119 35.4387C62.703 35.2089 62.3593 34.8678 62.1264 34.4536C61.8406 34.0735 61.665 33.6221 61.6188 33.1489C61.6752 33.1489 61.8782 33.7166 62.2918 34.3445C62.7054 34.9724 63.1679 35.3973 63.119 35.4387Z" fill="#455A64"/>
<path d="M64.9238 35.8372C64.6058 35.7403 64.3183 35.5629 64.0891 35.3221C63.6755 34.9461 63.4236 34.5964 63.4649 34.5701C63.5063 34.5438 63.8184 34.8333 64.2169 35.1792C64.6155 35.5251 64.9539 35.7883 64.9238 35.8372Z" fill="#455A64"/>
<path d="M68.1161 32.9307C68.1643 33.2975 68.0987 33.6703 67.9281 33.9986C67.8155 34.3512 67.5993 34.6617 67.3076 34.8897C67.4348 34.5591 67.5817 34.2364 67.7476 33.9234C67.8525 33.5861 67.9755 33.2548 68.1161 32.9307Z" fill="#455A64"/>
<path d="M69.1839 31.2387C69.2673 31.6791 69.2243 32.1341 69.0598 32.551C68.9642 32.9864 68.7464 33.3856 68.4319 33.7015C68.3868 33.6677 68.6876 33.1714 68.8981 32.4946C69.1087 31.8178 69.1425 31.2387 69.1839 31.2387Z" fill="#455A64"/>
<path d="M70.0299 26.896C69.9484 26.9809 69.8546 27.0532 69.7516 27.1103C69.47 27.2737 69.1551 27.3714 68.8304 27.3961C68.3488 27.4294 67.8658 27.3549 67.4167 27.178C66.8758 26.9583 66.3528 26.6969 65.8525 26.3959C65.3538 26.1006 64.8193 25.8707 64.262 25.7116C63.8055 25.5861 63.3236 25.5861 62.8671 25.7116C62.561 25.7978 62.2808 25.9579 62.0512 26.1778C61.8932 26.3395 61.8331 26.4523 61.8256 26.4448C61.8779 26.3395 61.9464 26.2431 62.0286 26.159C62.2542 25.9227 62.5383 25.7502 62.852 25.659C63.3156 25.5193 63.8087 25.5102 64.2771 25.6326C64.8434 25.7881 65.386 26.0196 65.8901 26.3207C66.3878 26.6193 66.9068 26.8807 67.443 27.1028C67.8815 27.281 68.3542 27.3593 68.8267 27.3321C69.2626 27.3118 69.6821 27.1597 70.0299 26.896Z" fill="#455A64"/>
<path d="M70.6503 27.9224C70.6163 27.9525 70.5783 27.9778 70.5375 27.9976C70.4294 28.0595 70.3176 28.1147 70.2028 28.163C69.4417 28.4845 68.5992 28.5607 67.7927 28.3811C67.6655 28.3563 67.5399 28.3237 67.4167 28.2834C67.334 28.2533 67.2888 28.2345 67.2926 28.227C67.2964 28.2194 67.4806 28.2721 67.7852 28.3285C68.1834 28.399 68.5892 28.4167 68.9921 28.3811C69.3932 28.3419 69.7875 28.2509 70.1652 28.1104C70.4736 28.0014 70.6465 27.9111 70.6503 27.9224Z" fill="#455A64"/>
<path d="M66.7549 92.7035L68.8117 112.541L70.2893 142.418H78.1741L78.3884 78.8329L55.8133 80.4421L51.1359 113.805L55.1892 143.005H63.8409L61.8143 115.237L66.7549 92.7035Z" fill="#263238"/>
<path d="M66.7549 92.696C66.2912 93.2437 65.7776 93.7472 65.2209 94.2C64.708 94.7054 64.1505 95.1635 63.5552 95.5686C64.0208 95.0226 64.5342 94.5193 65.0893 94.0646C65.6014 93.5583 66.159 93.1002 66.7549 92.696Z" fill="#455A64"/>
<path d="M66.7324 92.32C66.6987 91.4714 66.7125 90.6215 66.7737 89.7745C66.774 88.9251 66.8229 88.0765 66.9204 87.2327C67.0211 88.0788 67.0374 88.9327 66.9692 89.782C66.9716 90.6336 66.8923 91.4835 66.7324 92.32Z" fill="#455A64"/>
<path d="M69.338 84.9015C69.3805 84.8968 69.4234 84.8968 69.4659 84.9015L69.8419 84.8789L71.3459 84.8075L76.6926 84.5819H76.7828V84.6759C76.7828 86.3416 76.7828 88.2291 76.7828 90.2256V90.3986L76.7189 90.4212L73.2447 91.8161H73.2108H73.177L70.1051 90.7483H70.0562V90.6994C69.8306 88.966 69.6464 87.5222 69.511 86.4882C69.4508 86.0069 69.4057 85.6196 69.3681 85.3301C69.3305 85.0406 69.3268 84.9315 69.3305 84.9353C69.3419 84.9722 69.3507 85.0099 69.3568 85.0481C69.3568 85.1346 69.3869 85.2361 69.4095 85.3602C69.4546 85.6535 69.5185 86.0445 69.5937 86.5333C69.7479 87.5523 69.9697 88.9698 70.2179 90.6693L70.1652 90.6016L73.2447 91.6469H73.1808L76.655 90.2444L76.5948 90.3347V90.2294C76.5948 88.2328 76.5948 86.3453 76.5948 84.6796L76.6851 84.7661L71.3985 84.8977L69.8945 84.924H69.338V84.9015Z" fill="#455A64"/>
<path d="M57.9565 84.9992C57.9952 84.9942 58.0344 84.9942 58.0731 84.9992H58.4228L59.7764 84.9541L64.6644 84.8413H64.7546V84.9316C64.702 86.5785 64.6418 88.4773 64.5779 90.4964V90.549L64.5365 90.5753L63.9725 90.9513L61.1149 92.8313L61.066 92.8652L61.0134 92.8313L57.7723 90.816L57.7309 90.7897V90.7445C57.7911 89.0149 57.8437 87.5749 57.8776 86.5409C57.9001 86.0596 57.9189 85.6723 57.9302 85.3865C57.9316 85.2545 57.9404 85.1227 57.9565 84.9917C57.9622 85.0291 57.9622 85.0671 57.9565 85.1045V85.4166C57.9565 85.7099 57.9565 86.1009 57.9565 86.5935C57.9565 87.6124 57.9189 89.0375 57.8964 90.7295L57.855 90.658L61.0886 92.5945H60.9871L63.8447 90.7145L64.4087 90.3385L64.3636 90.4174C64.4388 88.3945 64.5064 86.4957 64.5666 84.8489L64.6531 84.9391L59.829 84.9654H58.0919L57.9565 84.9992Z" fill="#455A64"/>
<path d="M75.9519 93.9856C75.5957 94.0089 75.2381 93.9976 74.8841 93.9518C74.2261 93.9029 73.3199 93.8127 72.3197 93.6848C71.3196 93.557 70.4209 93.4103 69.7742 93.29C69.4198 93.2451 69.0709 93.1645 68.7327 93.0494C69.0884 93.0535 69.443 93.0875 69.793 93.1509L72.3461 93.4893L74.8991 93.8127C75.2542 93.841 75.6064 93.8988 75.9519 93.9856Z" fill="#455A64"/>
<path d="M75.7676 116.098C75.7676 116.098 75.7376 116.215 75.5834 116.35C75.3541 116.533 75.0682 116.63 74.775 116.625C74.3432 116.611 73.9287 116.452 73.5981 116.173C73.2077 115.846 72.849 115.482 72.5265 115.087C71.924 114.387 71.3889 113.631 70.9285 112.831C70.7231 112.51 70.5553 112.167 70.4284 111.808C70.6518 112.113 70.8577 112.431 71.0451 112.759C71.537 113.526 72.081 114.259 72.6732 114.951C72.9893 115.336 73.3364 115.695 73.7109 116.023C74.0078 116.287 74.3828 116.447 74.7788 116.478C75.0438 116.494 75.3071 116.426 75.5308 116.282C75.6924 116.181 75.7564 116.091 75.7676 116.098Z" fill="#455A64"/>
<path d="M60.1975 116.798C60.1975 116.798 60.1975 116.899 60.0922 117.05C59.9529 117.262 59.7663 117.44 59.547 117.568C59.2184 117.759 58.844 117.857 58.4641 117.85C58.0008 117.834 57.5508 117.691 57.1632 117.437C56.4808 116.963 55.939 116.313 55.5952 115.557C55.4322 115.264 55.3059 114.952 55.2192 114.628C55.4112 114.903 55.5821 115.192 55.7306 115.493C56.099 116.197 56.6301 116.803 57.2797 117.26C57.6398 117.497 58.0563 117.635 58.4867 117.659C58.836 117.671 59.1827 117.595 59.4944 117.437C59.7707 117.275 60.0101 117.057 60.1975 116.798Z" fill="#455A64"/>
<path d="M60.7013 113.805C60.5121 113.971 60.2924 114.098 60.0546 114.181C59.4924 114.409 58.8941 114.537 58.2874 114.557C57.6785 114.584 57.0696 114.501 56.4901 114.312C56.2461 114.251 56.017 114.141 55.8171 113.989C56.6121 114.242 57.4418 114.369 58.2761 114.365C59.1083 114.302 59.9261 114.113 60.7013 113.805Z" fill="#455A64"/>
<path d="M86.3596 43.7859H74.8652C74.8652 43.7859 73.3011 42.8872 72.5491 43.0339C71.9951 43.2101 71.504 43.5432 71.1353 43.9927L72.6581 56.6563L76.3805 53.904L90.2399 52.464C90.8338 52.4576 91.4203 52.3314 91.9643 52.093C92.5083 51.8546 92.9986 51.5089 93.4058 51.0765C93.8479 50.6068 94.1818 50.046 94.3838 49.4334C94.5858 48.8208 94.6511 48.1714 94.5752 47.5308L92.0108 33.9083L86.7468 34.0851L86.5363 37.5405L86.3596 43.7859Z" fill="#455A64"/>
<path d="M54.7154 46.9781C53.4806 47.7424 52.5115 48.869 51.9405 50.2042C51.2712 51.8135 46.6765 59.8523 44.2776 64.056C43.851 64.8005 43.6764 65.663 43.7801 66.5147C43.8838 67.3665 44.2601 68.1619 44.8529 68.7823C46.3193 70.3126 48.7784 70.7338 50.9178 70.0382C51.8766 69.7261 55.7156 66.6091 55.7156 66.6091L54.7154 46.9781Z" fill="#455A64"/>
<path d="M56.7157 75.7007L54.08 53.0242L54.7154 46.9781L61.427 44.1205L70.1164 43.549L78.3921 44.4627L76.4557 67.722L78.5726 80.8407L55.396 81.886L56.7157 75.7007Z" fill="#455A64"/>
<path d="M56.7044 75.603C56.6518 75.603 56.0201 70.5608 55.2944 64.323C54.5687 58.0851 54.0273 53.043 54.08 53.0204C54.1326 52.9979 54.7643 58.0663 55.4899 64.3004C56.2156 70.5345 56.7759 75.5955 56.7044 75.603Z" fill="#263238"/>
<path d="M78.2079 49.55C78.2187 49.6185 78.2187 49.6883 78.2079 49.7568C78.2079 49.9109 78.1778 50.1027 78.1552 50.3396C78.0988 50.8697 78.0274 51.5954 77.9372 52.4752C77.7529 54.3064 77.5048 56.788 77.2303 59.5328C76.9558 62.2776 76.7528 64.7968 76.6174 66.594C76.5535 67.4776 76.5008 68.2033 76.4632 68.7372C76.4632 68.9741 76.4294 69.1659 76.4181 69.32C76.4162 69.3887 76.4061 69.4568 76.388 69.5231C76.3784 69.4557 76.3784 69.3874 76.388 69.32C76.388 69.1621 76.388 68.9704 76.388 68.7335C76.388 68.2259 76.4332 67.4927 76.4783 66.5865C76.5798 64.7742 76.7716 62.27 77.0348 59.514C77.298 56.7579 77.58 54.25 77.7868 52.4602C77.8996 51.5616 77.9936 50.8321 78.0688 50.3283C78.1026 50.0952 78.1327 49.9034 78.1552 49.7492C78.1636 49.6807 78.1813 49.6137 78.2079 49.55Z" fill="#263238"/>
<path d="M74.2336 72.1288C74.12 72.2875 73.9943 72.4371 73.8576 72.5762C73.7114 72.7501 73.5544 72.9147 73.3876 73.0688C73.192 73.2493 72.9815 73.4674 72.7183 73.6704C72.4408 73.908 72.1496 74.129 71.846 74.3322C71.5031 74.5736 71.148 74.797 70.7819 75.0014C69.0953 75.9391 67.2244 76.4973 65.2998 76.637C64.8561 76.637 64.4388 76.6859 64.044 76.6633C63.6794 76.6592 63.3153 76.6341 62.9536 76.5882C62.6544 76.5568 62.357 76.5103 62.0624 76.449C61.8375 76.4123 61.6152 76.3608 61.3969 76.2949C61.2081 76.253 61.0232 76.1951 60.8442 76.1219C60.8442 76.0768 61.6488 76.325 62.9648 76.449C63.3247 76.4849 63.6861 76.5025 64.0477 76.5017C64.4237 76.5017 64.8486 76.4791 65.2848 76.4566C67.1778 76.2975 69.0174 75.7483 70.6879 74.8435C71.0639 74.6217 71.4399 74.4262 71.7482 74.2006C72.0565 73.975 72.3611 73.7682 72.6243 73.5651C73.6733 72.7379 74.1997 72.0987 74.2336 72.1288Z" fill="#263238"/>
<g opacity="0.3">
<path opacity="0.3" d="M61.9797 76.3625C60.8517 76.0392 60.7878 74.9751 61.2277 74.5201C61.6676 74.0652 62.3557 74.005 62.9987 74.0953C63.6145 74.2465 64.2448 74.331 64.8787 74.3472C65.9089 74.2795 66.7587 73.5613 67.4881 72.8169C68.2176 72.0724 68.8831 71.2377 69.8231 70.809C70.7631 70.3804 72.0791 70.5345 72.5679 71.4407C72.7092 71.7381 72.773 72.0665 72.7533 72.3952C72.7336 72.7239 72.631 73.0423 72.4551 73.3207C72.1004 73.8772 71.6233 74.3453 71.0601 74.6893C69.7483 75.5843 68.2639 76.1955 66.7022 76.4836C65.1405 76.7717 63.5358 76.7305 61.991 76.3625" fill="black"/>
</g>
<g opacity="0.2">
<path opacity="0.2" d="M55.0312 61.3488C54.8282 61.6346 52.8692 64.3117 52.8692 64.3117C52.8166 64.5824 50.9178 67.0302 50.9178 67.0302C50.9178 67.0302 52.606 66.0939 53.9032 65.4247C54.4514 65.0997 54.971 64.7287 55.4561 64.3155C55.4561 64.3155 55.1628 62.4731 55.035 61.785C54.7455 60.2434 54.5499 56.7654 54.5499 56.7654" fill="black"/>
</g>
<path d="M75.6849 44.2484C76.304 44.4728 76.8324 44.8941 77.1889 45.4478C77.6016 45.9622 77.8353 46.5971 77.8544 47.2563C77.5017 46.0315 76.7332 44.9679 75.6812 44.2484H75.6849Z" fill="#263238"/>
<path d="M55.0312 61.3489C54.872 61.6722 54.6818 61.9795 54.4635 62.2663C54.0875 62.8153 53.5686 63.5672 52.9783 64.3907C51.7939 66.03 50.7825 67.3423 50.7223 67.2671L51.3276 66.391L52.8316 64.2779C53.422 63.4544 53.9597 62.7137 54.362 62.1873C54.5594 61.8883 54.7834 61.6077 55.0312 61.3489Z" fill="#263238"/>
</g>
<defs>
<clipPath id="clip0_1_580">
<rect width="188" height="160" fill="white"/>
</clipPath>
</defs>
</svg>
