<svg width="181" height="181" viewBox="0 0 181 181" fill="none" xmlns="http://www.w3.org/2000/svg">
<path d="M51.042 141.064C51.042 141.064 46.5894 144.452 50.8574 148.934C50.8934 148.972 50.9367 149.002 50.9846 149.022C51.0325 149.043 51.084 149.053 51.1361 149.054L90.0294 148.825C90.0294 148.825 93.3489 145.1 90.5941 140.811L51.042 141.064Z" fill="#EBEBEB"/>
<path d="M81.45 144.601C81.45 144.644 76.6064 144.681 70.6334 144.681C64.6604 144.681 59.8169 144.644 59.8169 144.601C59.8169 144.557 64.6568 144.525 70.6334 144.525C76.6101 144.525 81.45 144.557 81.45 144.601Z" fill="#E0E0E0"/>
<path d="M75.3974 146.009C75.3974 146.053 73.124 146.089 70.3294 146.089C67.5347 146.089 65.2433 146.053 65.2433 146.009C65.2433 145.966 67.5203 145.929 70.3294 145.929C73.1385 145.929 75.3974 145.966 75.3974 146.009Z" fill="#E0E0E0"/>
<path d="M85.432 148.702C85.4067 148.702 85.5189 148.257 85.6384 147.537C85.9559 145.658 85.9375 143.737 85.5841 141.864C85.4501 141.14 85.3307 140.709 85.356 140.702C85.4067 140.797 85.4445 140.898 85.4682 141.003C85.5334 141.198 85.613 141.484 85.6927 141.842C85.8999 142.779 86.0091 143.735 86.0185 144.695C86.0291 145.655 85.938 146.614 85.747 147.555C85.6925 147.84 85.6237 148.123 85.5406 148.402C85.5168 148.506 85.4803 148.607 85.432 148.702Z" fill="#E0E0E0"/>
<path d="M88.328 140.76C88.3959 140.848 88.4542 140.942 88.5018 141.042C88.5652 141.16 88.622 141.281 88.6719 141.404C88.7335 141.542 88.8095 141.698 88.871 141.879C89.0266 142.298 89.1477 142.729 89.233 143.167C89.3403 143.705 89.4009 144.252 89.414 144.8C89.4159 145.35 89.3687 145.899 89.2728 146.44C89.1873 146.881 89.0663 147.314 88.9108 147.736C88.8529 147.92 88.7805 148.076 88.7226 148.217C88.6742 148.342 88.6174 148.463 88.5525 148.579C88.5091 148.681 88.4532 148.777 88.386 148.865C88.357 148.865 88.5742 148.431 88.8059 147.714C88.942 147.293 89.0461 146.862 89.1172 146.425C89.2037 145.893 89.2472 145.354 89.2475 144.814C89.2394 144.274 89.1873 143.735 89.0918 143.204C89.0123 142.769 88.901 142.341 88.7588 141.922C88.5235 141.18 88.2991 140.775 88.328 140.76Z" fill="#E0E0E0"/>
<path d="M57.196 148.753C57.1256 148.675 57.0649 148.589 57.015 148.496C56.9482 148.391 56.8878 148.282 56.834 148.17C56.7555 148.025 56.6866 147.875 56.6277 147.721C56.4659 147.326 56.3446 146.914 56.2657 146.494C56.1626 145.979 56.1117 145.455 56.1136 144.93C56.1257 144.404 56.19 143.88 56.3055 143.366C56.4071 142.95 56.5452 142.543 56.7182 142.15C56.7837 141.999 56.8575 141.852 56.939 141.708C56.9951 141.598 57.0592 141.491 57.1309 141.39C57.1826 141.297 57.2458 141.21 57.3191 141.133C57.3444 141.151 57.0947 141.527 56.8232 142.194C56.6693 142.585 56.5482 142.988 56.4612 143.399C56.3575 143.903 56.2994 144.416 56.2874 144.93C56.2834 145.446 56.3282 145.961 56.4213 146.469C56.5012 146.882 56.615 147.287 56.7616 147.681C56.9788 148.355 57.2214 148.739 57.196 148.753Z" fill="#E0E0E0"/>
<path d="M52.9932 149.701C52.9156 149.612 52.8488 149.513 52.7941 149.408C52.7187 149.292 52.651 149.171 52.5914 149.046C52.5033 148.883 52.4247 148.715 52.3561 148.543C52.1674 148.1 52.0184 147.641 51.9108 147.171C51.7831 146.595 51.7092 146.009 51.69 145.419C51.6846 144.828 51.7318 144.238 51.8312 143.656C51.919 143.181 52.0474 142.715 52.2149 142.262C52.2801 142.067 52.3633 141.9 52.4285 141.752C52.4835 141.627 52.5463 141.506 52.6167 141.39C52.6672 141.282 52.7291 141.18 52.8013 141.086C52.8303 141.086 52.5805 141.542 52.3199 142.309C52.1716 142.76 52.0567 143.221 51.976 143.689C51.7814 144.838 51.8072 146.013 52.052 147.153C52.152 147.616 52.2875 148.071 52.4574 148.514C52.7543 149.256 53.0222 149.687 52.9932 149.701Z" fill="#E0E0E0"/>
<path d="M88.6176 160.67V168.113H74.21V160.67H88.6176Z" fill="#EBEBEB"/>
<path d="M42.1079 164.46C42.1079 164.529 42.1079 164.594 42.1079 164.659C42.1789 165.744 42.662 166.761 43.4581 167.501C44.2543 168.241 45.3032 168.649 46.3903 168.641H89.2873V168.113H79.1079C78.1209 168.113 77.1744 167.721 76.4765 167.023C75.7786 166.325 75.3865 165.378 75.3865 164.391C75.3865 163.404 75.7786 162.458 76.4765 161.76C77.1744 161.062 78.1209 160.67 79.1079 160.67H89.2873V159.881L46.3867 160.026C45.8119 160.027 45.2432 160.143 44.7143 160.369C44.1855 160.594 43.7073 160.923 43.3081 161.337C42.909 161.75 42.5971 162.24 42.3909 162.777C42.1847 163.313 42.0884 163.886 42.1079 164.46Z" fill="#E0E0E0"/>
<path d="M88.6176 164.493C88.6176 164.536 85.6565 164.572 82.0039 164.572C78.3513 164.572 75.3901 164.536 75.3901 164.493C75.3901 164.449 78.3513 164.413 82.0039 164.413C85.6565 164.413 88.6176 164.449 88.6176 164.493Z" fill="#E0E0E0"/>
<path d="M88.4077 166.158C88.4077 166.201 85.6058 166.238 82.1523 166.238C78.6988 166.238 75.8933 166.201 75.8933 166.158C75.8933 166.115 78.6952 166.078 82.1523 166.078C85.6094 166.078 88.4077 166.125 88.4077 166.158Z" fill="#E0E0E0"/>
<path d="M88.6177 167.704C88.6177 167.747 86.0837 167.78 82.9922 167.78C79.9007 167.78 77.3667 167.747 77.3667 167.704C77.3667 167.66 79.8826 167.624 82.9922 167.624C86.1018 167.624 88.6177 167.66 88.6177 167.704Z" fill="#E0E0E0"/>
<path d="M88.6176 162.987C88.6176 163.03 85.7216 163.063 82.1414 163.063C78.5612 163.063 75.6616 163.03 75.6616 162.987C75.6616 162.943 78.5576 162.907 82.1414 162.907C85.7252 162.907 88.6176 162.943 88.6176 162.987Z" fill="#E0E0E0"/>
<path d="M88.4076 161.477C88.4076 161.521 85.8266 161.557 82.6446 161.557C79.4626 161.557 76.8779 161.521 76.8779 161.477C76.8779 161.434 79.459 161.401 82.6446 161.401C85.8302 161.401 88.4076 161.452 88.4076 161.477Z" fill="#E0E0E0"/>
<path d="M47.3026 160.149C46.9732 160.489 46.6683 160.852 46.3903 161.235C45.7409 162.175 45.3994 163.294 45.413 164.436C45.4266 165.579 45.7947 166.689 46.4663 167.613C46.7577 167.996 47.0772 168.357 47.422 168.692C47.309 168.63 47.2044 168.553 47.1107 168.464C46.8437 168.234 46.6011 167.976 46.3867 167.697C45.6707 166.765 45.2763 165.626 45.2626 164.451C45.2489 163.276 45.6166 162.129 46.3107 161.181C46.5159 160.896 46.75 160.634 47.0093 160.399C47.0976 160.305 47.1959 160.221 47.3026 160.149Z" fill="#F5F5F5"/>
<path d="M45.851 160.004C45.5216 160.343 45.2179 160.706 44.9423 161.09C44.2903 162.029 43.9473 163.148 43.9609 164.291C43.9745 165.435 44.3442 166.545 45.0184 167.468C45.3042 167.844 45.6163 168.198 45.9523 168.529C45.8409 168.466 45.7375 168.389 45.6446 168.301C45.3749 168.074 45.132 167.816 44.9206 167.534C44.2047 166.602 43.8102 165.463 43.7965 164.288C43.7828 163.113 44.1506 161.966 44.8446 161.018C45.0478 160.733 45.2808 160.471 45.5396 160.236C45.6332 160.146 45.7378 160.068 45.851 160.004Z" fill="#F5F5F5"/>
<path d="M74.9956 160.149C74.6649 160.488 74.36 160.851 74.0833 161.235C73.4339 162.175 73.0924 163.294 73.106 164.436C73.1196 165.579 73.4877 166.689 74.1594 167.613C74.4457 167.989 74.759 168.344 75.0969 168.674C74.9832 168.612 74.8785 168.536 74.7856 168.446C74.5186 168.215 74.276 167.958 74.0616 167.678C73.3457 166.747 72.9512 165.608 72.9375 164.433C72.9238 163.258 73.2916 162.111 73.9856 161.162C74.1888 160.877 74.4231 160.614 74.6843 160.381C74.7783 160.291 74.8828 160.213 74.9956 160.149Z" fill="#F5F5F5"/>
<path d="M73.5439 160.004C73.2132 160.342 72.9094 160.705 72.6353 161.09C71.9843 162.029 71.6416 163.148 71.6545 164.291C71.6675 165.434 72.0356 166.544 72.7077 167.468C72.994 167.844 73.3074 168.199 73.6453 168.529C73.5338 168.466 73.4305 168.389 73.3376 168.301C73.0679 168.074 72.825 167.816 72.6136 167.534C71.8971 166.602 71.502 165.464 71.4876 164.289C71.4733 163.114 71.8404 161.966 72.5339 161.018C72.7391 160.733 72.9733 160.471 73.2326 160.236C73.3253 160.145 73.43 160.067 73.5439 160.004Z" fill="#F5F5F5"/>
<path d="M52.1823 165.506L52.1425 162.48C52.1551 162.216 52.1195 161.953 52.0375 161.702C51.9953 161.576 51.9193 161.464 51.8178 161.379C51.7162 161.293 51.5932 161.237 51.462 161.217C51.1 161.05 50.4918 161.365 50.2275 161.803C49.9977 162.261 49.8952 162.772 49.9307 163.284C49.924 164.083 49.9627 164.882 50.0465 165.677C50.0654 166.054 50.1615 166.424 50.3289 166.763C50.4152 166.932 50.5476 167.074 50.7108 167.172C50.8741 167.27 51.0616 167.32 51.252 167.316C51.4378 167.285 51.6114 167.204 51.7538 167.081C51.8963 166.957 52.0019 166.797 52.0593 166.618C52.17 166.258 52.2117 165.881 52.1823 165.506Z" fill="#F5F5F5"/>
<path d="M68.8416 164.638C68.8416 164.681 65.7392 164.717 61.9165 164.717C58.0938 164.717 54.9915 164.681 54.9915 164.638C54.9915 164.594 58.0902 164.558 61.9165 164.558C65.7428 164.558 68.8416 164.594 68.8416 164.638Z" fill="#F5F5F5"/>
<path d="M49.3116 159.852L49.232 152.8H53.0728L53.2031 159.852H49.3116Z" fill="#F5F5F5"/>
<path d="M52.852 154.053C52.2606 154.132 51.6634 154.158 51.0674 154.132C50.4713 154.158 49.8741 154.132 49.2827 154.053C49.8743 153.976 50.4714 153.951 51.0674 153.977C51.6633 153.951 52.2604 153.976 52.852 154.053Z" fill="#E0E0E0"/>
<path d="M52.852 155.142C52.2606 155.221 51.6634 155.248 51.0674 155.222C50.4713 155.248 49.8741 155.221 49.2827 155.142C49.8741 155.063 50.4713 155.037 51.0674 155.063C51.6634 155.037 52.2606 155.063 52.852 155.142Z" fill="#E0E0E0"/>
<path d="M52.852 156.232C52.2604 156.309 51.6633 156.334 51.0674 156.308C50.4714 156.334 49.8743 156.309 49.2827 156.232C49.8741 156.153 50.4713 156.126 51.0674 156.152C51.6634 156.126 52.2606 156.153 52.852 156.232Z" fill="#E0E0E0"/>
<path d="M52.852 157.322C52.2604 157.398 51.6633 157.424 51.0674 157.398C50.4714 157.424 49.8743 157.398 49.2827 157.322C49.8741 157.243 50.4713 157.216 51.0674 157.242C51.6634 157.216 52.2606 157.243 52.852 157.322Z" fill="#E0E0E0"/>
<path d="M52.852 158.408C52.2606 158.487 51.6634 158.513 51.0674 158.487C50.4713 158.513 49.8741 158.487 49.2827 158.408C49.8743 158.331 50.4714 158.306 51.0674 158.332C51.6633 158.306 52.2604 158.331 52.852 158.408Z" fill="#E0E0E0"/>
<path d="M49.0293 152.612H91.586C92.1109 154.947 92.0349 157.517 91.586 160.236H49.2103V159.718H51.7986C52.1231 159.718 52.4343 159.589 52.6638 159.36C52.8932 159.13 53.0222 158.819 53.0222 158.494V154.277C53.0222 153.953 52.8932 153.641 52.6638 153.412C52.4343 153.182 52.1231 153.054 51.7986 153.054H49.0293V152.612Z" fill="#EBEBEB"/>
<path d="M59.0892 156.427H59.8132C59.8402 156.427 59.8667 156.434 59.8893 156.449C59.9136 156.462 59.9337 156.481 59.9472 156.505C59.9606 156.529 59.9669 156.556 59.9653 156.583C59.9672 156.597 59.9672 156.612 59.9653 156.626C59.9653 156.688 59.9363 156.746 59.9182 156.807C59.8324 157.106 59.6802 157.38 59.473 157.611C59.3998 157.703 59.3082 157.778 59.2041 157.833C59.1 157.887 58.9856 157.919 58.8684 157.926H58.7816C58.6786 157.906 58.5815 157.863 58.4975 157.801C58.4135 157.738 58.3448 157.657 58.2965 157.564C58.148 157.305 58.0753 157.009 58.0865 156.71C58.0877 156.503 58.1157 156.297 58.1698 156.098C58.246 155.795 58.3909 155.514 58.5933 155.276C58.668 155.176 58.7639 155.094 58.874 155.035C58.9841 154.976 59.1058 154.942 59.2304 154.936C59.3244 154.936 59.4171 154.957 59.5019 154.997C59.7011 155.11 59.849 155.296 59.9146 155.515C59.9199 155.539 59.9199 155.564 59.9146 155.588C59.9142 155.614 59.9067 155.641 59.8929 155.664C59.8803 155.687 59.8614 155.706 59.8384 155.72C59.8154 155.733 59.7892 155.74 59.7626 155.74H59.7155C59.6925 155.732 59.6716 155.72 59.6546 155.703C59.6375 155.686 59.6249 155.665 59.6178 155.642C59.5974 155.582 59.5694 155.525 59.5345 155.472C59.4996 155.412 59.4501 155.362 59.3905 155.326C59.331 155.291 59.2635 155.271 59.1942 155.269C59.1084 155.272 59.0258 155.302 58.9589 155.356C58.7808 155.502 58.6468 155.695 58.5716 155.913C58.4628 156.166 58.405 156.438 58.4015 156.713C58.3948 156.93 58.4369 157.145 58.5245 157.343C58.5511 157.42 58.5996 157.487 58.6639 157.537C58.7282 157.586 58.8056 157.616 58.8865 157.622C59.0226 157.601 59.1449 157.526 59.2268 157.416C59.3913 157.222 59.5145 156.996 59.5888 156.753H59.0784C58.9698 156.735 58.9119 156.677 58.9119 156.579C58.9082 156.563 58.9082 156.545 58.9119 156.529C58.9242 156.493 58.949 156.464 58.9816 156.445C59.0142 156.426 59.0524 156.42 59.0892 156.427Z" fill="#FAFAFA"/>
<path d="M61.5074 155.041L61.5255 155.095C61.5545 155.197 61.721 156.075 62.0251 157.731C62.0285 157.744 62.0285 157.757 62.0251 157.77C62.0247 157.797 62.0172 157.824 62.0034 157.847C61.9922 157.871 61.9743 157.891 61.9518 157.905C61.9293 157.919 61.9032 157.927 61.8767 157.926H61.855C61.8264 157.924 61.7995 157.912 61.778 157.893C61.7565 157.874 61.7416 157.849 61.7355 157.821L61.5654 156.945H60.6929L60.2803 157.832V157.861C60.2661 157.883 60.2469 157.901 60.2242 157.915C60.2016 157.928 60.1761 157.936 60.1499 157.937C60.1201 157.938 60.0908 157.929 60.0667 157.912C60.045 157.898 60.0269 157.88 60.0143 157.858C60.0016 157.835 59.9948 157.81 59.9943 157.785C59.9906 157.77 59.9906 157.753 59.9943 157.738C60.0196 157.676 60.0631 157.579 60.1246 157.448C60.7352 156.111 61.0972 155.323 61.2106 155.084C61.221 155.056 61.2391 155.031 61.2629 155.012C61.2867 154.994 61.3153 154.982 61.3453 154.979C61.3754 154.975 61.4058 154.98 61.4332 154.993C61.4605 155.006 61.4837 155.026 61.5002 155.052L61.5074 155.041ZM61.3156 155.631L60.8414 156.627H61.5111L61.3156 155.631Z" fill="#FAFAFA"/>
<path d="M63.8785 157.926H62.5971C62.5673 157.927 62.5382 157.918 62.5138 157.901C62.4918 157.88 62.4741 157.856 62.4617 157.828C62.4493 157.801 62.4424 157.772 62.4414 157.742C62.4414 157.691 62.5621 156.816 62.8034 155.117C62.8014 155.098 62.8014 155.078 62.8034 155.059C62.8138 155.031 62.8327 155.007 62.8573 154.99C62.8819 154.973 62.9111 154.965 62.941 154.965C62.9662 154.965 62.9909 154.972 63.0134 154.983C63.0389 154.995 63.0602 155.015 63.0744 155.04C63.0886 155.064 63.0951 155.092 63.093 155.121C63.093 155.236 63.064 155.478 63.0061 155.845C62.8577 156.967 62.7817 157.561 62.7744 157.622H63.8604C63.8867 157.617 63.9138 157.617 63.9401 157.622C63.9699 157.632 63.9956 157.652 64.0132 157.678C64.0309 157.704 64.0395 157.735 64.0378 157.767C64.0395 157.782 64.0395 157.798 64.0378 157.814C64.024 157.845 64.0019 157.872 63.9738 157.892C63.9458 157.912 63.9128 157.924 63.8785 157.926Z" fill="#FAFAFA"/>
<path d="M65.6342 155.041L65.6523 155.095C65.6813 155.197 65.8514 156.076 66.1519 157.731C66.1553 157.744 66.1553 157.757 66.1519 157.77C66.1585 157.795 66.1585 157.822 66.1519 157.847C66.1404 157.87 66.1224 157.89 66.1 157.905C66.0776 157.919 66.0517 157.926 66.0252 157.926H65.9999C65.9734 157.924 65.9482 157.913 65.9276 157.897C65.907 157.88 65.8918 157.857 65.884 157.832L65.7175 156.956H64.8415L64.4071 157.832C64.409 157.842 64.409 157.851 64.4071 157.861C64.3929 157.883 64.3737 157.901 64.351 157.915C64.3284 157.928 64.3029 157.936 64.2767 157.937C64.247 157.938 64.2179 157.929 64.1935 157.912C64.1722 157.898 64.1547 157.879 64.1427 157.857C64.1306 157.835 64.1245 157.81 64.1247 157.785C64.1209 157.77 64.1209 157.753 64.1247 157.738C64.15 157.676 64.1971 157.579 64.255 157.448C64.8656 156.111 65.2276 155.323 65.341 155.084C65.3514 155.056 65.3696 155.031 65.3934 155.012C65.4172 154.994 65.4457 154.982 65.4757 154.979C65.5058 154.975 65.5362 154.98 65.5636 154.993C65.5909 155.006 65.6142 155.026 65.6306 155.052L65.6342 155.041ZM65.4424 155.631L64.9682 156.627H65.6379L65.4424 155.631Z" fill="#FAFAFA"/>
<path d="M67.694 156.558C67.7954 156.833 67.8714 157.046 67.9257 157.199C68.0596 157.561 68.1248 157.756 68.1248 157.778C68.126 157.805 68.117 157.832 68.0995 157.854C68.0869 157.876 68.0685 157.895 68.0462 157.908C68.0239 157.92 67.9985 157.927 67.9728 157.926C67.9148 157.926 67.875 157.89 67.8461 157.821L67.8207 157.756C67.7519 157.597 67.6361 157.296 67.4804 156.855L66.7564 157.847C66.7416 157.869 66.7219 157.888 66.6987 157.902C66.6755 157.916 66.6494 157.924 66.6225 157.926C66.5945 157.926 66.567 157.919 66.5429 157.904C66.5201 157.892 66.5013 157.874 66.4885 157.851C66.4757 157.829 66.4694 157.804 66.4704 157.778V157.745C66.4868 157.698 66.5127 157.655 66.5465 157.618C66.789 157.307 67.0605 156.931 67.3537 156.496C67.3211 156.413 67.2922 156.33 67.2669 156.254C66.9917 155.53 66.8578 155.146 66.8578 155.121C66.8564 155.093 66.8627 155.065 66.8759 155.041C66.887 155.018 66.9045 154.998 66.9263 154.985C66.9481 154.971 66.9733 154.965 66.999 154.965C67.0287 154.965 67.058 154.973 67.0835 154.988C67.109 155.004 67.1299 155.026 67.1438 155.052L67.5709 156.207L68.4253 155.041C68.4408 155.019 68.4614 155.001 68.4853 154.988C68.5092 154.976 68.5358 154.969 68.5628 154.969C68.5871 154.967 68.6111 154.974 68.6316 154.987C68.6562 154.999 68.6766 155.018 68.6901 155.042C68.7037 155.066 68.7098 155.093 68.7076 155.121C68.7107 155.145 68.7107 155.169 68.7076 155.193L67.694 156.558Z" fill="#FAFAFA"/>
<path d="M70.8507 154.976C70.8758 154.977 70.9005 154.983 70.9231 154.994C70.9469 155.006 70.9669 155.025 70.9809 155.048C70.995 155.071 71.0025 155.097 71.0027 155.124C70.7927 156.782 70.6805 157.68 70.6407 157.814C70.6059 158.065 70.5129 158.304 70.3692 158.513C70.2315 158.708 70.0278 158.847 69.7957 158.904C69.5635 158.962 69.3185 158.933 69.1058 158.824C68.9139 158.747 68.7542 158.606 68.6533 158.426C68.6413 158.402 68.6351 158.376 68.6352 158.35C68.6356 158.323 68.6431 158.297 68.6569 158.274C68.6696 158.25 68.6884 158.231 68.7114 158.217C68.7344 158.204 68.7606 158.197 68.7872 158.198C68.8108 158.199 68.8338 158.205 68.8545 158.216C68.8752 158.228 68.893 158.244 68.9067 158.263C68.9792 158.371 69.0765 158.46 69.1905 158.523C69.3044 158.586 69.4318 158.621 69.5619 158.625C69.6609 158.623 69.7582 158.599 69.8466 158.555C69.935 158.51 70.0122 158.446 70.0724 158.368C70.2456 158.133 70.344 157.852 70.3547 157.561C70.3046 157.638 70.2408 157.705 70.1665 157.76C70.0335 157.858 69.8723 157.912 69.7067 157.912H69.6198C69.5161 157.893 69.418 157.85 69.3333 157.788C69.2486 157.725 69.1794 157.643 69.1311 157.55C68.981 157.289 68.907 156.992 68.9176 156.692C68.9176 156.537 68.9248 156.378 68.9393 156.214C68.9658 155.953 69.0237 155.584 69.113 155.106C69.1115 155.092 69.1115 155.077 69.113 155.063C69.1211 155.032 69.1389 155.006 69.1638 154.987C69.1888 154.968 69.2193 154.958 69.2506 154.958C69.2763 154.958 69.3015 154.965 69.323 154.979C69.3461 154.991 69.3656 155.008 69.3791 155.03C69.3925 155.052 69.3995 155.077 69.399 155.103C69.3866 155.298 69.3637 155.492 69.3302 155.685C69.2793 155.981 69.2454 156.28 69.2289 156.58C69.2191 156.817 69.2585 157.053 69.3447 157.275C69.4316 157.485 69.5583 157.589 69.7248 157.589H69.7755C69.9366 157.537 70.0731 157.428 70.1592 157.282C70.3108 157.07 70.418 156.83 70.4742 156.576L70.6697 155.128C70.668 155.106 70.668 155.084 70.6697 155.063C70.6757 155.045 70.6853 155.029 70.6977 155.015C70.7101 155.001 70.7252 154.99 70.742 154.982C70.7589 154.973 70.7771 154.969 70.7958 154.968C70.8144 154.967 70.8331 154.97 70.8507 154.976Z" fill="#FAFAFA"/>
<path d="M89.9896 160.337C89.9462 160.337 89.91 158.585 89.91 156.424C89.91 154.263 89.9462 152.511 89.9896 152.511C90.033 152.511 90.0692 154.263 90.0692 156.424C90.0692 158.585 90.033 160.337 89.9896 160.337Z" fill="#F5F5F5"/>
<path d="M55.1615 160.337C55.1181 160.337 55.0819 158.585 55.0819 156.424C55.0819 154.263 55.1181 152.511 55.1615 152.511C55.205 152.511 55.2412 154.263 55.2412 156.424C55.2412 158.585 55.205 160.337 55.1615 160.337Z" fill="#E0E0E0"/>
<path d="M90.7353 160.337C90.6919 160.337 90.6593 158.585 90.6593 156.424C90.6593 154.263 90.6919 152.511 90.7353 152.511C90.7787 152.511 90.8149 154.263 90.8149 156.424C90.8149 158.585 90.7787 160.337 90.7353 160.337Z" fill="#F5F5F5"/>
<path d="M54.4629 160.337C54.4195 160.337 54.3869 158.585 54.3869 156.424C54.3869 154.263 54.4195 152.511 54.4629 152.511C54.5064 152.511 54.5426 154.263 54.5426 156.424C54.5426 158.585 54.5064 160.337 54.4629 160.337Z" fill="#E0E0E0"/>
<path d="M79.669 153.803L84.1686 157.423L84.2085 157.455H84.1578L83.5605 157.611L79.7631 158.61L76.3205 157.162L75.325 156.746L75.0679 156.634L75.0028 156.605C74.9847 156.605 74.9774 156.605 74.9811 156.605H75.0028L75.0716 156.63L75.3286 156.735L76.3096 157.141L79.7595 158.589L83.5532 157.586L84.1542 157.43V157.474L79.6654 153.854" fill="#E0E0E0"/>
<path d="M83.7559 156.851L83.9985 157.083L84.3279 157.01L84.1867 157.314L84.3532 157.608L84.0202 157.564L83.7957 157.814L83.7342 157.484L83.4265 157.351L83.7197 157.188L83.7559 156.851Z" fill="#E0E0E0"/>
<path d="M79.4409 158.281L79.6074 158.422L79.8174 158.364L79.7377 158.563L79.8572 158.748L79.64 158.733L79.5061 158.903L79.4518 158.694L79.2454 158.618L79.43 158.502L79.4409 158.281Z" fill="#E0E0E0"/>
<path d="M74.6734 156.326L74.9413 156.344L75.1042 156.134L75.173 156.391L75.4227 156.485L75.1983 156.627L75.1874 156.894L74.9811 156.724L74.7241 156.797L74.8218 156.547L74.6734 156.326Z" fill="#E0E0E0"/>
<path d="M85.7723 153.857L86.0402 153.875L86.2031 153.665L86.2718 153.922L86.5216 154.017L86.2972 154.158L86.2863 154.426L86.08 154.255L85.823 154.328L85.9207 154.082L85.7723 153.857Z" fill="#E0E0E0"/>
<path d="M79.4518 153.684L79.6219 153.694L79.7269 153.56L79.7704 153.723L79.9296 153.785L79.7848 153.875L79.7812 154.046L79.6473 153.937L79.4844 153.984L79.5459 153.825L79.4518 153.684Z" fill="#E0E0E0"/>
<path d="M86.156 154.045C86.156 154.045 84.708 154.013 82.898 153.937C81.088 153.861 79.64 153.785 79.64 153.767C79.64 153.749 81.088 153.799 82.898 153.875C84.708 153.951 86.156 154.027 86.156 154.045Z" fill="#E0E0E0"/>
<path d="M87.7814 152.547H44.6165C44.0518 151.262 43.8925 150.045 44.6165 148.952H87.7814C88.0492 149.513 88.1882 150.128 88.1882 150.749C88.1882 151.371 88.0492 151.985 87.7814 152.547Z" fill="#E0E0E0"/>
<path d="M76.9395 149.98H53.5543V151.287H76.9395V149.98Z" fill="#EBEBEB"/>
<path d="M46.2709 152.565C46.1279 152.446 46.0119 152.298 45.9306 152.13C45.7097 151.738 45.5751 151.304 45.5358 150.856C45.4964 150.407 45.5533 149.956 45.7025 149.531C45.7536 149.352 45.8424 149.185 45.9632 149.043C45.923 149.22 45.871 149.394 45.8075 149.564C45.5818 150.402 45.66 151.294 46.0283 152.08C46.1218 152.235 46.2029 152.397 46.2709 152.565Z" fill="#E0E0E0"/>
<path d="M47.2048 152.565C47.0618 152.446 46.9458 152.298 46.8645 152.13C46.6437 151.738 46.5091 151.304 46.4697 150.856C46.4304 150.407 46.4873 149.956 46.6365 149.531C46.6875 149.352 46.7764 149.185 46.8971 149.043C46.857 149.22 46.805 149.394 46.7414 149.564C46.5158 150.402 46.594 151.294 46.9623 152.08C47.0557 152.235 47.1368 152.397 47.2048 152.565Z" fill="#E0E0E0"/>
<path d="M86.033 152.482C86.2062 151.911 86.3083 151.321 86.337 150.726C86.3152 150.129 86.2204 149.537 86.0547 148.963C86.3483 149.504 86.5002 150.11 86.4965 150.725C86.4927 151.34 86.3332 151.945 86.033 152.482Z" fill="#F5F5F5"/>
<path d="M85.2329 152.471C85.1822 152.471 85.3668 151.703 85.3596 150.751C85.3524 149.799 85.1786 149.043 85.2257 149.032C85.443 149.578 85.5429 150.164 85.5189 150.751C85.543 151.338 85.4456 151.923 85.2329 152.471Z" fill="#F5F5F5"/>
<path d="M170.459 12.9777H103.489V79.9477H170.459V12.9777Z" fill="white"/>
<path d="M170.527 79.7522H103.489V79.9477H170.527V79.7522Z" fill="#EBEBEB"/>
<path d="M170.527 68.5375H103.489V68.7329H170.527V68.5375Z" fill="#EBEBEB"/>
<path d="M170.527 57.3263H103.489V57.5218H170.527V57.3263Z" fill="#EBEBEB"/>
<path d="M170.527 46.1115H103.489V46.307H170.527V46.1115Z" fill="#EBEBEB"/>
<path d="M170.527 34.9004H103.489V35.0959H170.527V34.9004Z" fill="#EBEBEB"/>
<path d="M170.527 23.6893H103.489V23.8847H170.527V23.6893Z" fill="#EBEBEB"/>
<path d="M170.527 12.9777H170.335V79.85H170.527V12.9777Z" fill="#EBEBEB"/>
<path d="M159.309 12.9777H159.117V79.85H159.309V12.9777Z" fill="#EBEBEB"/>
<path d="M148.091 12.9777H147.899V79.85H148.091V12.9777Z" fill="#EBEBEB"/>
<path d="M136.869 12.9777H136.677V79.85H136.869V12.9777Z" fill="#EBEBEB"/>
<path d="M125.65 12.9777H125.458V79.85H125.65V12.9777Z" fill="#EBEBEB"/>
<path d="M114.432 12.9777H114.24V79.85H114.432V12.9777Z" fill="#EBEBEB"/>
<path d="M170.527 79.7993H103.489V79.897H170.527V79.7993Z" fill="#EBEBEB"/>
<path d="M170.527 76.9974H103.489V77.0952H170.527V76.9974Z" fill="#EBEBEB"/>
<path d="M170.527 74.1919H103.489V74.2897H170.527V74.1919Z" fill="#EBEBEB"/>
<path d="M170.527 71.39H103.489V71.4878H170.527V71.39Z" fill="#EBEBEB"/>
<path d="M170.527 68.5882H103.489V68.6859H170.527V68.5882Z" fill="#E0E0E0"/>
<path d="M170.527 65.7826H103.489V65.8804H170.527V65.7826Z" fill="#EBEBEB"/>
<path d="M170.527 62.9807H103.489V63.0785H170.527V62.9807Z" fill="#EBEBEB"/>
<path d="M170.527 60.1789H103.489V60.2766H170.527V60.1789Z" fill="#EBEBEB"/>
<path d="M170.527 57.3734H103.489V57.4711H170.527V57.3734Z" fill="#E0E0E0"/>
<path d="M170.527 54.5715H103.489V54.6692H170.527V54.5715Z" fill="#EBEBEB"/>
<path d="M170.527 51.7696H103.489V51.8673H170.527V51.7696Z" fill="#EBEBEB"/>
<path d="M170.527 48.9641H103.489V49.0618H170.527V48.9641Z" fill="#EBEBEB"/>
<path d="M170.527 46.1622H103.489V46.26H170.527V46.1622Z" fill="#E0E0E0"/>
<path d="M170.527 43.3604H103.489V43.4581H170.527V43.3604Z" fill="#EBEBEB"/>
<path d="M170.527 40.5549H103.489V40.6526H170.527V40.5549Z" fill="#EBEBEB"/>
<path d="M170.527 37.753H103.489V37.8507H170.527V37.753Z" fill="#EBEBEB"/>
<path d="M170.527 34.9475H103.489V35.0452H170.527V34.9475Z" fill="#E0E0E0"/>
<path d="M170.527 32.1456H103.489V32.2434H170.527V32.1456Z" fill="#EBEBEB"/>
<path d="M170.527 29.3437H103.489V29.4415H170.527V29.3437Z" fill="#EBEBEB"/>
<path d="M170.527 26.5382H103.489V26.636H170.527V26.5382Z" fill="#EBEBEB"/>
<path d="M170.527 23.7363H103.489V23.8341H170.527V23.7363Z" fill="#E0E0E0"/>
<path d="M170.527 20.9345H103.489V21.0322H170.527V20.9345Z" fill="#EBEBEB"/>
<path d="M170.527 18.129H103.489V18.2267H170.527V18.129Z" fill="#EBEBEB"/>
<path d="M170.527 15.3271H103.489V15.4248H170.527V15.3271Z" fill="#EBEBEB"/>
<path d="M170.48 12.9777H170.383V79.85H170.48V12.9777Z" fill="#EBEBEB"/>
<path d="M167.675 12.9777H167.577V79.85H167.675V12.9777Z" fill="#EBEBEB"/>
<path d="M164.873 12.9777H164.775V79.85H164.873V12.9777Z" fill="#EBEBEB"/>
<path d="M162.067 12.9777H161.97V79.85H162.067V12.9777Z" fill="#EBEBEB"/>
<path d="M159.262 12.9777H159.164V79.85H159.262V12.9777Z" fill="#E0E0E0"/>
<path d="M156.456 12.9777H156.359V79.85H156.456V12.9777Z" fill="#EBEBEB"/>
<path d="M153.651 12.9777H153.553V79.85H153.651V12.9777Z" fill="#EBEBEB"/>
<path d="M150.849 12.9777H150.751V79.85H150.849V12.9777Z" fill="#EBEBEB"/>
<path d="M148.044 12.9777H147.946V79.85H148.044V12.9777Z" fill="#E0E0E0"/>
<path d="M145.238 12.9777H145.14V79.85H145.238V12.9777Z" fill="#EBEBEB"/>
<path d="M142.432 12.9777H142.335V79.85H142.432V12.9777Z" fill="#EBEBEB"/>
<path d="M139.627 12.9777H139.529V79.85H139.627V12.9777Z" fill="#EBEBEB"/>
<path d="M136.825 12.9777H136.727V79.85H136.825V12.9777Z" fill="#E0E0E0"/>
<path d="M134.02 12.9777H133.922V79.85H134.02V12.9777Z" fill="#EBEBEB"/>
<path d="M131.214 12.9777H131.116V79.85H131.214V12.9777Z" fill="#EBEBEB"/>
<path d="M128.409 12.9777H128.311V79.85H128.409V12.9777Z" fill="#EBEBEB"/>
<path d="M125.603 12.9777H125.505V79.85H125.603V12.9777Z" fill="#E0E0E0"/>
<path d="M122.801 12.9777H122.703V79.85H122.801V12.9777Z" fill="#EBEBEB"/>
<path d="M119.996 12.9777H119.898V79.85H119.996V12.9777Z" fill="#EBEBEB"/>
<path d="M117.19 12.9777H117.093V79.85H117.19V12.9777Z" fill="#EBEBEB"/>
<path d="M114.385 12.9777H114.287V79.85H114.385V12.9777Z" fill="#E0E0E0"/>
<path d="M111.583 12.9777H111.485V79.85H111.583V12.9777Z" fill="#EBEBEB"/>
<path d="M108.777 12.9777H108.68V79.85H108.777V12.9777Z" fill="#EBEBEB"/>
<path d="M105.972 12.9777H105.874V79.85H105.972V12.9777Z" fill="#EBEBEB"/>
<path d="M170.455 79.9477C170.455 79.9477 170.455 79.8391 170.455 79.6291C170.455 79.4192 170.455 79.1115 170.455 78.706C170.455 77.8915 170.455 76.6861 170.455 75.115C170.455 71.9692 170.455 67.361 170.433 61.5002C170.433 49.7822 170.411 33.0506 170.393 12.9922L170.473 13.0718H103.503L103.597 12.9777C103.597 37.4996 103.597 60.483 103.597 79.9477L103.517 79.8644L152.026 79.9043L165.64 79.926H169.231H170.14H170.455H169.235H165.658L152.062 79.9477L103.489 79.9875H103.405V79.9079C103.405 60.4431 103.405 37.4598 103.405 12.9379V12.8438H103.507H170.477H170.56V12.927C170.52 33.0723 170.502 49.8221 170.502 61.54C170.502 67.3935 170.502 71.9982 170.484 75.1367C170.484 76.7006 170.484 77.9024 170.484 78.7133C170.484 79.1151 170.484 79.4373 170.484 79.6291C170.484 79.821 170.455 79.9477 170.455 79.9477Z" fill="#E0E0E0"/>
<path d="M49.623 13.2203H12.8981V49.9452H49.623V13.2203Z" fill="white"/>
<path d="M49.6628 49.8401H12.8981V49.9487H49.6628V49.8401Z" fill="#EBEBEB"/>
<path d="M49.6628 43.6898H12.8981V43.7984H49.6628V43.6898Z" fill="#EBEBEB"/>
<path d="M49.6628 37.543H12.8981V37.6516H49.6628V37.543Z" fill="#EBEBEB"/>
<path d="M49.6628 31.3927H12.8981V31.5013H49.6628V31.3927Z" fill="#EBEBEB"/>
<path d="M49.6628 25.2423H12.8981V25.3509H49.6628V25.2423Z" fill="#EBEBEB"/>
<path d="M49.6628 19.0955H12.8981V19.2041H49.6628V19.0955Z" fill="#EBEBEB"/>
<path d="M49.6628 13.2203H49.5578V49.8945H49.6628V13.2203Z" fill="#EBEBEB"/>
<path d="M43.5088 13.2203H43.4038V49.8945H43.5088V13.2203Z" fill="#EBEBEB"/>
<path d="M37.3548 13.2203H37.2498V49.8945H37.3548V13.2203Z" fill="#EBEBEB"/>
<path d="M31.2044 13.2203H31.0994V49.8945H31.2044V13.2203Z" fill="#EBEBEB"/>
<path d="M25.0504 13.2203H24.9454V49.8945H25.0504V13.2203Z" fill="#EBEBEB"/>
<path d="M18.9 13.2203H18.795V49.8945H18.9V13.2203Z" fill="#EBEBEB"/>
<path d="M49.6628 49.8655H12.8981V49.9198H49.6628V49.8655Z" fill="#EBEBEB"/>
<path d="M49.6628 48.3306H12.8981V48.3849H49.6628V48.3306Z" fill="#EBEBEB"/>
<path d="M49.6628 46.7921H12.8981V46.8464H49.6628V46.7921Z" fill="#EBEBEB"/>
<path d="M49.6628 45.2536H12.8981V45.3079H49.6628V45.2536Z" fill="#EBEBEB"/>
<path d="M49.6628 43.7188H12.8981V43.7731H49.6628V43.7188Z" fill="#E0E0E0"/>
<path d="M49.6628 42.1803H12.8981V42.2346H49.6628V42.1803Z" fill="#EBEBEB"/>
<path d="M49.6628 40.6418H12.8981V40.6961H49.6628V40.6418Z" fill="#EBEBEB"/>
<path d="M49.6628 39.1069H12.8981V39.1612H49.6628V39.1069Z" fill="#EBEBEB"/>
<path d="M49.6628 37.5684H12.8981V37.6227H49.6628V37.5684Z" fill="#E0E0E0"/>
<path d="M49.6628 36.0299H12.8981V36.0842H49.6628V36.0299Z" fill="#EBEBEB"/>
<path d="M49.6628 34.495H12.8981V34.5493H49.6628V34.495Z" fill="#EBEBEB"/>
<path d="M49.6628 32.9565H12.8981V33.0108H49.6628V32.9565Z" fill="#EBEBEB"/>
<path d="M49.6628 31.418H12.8981V31.4723H49.6628V31.418Z" fill="#E0E0E0"/>
<path d="M49.6628 29.8831H12.8981V29.9374H49.6628V29.8831Z" fill="#EBEBEB"/>
<path d="M49.6628 28.3446H12.8981V28.3989H49.6628V28.3446Z" fill="#EBEBEB"/>
<path d="M49.6628 26.8061H12.8981V26.8604H49.6628V26.8061Z" fill="#EBEBEB"/>
<path d="M49.6628 25.2712H12.8981V25.3255H49.6628V25.2712Z" fill="#E0E0E0"/>
<path d="M49.6628 23.7327H12.8981V23.787H49.6628V23.7327Z" fill="#EBEBEB"/>
<path d="M49.6628 22.1942H12.8981V22.2485H49.6628V22.1942Z" fill="#EBEBEB"/>
<path d="M49.6628 20.6593H12.8981V20.7136H49.6628V20.6593Z" fill="#EBEBEB"/>
<path d="M49.6628 19.1208H12.8981V19.1751H49.6628V19.1208Z" fill="#E0E0E0"/>
<path d="M49.6628 17.5823H12.8981V17.6366H49.6628V17.5823Z" fill="#EBEBEB"/>
<path d="M49.6628 16.0475H12.8981V16.1018H49.6628V16.0475Z" fill="#EBEBEB"/>
<path d="M49.6628 14.509H12.8981V14.5633H49.6628V14.509Z" fill="#EBEBEB"/>
<path d="M49.6374 13.2203H49.5831V49.8945H49.6374V13.2203Z" fill="#EBEBEB"/>
<path d="M48.099 13.2203H48.0447V49.8945H48.099V13.2203Z" fill="#EBEBEB"/>
<path d="M46.5605 13.2203H46.5062V49.8945H46.5605V13.2203Z" fill="#EBEBEB"/>
<path d="M45.022 13.2203H44.9677V49.8945H45.022V13.2203Z" fill="#EBEBEB"/>
<path d="M43.4834 13.2203H43.4291V49.8945H43.4834V13.2203Z" fill="#E0E0E0"/>
<path d="M41.9449 13.2203H41.8906V49.8945H41.9449V13.2203Z" fill="#EBEBEB"/>
<path d="M40.4101 13.2203H40.3558V49.8945H40.4101V13.2203Z" fill="#EBEBEB"/>
<path d="M38.8716 13.2203H38.8173V49.8945H38.8716V13.2203Z" fill="#EBEBEB"/>
<path d="M37.3331 13.2203H37.2788V49.8945H37.3331V13.2203Z" fill="#E0E0E0"/>
<path d="M35.7946 13.2203H35.7403V49.8945H35.7946V13.2203Z" fill="#EBEBEB"/>
<path d="M34.2561 13.2203H34.2018V49.8945H34.2561V13.2203Z" fill="#EBEBEB"/>
<path d="M32.7176 13.2203H32.6633V49.8945H32.7176V13.2203Z" fill="#EBEBEB"/>
<path d="M31.1791 13.2203H31.1248V49.8945H31.1791V13.2203Z" fill="#E0E0E0"/>
<path d="M29.6406 13.2203H29.5863V49.8945H29.6406V13.2203Z" fill="#EBEBEB"/>
<path d="M28.1021 13.2203H28.0478V49.8945H28.1021V13.2203Z" fill="#EBEBEB"/>
<path d="M26.5636 13.2203H26.5093V49.8945H26.5636V13.2203Z" fill="#EBEBEB"/>
<path d="M25.0251 13.2203H24.9708V49.8945H25.0251V13.2203Z" fill="#E0E0E0"/>
<path d="M23.4902 13.2203H23.4359V49.8945H23.4902V13.2203Z" fill="#EBEBEB"/>
<path d="M21.9517 13.2203H21.8974V49.8945H21.9517V13.2203Z" fill="#EBEBEB"/>
<path d="M20.4132 13.2203H20.3589V49.8945H20.4132V13.2203Z" fill="#EBEBEB"/>
<path d="M18.8747 13.2203H18.8204V49.8945H18.8747V13.2203Z" fill="#E0E0E0"/>
<path d="M17.3362 13.2203H17.2819V49.8945H17.3362V13.2203Z" fill="#EBEBEB"/>
<path d="M15.7977 13.2203H15.7434V49.8945H15.7977V13.2203Z" fill="#EBEBEB"/>
<path d="M14.2592 13.2203H14.2049V49.8945H14.2592V13.2203Z" fill="#EBEBEB"/>
<path d="M49.623 49.956C49.623 49.956 49.623 49.8945 49.623 49.7786C49.623 49.6628 49.623 49.4926 49.623 49.2718C49.623 48.8193 49.623 48.1569 49.623 47.2953C49.623 45.5686 49.623 43.0418 49.6013 39.8272C49.6013 33.4017 49.5759 24.2287 49.5614 13.2275L49.6411 13.3107H12.9198L13.0139 13.2166C13.0139 26.6649 13.0139 39.2806 13.0139 49.9451L12.9343 49.8619L39.5304 49.9053H47.0021H48.975H49.4854H49.6592H48.9931H47.0347L39.5847 49.927L12.9343 49.9669H12.8148V49.956C12.8148 39.2806 12.8148 26.6758 12.8148 13.2275V13.1334H12.9126H49.6338H49.7171V13.213C49.699 24.2359 49.6845 33.4271 49.6737 39.8634C49.6737 43.0708 49.6737 45.5903 49.6519 47.317C49.6519 48.1713 49.6519 48.8266 49.6519 49.2754C49.6519 49.4926 49.6519 49.6592 49.6519 49.775C49.6519 49.8908 49.623 49.956 49.623 49.956Z" fill="#E0E0E0"/>
<path d="M20.1671 118.798L22.6685 105.099L21.9952 104.585L16.0511 112.423C16.2189 112.608 16.3175 112.846 16.33 113.096C16.3425 113.346 16.2683 113.593 16.1199 113.795C15.9447 114.026 15.6849 114.177 15.3977 114.217C15.1106 114.256 14.8195 114.18 14.5886 114.005C14.3577 113.829 14.2059 113.57 14.1665 113.283C14.1271 112.995 14.2035 112.704 14.3787 112.473C14.5332 112.277 14.7509 112.139 14.9949 112.085C15.2389 112.03 15.4944 112.061 15.7181 112.173L21.6657 104.336L21.0286 103.854L8.17761 110.048C11.8157 113.125 9.41203 117.056 9.41203 117.056L13.0719 119.88C15.8737 116.202 20.1671 118.798 20.1671 118.798Z" fill="#E0E0E0"/>
<path d="M7.63459 116.712L13.6981 121.389L11.9388 123.779L5.84631 118.892L7.63459 116.712Z" fill="#E0E0E0"/>
<path d="M167.686 168.974C167.686 169.029 132.963 169.068 90.1416 169.068C47.3206 169.068 12.5903 169.029 12.5903 168.974C12.5903 168.92 47.3061 168.88 90.1416 168.88C132.977 168.88 167.686 168.924 167.686 168.974Z" fill="#263238"/>
<path d="M78.9956 115.033H28.5256V145.531H78.9956V115.033Z" fill="white"/>
<path d="M78.9952 109.921H28.5251V115.868H78.9952V109.921Z" fill="#EBEBEB"/>
<path d="M44.2472 128.047H36.066V119.865H44.2472V128.047ZM36.428 127.685H43.8852V120.227H36.428V127.685Z" fill="#263238"/>
<path d="M44.2472 141.357H36.066V133.173H44.2472V141.357ZM36.428 140.995H43.8852V133.535H36.428V140.995Z" fill="#263238"/>
<path d="M70.5466 126.725H51.7226C51.4117 126.725 51.1038 126.664 50.8166 126.545C50.5293 126.426 50.2684 126.252 50.0485 126.032C49.8287 125.812 49.6543 125.551 49.5353 125.264C49.4163 124.977 49.3551 124.669 49.3551 124.358C49.3551 124.047 49.4164 123.739 49.5354 123.452C49.6544 123.165 49.8289 122.905 50.0487 122.685C50.2686 122.466 50.5296 122.291 50.8169 122.173C51.1041 122.054 51.4119 121.994 51.7226 121.994H70.5466C70.8573 121.994 71.1651 122.054 71.4523 122.173C71.7395 122.291 72.0005 122.466 72.2204 122.685C72.4403 122.905 72.6148 123.165 72.7338 123.452C72.8528 123.739 72.9141 124.047 72.9141 124.358C72.9141 124.669 72.8528 124.977 72.7338 125.264C72.6149 125.551 72.4405 125.812 72.2206 126.032C72.0008 126.252 71.7398 126.426 71.4526 126.545C71.1653 126.664 70.8575 126.725 70.5466 126.725Z" fill="#E0E0E0"/>
<path d="M51.6068 127.949C53.812 127.949 55.5996 126.161 55.5996 123.956C55.5996 121.751 53.812 119.963 51.6068 119.963C49.4016 119.963 47.6139 121.751 47.6139 123.956C47.6139 126.161 49.4016 127.949 51.6068 127.949Z" fill="#FF6BA6"/>
<path d="M70.5466 139.439H51.7226C51.0953 139.439 50.4937 139.19 50.0498 138.747C49.6059 138.303 49.3561 137.702 49.3551 137.075C49.3551 136.447 49.6045 135.845 50.0485 135.401C50.4925 134.957 51.0947 134.707 51.7226 134.707H70.5466C71.1745 134.707 71.7766 134.957 72.2206 135.401C72.6646 135.845 72.9141 136.447 72.9141 137.075C72.9131 137.702 72.6632 138.303 72.2194 138.747C71.7755 139.19 71.1738 139.439 70.5466 139.439Z" fill="#E0E0E0"/>
<path d="M61.4169 140.666C63.6221 140.666 65.4098 138.878 65.4098 136.673C65.4098 134.468 63.6221 132.68 61.4169 132.68C59.2117 132.68 57.4241 134.468 57.4241 136.673C57.4241 138.878 59.2117 140.666 61.4169 140.666Z" fill="#FF6BA6"/>
<path d="M40.0118 141.155C39.9575 141.155 39.9177 139.417 39.9177 137.274C39.9177 135.131 39.9575 133.397 40.0118 133.397C40.0662 133.397 40.106 135.131 40.106 137.274C40.106 139.417 40.0625 141.155 40.0118 141.155Z" fill="#263238"/>
<path d="M44.0663 137.365C44.0663 137.415 42.3106 137.459 40.1422 137.459C37.9738 137.459 36.2217 137.415 36.2217 137.365C36.2217 137.314 37.9774 137.27 40.1422 137.27C42.307 137.27 44.0663 137.31 44.0663 137.365Z" fill="#263238"/>
<path d="M78.9956 145.524C78.9956 145.524 78.9956 145.303 78.9956 144.876C78.9956 144.449 78.9956 143.815 78.9956 142.99C78.9956 141.336 78.9956 138.914 78.9956 135.812C78.9956 129.618 78.9703 120.727 78.9558 109.918L79.0318 109.994L28.5654 110.012L28.6595 109.918C28.6595 122.656 28.6595 134.751 28.6595 145.524L28.5727 145.441L64.9609 145.481L75.296 145.524H78.0508H79.0065H78.7712H78.0689H75.3322L64.9826 145.546L28.5365 145.589H28.4496V145.524C28.4496 134.751 28.4496 122.656 28.4496 109.918V109.824H28.5473L79.0137 109.842H79.0897V109.918C79.0716 120.745 79.0572 129.654 79.0499 135.862C79.0499 138.954 79.0499 141.372 79.0282 143.019C79.0282 143.837 79.0282 144.467 79.0282 144.89C79.0282 145.314 78.9956 145.524 78.9956 145.524Z" fill="#263238"/>
<path d="M32.142 112.944C32.142 113.114 32.0915 113.281 31.9968 113.423C31.9021 113.564 31.7676 113.675 31.6101 113.74C31.4527 113.805 31.2795 113.822 31.1124 113.789C30.9452 113.756 30.7917 113.674 30.6712 113.553C30.5507 113.433 30.4687 113.279 30.4354 113.112C30.4022 112.945 30.4193 112.772 30.4845 112.614C30.5497 112.457 30.6601 112.322 30.8018 112.228C30.9435 112.133 31.11 112.082 31.2804 112.082C31.5087 112.083 31.7272 112.174 31.8886 112.336C32.05 112.497 32.1411 112.716 32.142 112.944Z" fill="white"/>
<path d="M33.8832 113.816C34.3591 113.816 34.7448 113.431 34.7448 112.955C34.7448 112.479 34.3591 112.093 33.8832 112.093C33.4074 112.093 33.0217 112.479 33.0217 112.955C33.0217 113.431 33.4074 113.816 33.8832 113.816Z" fill="white"/>
<path d="M36.486 113.816C36.9618 113.816 37.3476 113.431 37.3476 112.955C37.3476 112.479 36.9618 112.093 36.486 112.093C36.0102 112.093 35.6245 112.479 35.6245 112.955C35.6245 113.431 36.0102 113.816 36.486 113.816Z" fill="white"/>
<path d="M96.5092 34.3973H28.1672V101.874H96.5092V34.3973Z" fill="white"/>
<path d="M96.5092 101.646H28.1672V101.943H96.5092V101.646Z" fill="#EBEBEB"/>
<path d="M96.5092 34.1004H28.1672V34.3973H96.5092V34.1004Z" fill="#EBEBEB"/>
<path d="M96.5092 84.6428H28.1672V84.9397H96.5092V84.6428Z" fill="#EBEBEB"/>
<path d="M96.5092 67.6397H28.1672V67.9366H96.5092V67.6397Z" fill="#EBEBEB"/>
<path d="M96.5092 50.6402H28.1672V50.937H96.5092V50.6402Z" fill="#EBEBEB"/>
<path d="M96.5128 34.3973H96.2196V101.943H96.5128V34.3973Z" fill="#EBEBEB"/>
<path d="M79.4988 34.3973H79.2056V101.943H79.4988V34.3973Z" fill="#EBEBEB"/>
<path d="M62.4848 34.3973H62.1916V101.943H62.4848V34.3973Z" fill="#EBEBEB"/>
<path d="M45.4744 34.3973H45.1812V101.943H45.4744V34.3973Z" fill="#EBEBEB"/>
<path d="M28.4605 34.3973H28.1672V101.943H28.4605V34.3973Z" fill="#EBEBEB"/>
<path d="M96.5092 97.4685H28.1672V97.6169H96.5092V97.4685Z" fill="#EBEBEB"/>
<path d="M96.5092 93.2186H28.1672V93.3671H96.5092V93.2186Z" fill="#EBEBEB"/>
<path d="M96.5092 88.9688H28.1672V89.1172H96.5092V88.9688Z" fill="#EBEBEB"/>
<path d="M96.5092 84.7189H28.1672V84.8673H96.5092V84.7189Z" fill="#E0E0E0"/>
<path d="M96.5092 80.469H28.1672V80.6174H96.5092V80.469Z" fill="#EBEBEB"/>
<path d="M96.5092 76.2155H28.1672V76.3639H96.5092V76.2155Z" fill="#EBEBEB"/>
<path d="M96.5092 71.9656H28.1672V72.114H96.5092V71.9656Z" fill="#EBEBEB"/>
<path d="M96.5092 67.7157H28.1672V67.8642H96.5092V67.7157Z" fill="#E0E0E0"/>
<path d="M96.5092 63.4659H28.1672V63.6143H96.5092V63.4659Z" fill="#EBEBEB"/>
<path d="M96.5092 59.2123H28.1672V59.3608H96.5092V59.2123Z" fill="#EBEBEB"/>
<path d="M96.5092 54.9625H28.1672V55.1109H96.5092V54.9625Z" fill="#EBEBEB"/>
<path d="M96.5092 50.7126H28.1672V50.861H96.5092V50.7126Z" fill="#E0E0E0"/>
<path d="M96.5092 46.4627H28.1672V46.6111H96.5092V46.4627Z" fill="#EBEBEB"/>
<path d="M96.5092 42.2128H28.1672V42.3612H96.5092V42.2128Z" fill="#EBEBEB"/>
<path d="M96.5092 37.9593H28.1672V38.1077H96.5092V37.9593Z" fill="#EBEBEB"/>
<path d="M96.4368 34.3973H96.292V101.943H96.4368V34.3973Z" fill="#EBEBEB"/>
<path d="M92.1833 34.3973H92.0386V101.943H92.1833V34.3973Z" fill="#EBEBEB"/>
<path d="M87.9298 34.3973H87.785V101.943H87.9298V34.3973Z" fill="#EBEBEB"/>
<path d="M83.6763 34.3973H83.5315V101.943H83.6763V34.3973Z" fill="#EBEBEB"/>
<path d="M79.4228 34.3973H79.278V101.943H79.4228V34.3973Z" fill="#E0E0E0"/>
<path d="M75.1693 34.3973H75.0245V101.943H75.1693V34.3973Z" fill="#EBEBEB"/>
<path d="M70.9158 34.3973H70.771V101.943H70.9158V34.3973Z" fill="#EBEBEB"/>
<path d="M66.6623 34.3973H66.5175V101.943H66.6623V34.3973Z" fill="#EBEBEB"/>
<path d="M62.4088 34.3973H62.264V101.943H62.4088V34.3973Z" fill="#E0E0E0"/>
<path d="M58.1589 34.3973H58.0141V101.943H58.1589V34.3973Z" fill="#EBEBEB"/>
<path d="M53.9054 34.3973H53.7606V101.943H53.9054V34.3973Z" fill="#EBEBEB"/>
<path d="M49.6519 34.3973H49.5071V101.943H49.6519V34.3973Z" fill="#EBEBEB"/>
<path d="M45.3984 34.3973H45.2536V101.943H45.3984V34.3973Z" fill="#E0E0E0"/>
<path d="M41.1449 34.3973H41.0001V101.943H41.1449V34.3973Z" fill="#EBEBEB"/>
<path d="M36.8914 34.3973H36.7466V101.943H36.8914V34.3973Z" fill="#EBEBEB"/>
<path d="M32.6379 34.3973H32.4931V101.943H32.6379V34.3973Z" fill="#EBEBEB"/>
<path d="M28.3844 34.3973H28.2396V101.943H28.3844V34.3973Z" fill="#E0E0E0"/>
<path d="M30.1437 32.7103H26.7699V36.0842H30.1437V32.7103Z" fill="#263238"/>
<path d="M30.1437 100.187H26.7699V103.561H30.1437V100.187Z" fill="#263238"/>
<path d="M98.0151 32.7103H94.6412V36.0842H98.0151V32.7103Z" fill="#263238"/>
<path d="M98.0151 100.256H94.6412V103.63H98.0151V100.256Z" fill="#263238"/>
<path d="M96.6757 101.943C96.6757 101.248 96.6431 74.7928 96.5961 34.1004L96.6757 34.1837H28.1745L28.2686 34.0895C28.2686 58.9191 28.2686 82.1957 28.2686 101.932L28.1853 101.849L96.6938 101.932H96.3825H95.4449H91.7851L77.8734 101.954L28.1853 101.997H28.1021V101.914C28.1021 82.1776 28.1021 58.901 28.1021 34.0714V33.9773H28.2034H96.7047H96.7879V34.057C96.7698 54.4195 96.7554 71.39 96.7445 83.289C96.7445 89.2185 96.7445 93.8774 96.7228 97.0449C96.7228 98.6269 96.7228 99.8432 96.7228 100.665C96.7228 101.074 96.7228 101.389 96.7228 101.592C96.7228 101.794 96.6757 101.943 96.6757 101.943Z" fill="#263238"/>
<path d="M96.9436 101.092C97.197 101.233 100.296 108.98 100.477 109.874C100.927 112.341 101.067 114.855 100.893 117.357C100.596 120.408 100.118 124.792 100.118 124.792L88.7117 125.067L89.1606 117.697C89.1606 117.697 87.1768 115.478 87.2673 113.896C87.3796 111.93 89.1063 111.97 89.1063 111.97C89.1063 111.97 88.2701 109.458 90.7824 109.219C90.7824 109.219 92.024 106.645 93.9462 107.123C95.8684 107.601 96.5852 108.321 96.5852 108.321L94.6919 103.199C94.548 102.826 94.5349 102.415 94.6545 102.034C94.7742 101.653 95.0196 101.323 95.3508 101.099C95.5865 100.943 95.863 100.858 96.1461 100.857C96.4292 100.856 96.7064 100.938 96.9436 101.092Z" fill="#FFBE9D"/>
<path d="M94.424 114.265C94.3951 114.283 94.1887 113.983 93.7652 113.585C93.5192 113.352 93.2526 113.143 92.9688 112.958C92.6253 112.739 92.2617 112.552 91.8828 112.401C91.1776 112.134 90.4286 112.001 89.6746 112.01C89.0954 112.01 88.737 112.093 88.7298 112.061C88.8071 112.021 88.8902 111.994 88.976 111.981C89.2024 111.923 89.434 111.888 89.6674 111.876C90.4458 111.835 91.2242 111.958 91.9516 112.238C92.3487 112.395 92.7284 112.593 93.0846 112.828C93.3724 113.025 93.6382 113.252 93.8774 113.505C94.0348 113.666 94.1766 113.842 94.3009 114.03C94.3878 114.178 94.4349 114.258 94.424 114.265Z" fill="#EB996E"/>
<path d="M95.8612 111.76C95.8322 111.76 95.6476 111.492 95.2711 111.101C94.7808 110.592 94.2034 110.174 93.5661 109.867C92.9272 109.563 92.2397 109.375 91.5353 109.31C90.9923 109.262 90.6521 109.31 90.6484 109.266C90.9387 109.183 91.2417 109.153 91.5426 109.179C92.2719 109.206 92.988 109.382 93.6463 109.697C94.3046 110.012 94.8909 110.459 95.3689 111.011C95.5749 111.231 95.7414 111.484 95.8612 111.76Z" fill="#EB996E"/>
<path d="M97.9391 110.12C97.6817 109.849 97.4468 109.557 97.2368 109.248C96.9729 108.982 96.7308 108.695 96.5128 108.39C97.1754 108.78 97.6772 109.394 97.9282 110.12H97.9391Z" fill="#EB996E"/>
<path d="M89.1063 118.533C89.249 117.343 89.5172 116.171 89.9063 115.036C89.7636 116.227 89.4955 117.399 89.1063 118.533Z" fill="#EB996E"/>
<path d="M103.641 134.874L101.74 137.408L100.274 121.06L88.7298 124.38C88.7298 124.38 87.6438 150.165 88.042 154.404C88.4691 159.03 88.5633 159.262 89.7361 161.372C91.2384 164.073 96.4693 165.955 99.4558 165.166C102.5 164.359 105.646 160.304 108.035 157.875C112.379 153.455 119.203 144.905 119.203 144.905L103.641 134.874Z" fill="#FFBE9D"/>
<path d="M103.344 135.269C103.394 135.305 102.913 135.993 102.149 137.079C101.385 138.165 100.339 139.721 99.2531 141.462C98.1671 143.204 97.2621 144.822 96.6178 146.002C95.9734 147.182 95.5716 147.913 95.5318 147.888C95.492 147.862 95.7852 147.084 96.368 145.864C97.9066 142.697 99.7649 139.695 101.914 136.905C102.739 135.851 103.304 135.236 103.344 135.269Z" fill="#EB996E"/>
<path d="M151.627 65.3193C150.498 64.1754 111.985 33.9122 111.985 33.9122L104.926 43.3242L139.851 74.4562C139.851 74.4562 152.764 66.4596 151.627 65.3193Z" fill="#FFBE9D"/>
<path d="M111.985 33.9121L107.018 25.0214L100.658 19.7073C100.323 19.9468 100.092 20.304 100.011 20.7071C99.9299 21.1101 100.004 21.529 100.22 21.8793C100.793 22.766 101.498 23.5596 102.312 24.2323C102.312 24.2323 99.3508 24.406 99.3508 25.5391C99.3508 25.5391 95.8648 26.4984 96.2992 28.7645C96.2992 28.7645 94.8186 31.6388 95.4268 32.4243C95.5729 32.6076 95.7585 32.7556 95.9697 32.8574C96.1809 32.9591 96.4123 33.0119 96.6467 33.0119C96.8811 33.0119 97.1125 32.9591 97.3237 32.8574C97.5349 32.7556 97.7205 32.6076 97.8666 32.4243C98.5653 31.6388 99.7852 31.2913 101.179 31.3782C102.573 31.465 104.317 33.818 104.144 35.9973C103.97 38.1765 102.746 39.1322 101.092 38.7847C99.4377 38.4371 97.9789 36.2 96.7481 36.3737C95.5173 36.5475 95.7164 37.7747 96.3861 38.4697C97.0558 39.1648 100.368 42.9658 101.092 43.3169C101.816 43.668 104.317 43.23 104.926 43.3169C105.534 43.4038 111.985 33.9121 111.985 33.9121Z" fill="#FFBE9D"/>
<path d="M103.811 29.0903C103.633 28.7369 103.378 28.4278 103.065 28.1853C102.721 27.9353 102.327 27.7625 101.91 27.6785C101.396 27.5753 100.87 27.5364 100.346 27.5627C99.3866 27.5993 98.4392 27.7913 97.5409 28.131C96.8531 28.3953 96.4549 28.627 96.4368 28.598C96.5149 28.5224 96.604 28.4589 96.701 28.4098C96.9549 28.2585 97.2185 28.1243 97.4902 28.0079C98.3934 27.6252 99.3588 27.4105 100.339 27.3744C100.88 27.3471 101.421 27.3921 101.95 27.5084C102.387 27.6066 102.797 27.8021 103.148 28.0803C103.383 28.2698 103.576 28.5066 103.713 28.7754C103.77 28.871 103.804 28.979 103.811 29.0903Z" fill="#EB996E"/>
<path d="M104.256 26.3789C103.523 26.0297 102.753 25.7649 101.961 25.5898C101.157 25.481 100.343 25.4664 99.5355 25.5463C99.7563 25.4429 99.9945 25.3815 100.238 25.3653C100.822 25.288 101.414 25.3014 101.994 25.4052C102.573 25.5056 103.134 25.6961 103.655 25.9699C103.879 26.0678 104.083 26.2065 104.256 26.3789Z" fill="#EB996E"/>
<path d="M106.066 26.2414C105.591 25.6811 105.02 25.2103 104.379 24.8513C103.713 24.5449 102.997 24.3622 102.265 24.3119C102.478 24.2452 102.703 24.2267 102.924 24.2576C103.458 24.2973 103.98 24.4433 104.457 24.687C104.934 24.9306 105.358 25.2671 105.704 25.6766C105.865 25.836 105.988 26.0288 106.066 26.2414Z" fill="#EB996E"/>
<path d="M122.255 130.95C119.121 134.909 117.074 139.617 116.314 144.608C114.866 154.639 122.106 158.136 122.106 158.136L121.929 168.974H165.369C165.304 169.047 165.608 150.563 165.22 136.155C164.833 121.748 158.494 106.924 158.494 106.924C158.494 106.924 152.728 103.59 148.398 103.956C144.069 104.321 125.23 106.899 125.23 106.899L122.255 130.95Z" fill="#FF6BA6"/>
<path d="M125.23 106.899C125.23 106.899 117.99 107.945 111.279 118.483C104.339 129.375 101.722 133.553 101.722 133.553L120.908 146.795C120.908 146.795 131.804 130.367 133.165 126.845C134.526 123.323 136.068 106.566 125.23 106.899Z" fill="#FF6BA6"/>
<g opacity="0.2">
<path opacity="0.2" d="M116.126 148.659L121.686 150.129C121.686 150.129 132.492 135.804 132.908 127.724L121.053 146.118L119.185 144.905L116.126 148.659Z" fill="black"/>
</g>
<path d="M160.866 92.1326C160.866 92.1326 165.369 106.196 164.75 114.939C164.359 120.503 164.087 124.401 164.087 124.401L150.176 103.691L160.866 92.1326Z" fill="#FF6BA6"/>
<path d="M101.722 133.553C101.722 133.553 101.758 133.553 101.82 133.607L102.098 133.777L103.184 134.458L107.195 137.039L121.107 146.042L120.984 146.071L127.268 136.326C128.564 134.313 129.831 132.344 131.055 130.458L132.865 127.67C133.412 126.767 133.85 125.802 134.172 124.796C134.484 123.84 134.734 122.864 134.917 121.875C135.097 120.943 135.218 120.001 135.279 119.055C135.458 117.359 135.305 115.646 134.83 114.008C134.382 112.676 133.675 111.446 132.749 110.388C132.05 109.589 131.227 108.907 130.313 108.368C129.729 108.036 129.113 107.764 128.474 107.557L127.967 107.424L127.797 107.369C127.797 107.369 127.858 107.369 127.974 107.402L128.485 107.521C129.133 107.711 129.759 107.974 130.349 108.303C131.279 108.837 132.116 109.518 132.829 110.32C133.773 111.383 134.496 112.623 134.957 113.968C135.447 115.621 135.609 117.354 135.435 119.069C135.299 121.037 134.925 122.982 134.324 124.861C134.002 125.881 133.56 126.86 133.006 127.775L131.196 130.57L127.424 136.427L121.129 146.165L121.082 146.241L121.006 146.19L107.13 137.14L103.148 134.519L102.084 133.802L101.812 133.618C101.781 133.598 101.751 133.576 101.722 133.553Z" fill="#263238"/>
<path d="M163.541 120.112C163.553 120.147 163.561 120.183 163.566 120.22L163.617 120.539C163.66 120.832 163.718 121.241 163.794 121.759C163.95 122.823 164.156 124.361 164.359 126.269C164.562 128.177 164.79 130.45 164.992 132.981C165.195 135.511 165.354 138.295 165.47 141.22C165.702 147.073 165.691 152.38 165.622 156.214C165.59 158.132 165.546 159.685 165.503 160.757C165.481 161.285 165.467 161.698 165.452 161.991L165.434 162.314C165.439 162.35 165.439 162.386 165.434 162.422C165.428 162.386 165.428 162.35 165.434 162.314V161.991C165.434 161.695 165.434 161.267 165.434 160.757C165.434 159.671 165.47 158.122 165.492 156.214C165.528 152.377 165.517 147.077 165.286 141.227C165.17 138.306 165.003 135.522 164.822 132.995C164.641 130.468 164.431 128.191 164.229 126.284C164.026 124.376 163.866 122.834 163.725 121.77C163.664 121.248 163.617 120.836 163.584 120.542C163.584 120.412 163.559 120.307 163.552 120.224C163.544 120.187 163.54 120.149 163.541 120.112Z" fill="#263238"/>
<path d="M162.263 118.262C162.263 118.262 162.23 118.211 162.183 118.11C162.136 118.008 162.071 117.838 161.995 117.661C161.919 117.483 161.818 117.223 161.691 116.937C161.564 116.651 161.43 116.347 161.249 116.014C161.068 115.681 160.887 115.308 160.663 114.928C160.438 114.548 160.185 114.142 159.917 113.722C158.717 111.914 157.253 110.296 155.573 108.922C155.178 108.614 154.809 108.314 154.44 108.064C154.071 107.814 153.734 107.576 153.416 107.373C153.097 107.17 152.797 107.011 152.54 106.848C152.282 106.685 152.051 106.573 151.863 106.486L151.432 106.254C151.38 106.23 151.331 106.2 151.287 106.164C151.287 106.164 151.345 106.164 151.446 106.222L151.895 106.421C152.091 106.508 152.326 106.62 152.59 106.765C152.854 106.909 153.162 107.065 153.484 107.271C153.806 107.478 154.165 107.684 154.531 107.945C154.896 108.205 155.28 108.491 155.682 108.799C156.533 109.486 157.332 110.237 158.071 111.043C158.801 111.858 159.472 112.724 160.076 113.635C160.341 114.063 160.601 114.464 160.8 114.863C160.999 115.261 161.209 115.626 161.372 115.97C161.535 116.314 161.669 116.629 161.789 116.908C161.908 117.187 161.999 117.433 162.067 117.632L162.223 118.099C162.241 118.152 162.255 118.206 162.263 118.262Z" fill="#263238"/>
<path d="M127.399 135.75C127.399 135.75 127.37 135.652 127.283 135.489C127.151 135.251 126.963 135.049 126.736 134.899C126.372 134.67 125.966 134.516 125.542 134.447C125.046 134.345 124.456 134.364 123.822 134.295C123.482 134.262 123.146 134.189 122.823 134.078C122.465 133.952 122.147 133.732 121.904 133.44C121.653 133.121 121.493 132.739 121.44 132.336C121.387 131.917 121.396 131.493 121.469 131.077C121.607 130.226 121.965 129.397 122.081 128.496C122.149 128.043 122.113 127.581 121.976 127.145C121.82 126.702 121.561 126.302 121.219 125.98C120.529 125.341 119.663 124.923 118.732 124.781C117.86 124.651 116.979 124.59 116.097 124.597C115.288 124.602 114.481 124.53 113.686 124.383C112.986 124.257 112.32 123.984 111.731 123.583C111.256 123.24 110.881 122.777 110.645 122.24C110.459 121.837 110.371 121.395 110.388 120.951C110.401 120.672 110.469 120.398 110.587 120.144C110.619 120.079 110.656 120.016 110.696 119.956C110.721 119.916 110.736 119.894 110.739 119.898C110.568 120.223 110.472 120.584 110.461 120.951C110.457 121.382 110.553 121.808 110.739 122.197C110.982 122.711 111.357 123.152 111.825 123.475C112.404 123.855 113.055 124.112 113.737 124.231C114.523 124.368 115.321 124.432 116.119 124.423C117.01 124.411 117.901 124.47 118.783 124.6C119.75 124.747 120.652 125.179 121.371 125.842C121.733 126.188 122.007 126.615 122.171 127.087C122.321 127.555 122.359 128.051 122.28 128.535C122.157 129.473 121.791 130.302 121.657 131.124C121.523 131.945 121.578 132.789 122.045 133.361C122.512 133.933 123.239 134.103 123.855 134.179C124.47 134.255 125.071 134.251 125.578 134.364C126.014 134.442 126.429 134.61 126.798 134.856C127.028 135.017 127.213 135.235 127.334 135.489C127.369 135.572 127.391 135.66 127.399 135.75Z" fill="white"/>
<path d="M164.239 133.263C164.239 133.263 164.239 133.299 164.221 133.372C164.203 133.444 164.185 133.545 164.152 133.683C164.046 134.081 163.9 134.468 163.718 134.838C163.424 135.423 163.047 135.963 162.599 136.441C162.002 137.075 161.285 137.583 160.489 137.936C159.518 138.361 158.457 138.536 157.401 138.447C156.186 138.353 155.02 137.927 154.031 137.216C152.988 136.459 152.196 135.359 151.11 134.541C150.836 134.339 150.543 134.165 150.234 134.023C150.077 133.954 149.915 133.899 149.748 133.857L149.502 133.784L149.245 133.748C148.542 133.66 147.827 133.734 147.157 133.965C145.781 134.411 144.575 135.192 143.37 135.851C142.217 136.523 140.961 137 139.652 137.263C137.155 137.777 134.707 137.187 133.223 135.942C132.009 135.001 131.187 133.642 130.917 132.13C130.879 131.89 130.858 131.648 130.856 131.406C130.856 131.2 130.856 131.022 130.881 130.881C130.906 130.74 130.917 130.646 130.932 130.566C130.934 130.529 130.942 130.493 130.953 130.458C130.886 131.005 130.899 131.56 130.99 132.105C131.28 133.588 132.103 134.914 133.303 135.833C134.769 137.039 137.162 137.603 139.62 137.089C140.908 136.825 142.145 136.35 143.28 135.685C144.481 135.03 145.69 134.237 147.102 133.781C147.8 133.542 148.543 133.466 149.274 133.56L149.542 133.6L149.806 133.672C149.979 133.719 150.149 133.778 150.313 133.849C150.634 133.997 150.939 134.178 151.222 134.389C152.337 135.236 153.126 136.336 154.14 137.071C155.1 137.77 156.235 138.191 157.419 138.288C158.45 138.379 159.488 138.216 160.442 137.813C161.225 137.471 161.933 136.979 162.527 136.365C163.265 135.606 163.811 134.681 164.12 133.668L164.207 133.361C164.212 133.327 164.223 133.294 164.239 133.263Z" fill="white"/>
<path d="M163.624 106.79C163.58 106.309 163.47 105.837 163.298 105.385C163.097 104.905 162.812 104.465 162.455 104.086C162.024 103.616 161.491 103.251 160.898 103.018C159.628 102.442 158.342 103.065 157.423 102.736C157.063 102.633 156.754 102.399 156.558 102.08C156.509 101.993 156.475 101.897 156.46 101.798C156.455 101.763 156.455 101.728 156.46 101.693C156.506 101.818 156.562 101.939 156.627 102.055C156.83 102.338 157.128 102.54 157.466 102.623C157.978 102.72 158.504 102.72 159.016 102.623C159.164 102.605 159.32 102.594 159.479 102.587C159.638 102.58 159.805 102.587 159.971 102.587C160.314 102.624 160.651 102.708 160.971 102.837C161.589 103.079 162.142 103.464 162.585 103.959C162.949 104.359 163.234 104.825 163.425 105.331C163.554 105.67 163.629 106.026 163.649 106.388C163.661 106.523 163.652 106.658 163.624 106.79Z" fill="white"/>
<path d="M164.992 159.642C164.976 159.68 164.955 159.717 164.931 159.751C164.88 159.827 164.819 159.932 164.735 160.058C164.484 160.455 164.195 160.827 163.874 161.17C162.672 162.429 161.157 163.345 159.483 163.823C158.331 164.158 157.129 164.288 155.931 164.207C154.557 164.108 153.224 163.689 152.04 162.983C150.787 162.259 149.644 161.242 148.355 160.362C147.702 159.902 146.994 159.527 146.248 159.244C145.49 158.958 144.674 158.858 143.87 158.954C143.065 159.065 142.287 159.321 141.575 159.711C140.88 160.092 140.21 160.518 139.569 160.985C138.295 161.89 137.06 162.795 135.692 163.331C134.41 163.832 133.047 164.091 131.67 164.095C130.473 164.1 129.281 163.929 128.133 163.588C127.191 163.296 126.285 162.894 125.437 162.39C125.075 162.158 124.738 161.926 124.437 161.709C124.137 161.492 123.884 161.26 123.663 161.047L123.091 160.471C122.932 160.297 122.816 160.134 122.729 160.011L122.504 159.722C122.454 159.656 122.428 159.624 122.432 159.62C122.464 159.648 122.493 159.678 122.519 159.711L122.758 159.986C122.863 160.105 122.986 160.265 123.145 160.431C123.304 160.598 123.507 160.793 123.724 160.996C123.942 161.199 124.22 161.401 124.506 161.637C124.792 161.872 125.14 162.075 125.505 162.299C126.351 162.787 127.25 163.177 128.184 163.461C129.321 163.788 130.499 163.949 131.681 163.939C133.038 163.93 134.382 163.669 135.645 163.172C136.981 162.654 138.201 161.742 139.475 160.833C140.123 160.362 140.8 159.931 141.502 159.544C142.236 159.145 143.035 158.881 143.862 158.766C144.695 158.668 145.539 158.771 146.324 159.066C147.075 159.358 147.788 159.741 148.445 160.207C149.741 161.101 150.882 162.104 152.116 162.835C153.281 163.531 154.592 163.946 155.946 164.044C157.125 164.128 158.31 164.005 159.446 163.682C161.104 163.218 162.611 162.33 163.819 161.104C164.143 160.768 164.439 160.404 164.703 160.018C164.793 159.895 164.862 159.798 164.913 159.722C164.937 159.693 164.964 159.667 164.992 159.642Z" fill="white"/>
<path d="M160.424 85.6963C159.519 81.088 157.615 76.744 156.167 72.2588C154.476 67.0496 153.166 61.2757 148.963 57.7788C146.19 55.4584 142.548 54.5027 139.008 53.7968C135.797 53.1452 132.474 52.6384 129.267 53.3045C127.666 53.6375 126.135 54.2566 124.561 54.6403C122.718 55.0855 120.774 55.2231 119.051 56.0159C115.489 57.6557 113.668 61.7246 113.136 65.6089C112.604 69.4931 113.042 73.4607 112.484 77.3449C112.176 79.2015 111.77 81.0406 111.268 82.8546C109.624 86.3985 107.825 89.9425 108.082 93.7399C108.271 96.4875 109.53 99.0323 110.138 101.704C110.747 104.375 110.5 107.615 108.328 109.306C108.875 109.812 109.553 110.153 110.285 110.29C111.017 110.428 111.773 110.355 112.466 110.082C113.158 109.808 113.76 109.345 114.2 108.744C114.641 108.144 114.903 107.431 114.957 106.689C115.237 107.075 115.611 107.385 116.043 107.59C117.129 108.086 118.392 107.985 119.587 107.869C123.037 107.539 126.62 107.145 129.621 105.469L146.519 104.021C150.863 105.787 156.138 103.34 158.646 99.3581C161.155 95.3761 161.333 90.3118 160.424 85.6963Z" fill="#263238"/>
<path d="M126.161 56.8811C124.524 57.2105 122.801 56.9679 121.194 57.4204C118.87 58.0757 117.143 60.121 116.253 62.369C115.362 64.617 115.185 67.075 115.018 69.4823L114.562 75.9621C114.514 77.3541 114.319 78.7372 113.983 80.0889C113.559 81.5839 112.397 85.5551 112.321 87.499C112.075 93.8159 114.334 98.9491 117.15 102.142C118.642 103.829 125.581 103.872 127.79 104.314C128.763 103.463 131.192 103.47 132.166 102.62C132.333 102.475 125.107 96.9508 125.19 96.7481C125.288 96.398 125.253 96.0244 125.093 95.6983C120.831 83.0745 121.609 69.2924 127.265 57.2286" fill="#263238"/>
<path d="M145.716 106.341L148.25 66.6334C148.267 65.8007 147.972 64.9917 147.423 64.3658C146.873 63.7399 146.109 63.3426 145.281 63.2523L127.638 58.7526C121.987 58.1445 118.226 65.0949 117.864 70.7638C117.451 77.0662 117.197 84.7732 117.936 89.4756C119.417 98.931 126.66 100.151 126.66 100.151L127.286 106.841C127.286 106.841 131.826 106.214 135.218 105.849C142.715 105.042 145.716 106.341 145.716 106.341Z" fill="#FFBE9D"/>
<path d="M120.387 78.6119C120.383 78.9281 120.502 79.2333 120.72 79.4625C120.938 79.6917 121.236 79.8269 121.552 79.8391C121.706 79.8514 121.861 79.833 122.008 79.7848C122.154 79.7367 122.29 79.6598 122.406 79.5588C122.523 79.4577 122.618 79.3343 122.687 79.196C122.755 79.0577 122.795 78.9071 122.805 78.7531C122.808 78.4376 122.688 78.1333 122.47 77.9049C122.253 77.6764 121.954 77.5418 121.639 77.5296C121.485 77.5162 121.331 77.5338 121.184 77.5814C121.037 77.6289 120.901 77.7054 120.784 77.8063C120.668 77.9072 120.572 78.0305 120.504 78.1688C120.436 78.3072 120.396 78.4579 120.387 78.6119Z" fill="#263238"/>
<path d="M120.05 75.0498C120.202 75.2091 121.136 74.5322 122.425 74.5358C123.714 74.5394 124.684 75.1982 124.828 75.039C124.897 74.9666 124.745 74.677 124.329 74.3765C123.764 73.9858 123.093 73.7774 122.407 73.7792C121.728 73.7745 121.066 73.9876 120.517 74.3874C120.115 74.6951 119.978 74.9774 120.05 75.0498Z" fill="#263238"/>
<path d="M131.656 78.6119C131.653 78.9278 131.773 79.2325 131.99 79.4615C132.208 79.6905 132.506 79.8259 132.821 79.8391C132.975 79.8514 133.13 79.833 133.277 79.7848C133.423 79.7367 133.559 79.6598 133.675 79.5587C133.792 79.4576 133.887 79.3343 133.956 79.196C134.024 79.0577 134.064 78.9071 134.074 78.7531C134.077 78.4376 133.957 78.1333 133.739 77.9048C133.522 77.6764 133.224 77.5417 132.908 77.5295C132.755 77.5167 132.6 77.5347 132.453 77.5824C132.307 77.6301 132.171 77.7066 132.054 77.8074C131.938 77.9082 131.842 78.0313 131.774 78.1695C131.705 78.3076 131.665 78.458 131.656 78.6119Z" fill="#263238"/>
<path d="M132.876 75.0498C133.024 75.2091 133.962 74.5322 135.25 74.5358C136.539 74.5394 137.509 75.1983 137.651 75.039C137.719 74.9666 137.571 74.677 137.151 74.3765C136.587 73.9852 135.916 73.7767 135.229 73.7792C134.55 73.7758 133.888 73.9888 133.339 74.3874C132.937 74.6915 132.8 74.9774 132.876 75.0498Z" fill="#263238"/>
<path d="M128.119 84.708C128.119 84.632 127.315 84.4908 126.001 84.3207C125.668 84.2845 125.353 84.2193 125.295 83.9912C125.269 83.6467 125.347 83.3021 125.52 83.003L126.512 80.469C127.887 76.849 128.886 73.8915 128.738 73.8372C128.59 73.7829 127.359 76.6644 125.983 80.2735C125.654 81.164 125.335 82.0147 125.035 82.8075C124.908 83.1695 124.673 83.6148 124.857 84.1143C124.905 84.232 124.98 84.3371 125.074 84.4218C125.169 84.5065 125.282 84.5684 125.404 84.603C125.59 84.6619 125.782 84.6971 125.976 84.708C127.294 84.7804 128.112 84.7876 128.119 84.708Z" fill="#263238"/>
<path d="M126.642 100.151C126.642 100.151 133.542 100.574 139.851 96.8024C139.851 96.8024 136.38 103.995 126.921 103.09L126.642 100.151Z" fill="#EB996E"/>
<path d="M132.517 87.4701C132.309 87.2095 132.05 86.9934 131.757 86.8348C131.463 86.6763 131.141 86.5784 130.809 86.547C130.351 86.4943 129.887 86.5591 129.46 86.7351C129.034 86.9112 128.66 87.1927 128.372 87.5533L128.307 87.6004C128.252 87.6834 128.222 87.781 128.222 87.8809C128.222 87.9809 128.252 88.0785 128.307 88.1615C128.421 88.3362 128.567 88.4873 128.738 88.6068C129.296 89.1158 129.949 89.5084 130.66 89.7615C131.384 89.9679 132.228 89.8376 132.637 89.2656C132.804 88.9903 132.882 88.6702 132.86 88.349C132.839 88.0277 132.719 87.7209 132.517 87.4701Z" fill="#EB996E"/>
<path d="M131.956 85.6275C131.743 85.6275 131.739 87.0284 130.508 88.0311C129.277 89.0339 127.786 88.8746 127.775 89.0737C127.757 89.1606 128.112 89.3488 128.749 89.3669C129.578 89.3812 130.386 89.1017 131.029 88.5778C131.647 88.0748 132.045 87.352 132.141 86.5614C132.21 85.9678 132.054 85.6166 131.956 85.6275Z" fill="#263238"/>
<path d="M132.076 70.3873C132.206 70.7493 133.524 70.5755 135.037 70.7493C136.55 70.923 137.806 71.3574 138.009 71.0425C138.099 70.8905 137.886 70.5538 137.386 70.2099C136.725 69.7803 135.97 69.5147 135.185 69.4352C134.403 69.3362 133.608 69.4281 132.868 69.7031C132.304 69.942 132.021 70.228 132.076 70.3873Z" fill="#263238"/>
<path d="M120.032 70.8977C120.26 71.1945 121.161 70.8977 122.24 70.8977C123.319 70.8977 124.235 71.1004 124.448 70.7891C124.539 70.6407 124.398 70.3438 123.996 70.0651C123.46 69.7285 122.836 69.5585 122.203 69.5765C121.57 69.5945 120.957 69.7999 120.441 70.1665C120.057 70.4488 119.931 70.7529 120.032 70.8977Z" fill="#263238"/>
<path d="M124.984 58.1191C125.129 57.5729 125.474 57.1011 125.951 56.7978C128.796 54.5788 132.648 53.9018 136.217 54.4521C139.786 55.0023 143.095 56.6675 146.063 58.7237C148.644 60.5156 151.081 62.7057 152.391 65.5582C153.314 67.5746 153.626 69.8081 153.926 72.0091C154.672 77.4572 156.134 82.9161 156.098 88.4149C156.076 90.558 156.46 94.1599 156.098 96.8025C155.707 99.6224 152.97 103.061 150.194 103.68L143.935 104.307C143.935 104.307 147.323 92.6177 147.063 88.4041C146.831 84.7117 146.863 80.6645 146.447 76.9902C146.457 76.6568 146.356 76.3297 146.159 76.0603C145.962 75.7909 145.682 75.5946 145.361 75.5024L141.452 73.5041C140.188 72.8865 138.959 72.2001 137.77 71.448C136.449 70.5755 135.279 69.9312 134.078 68.914C132.387 67.466 130.82 66.3112 129.144 64.8632C127.968 63.7663 126.932 62.5286 126.059 61.178C125.292 60.016 124.861 58.5571 125.219 57.196" fill="#263238"/>
<path d="M145.984 79.5784C146.085 77.5657 148.275 76.2263 150.02 77.2327C150.976 77.7865 151.711 78.8979 151.62 81.0337C151.388 86.728 145.719 85.3198 145.716 85.1533C145.712 85.07 145.886 81.9351 145.984 79.5784Z" fill="#FFBE9D"/>
<path d="M147.544 83.0682C147.569 83.0501 147.642 83.1442 147.805 83.2274C148.037 83.3376 148.303 83.3532 148.547 83.2709C149.155 83.0754 149.701 82.1415 149.77 81.117C149.808 80.6241 149.733 80.1292 149.553 79.669C149.507 79.488 149.416 79.3212 149.29 79.1835C149.164 79.0458 149.005 78.9415 148.829 78.8798C148.717 78.8445 148.596 78.8497 148.487 78.8948C148.379 78.9398 148.289 79.0217 148.235 79.126C148.152 79.2817 148.181 79.3975 148.152 79.4047C148.123 79.412 148.033 79.307 148.091 79.0717C148.123 78.9258 148.208 78.7969 148.329 78.7097C148.491 78.5991 148.69 78.555 148.883 78.5866C149.115 78.6436 149.328 78.7586 149.503 78.9207C149.678 79.0828 149.808 79.2868 149.882 79.5133C150.104 80.0162 150.199 80.5653 150.161 81.1134C150.078 82.2609 149.437 83.3107 148.612 83.5134C148.457 83.55 148.296 83.5521 148.14 83.5196C147.984 83.487 147.838 83.4207 147.71 83.3252C147.548 83.2057 147.522 83.079 147.544 83.0682Z" fill="#EB996E"/>
<path d="M155.432 70.6153C155.367 70.6986 154.118 69.352 151.486 68.1936C149.941 67.5325 148.344 66.9998 146.711 66.6008C144.872 66.1084 142.816 65.6704 140.698 65.0116C137.071 63.8893 133.681 62.1075 130.7 59.7554C129.8 59.0472 128.946 58.2818 128.144 57.4639C127.833 57.1815 127.556 56.8631 127.319 56.5155C127.658 56.7618 127.976 57.0354 128.271 57.3336C128.868 57.873 129.755 58.6295 130.903 59.5056C133.903 61.7475 137.263 63.4614 140.84 64.5736C142.928 65.2215 144.981 65.6596 146.824 66.1953C148.472 66.6173 150.079 67.1893 151.624 67.904C152.662 68.3909 153.635 69.0063 154.52 69.7357C154.761 69.9342 154.99 70.1482 155.204 70.3764C155.37 70.5176 155.443 70.59 155.432 70.6153Z" fill="#455A64"/>
<path d="M147.164 86.3659C147.138 86.2537 147.117 86.1451 147.088 86.0329L147.164 86.3659Z" fill="#263238"/>
<path d="M147.164 86.3659C147.805 89.5877 145.977 93.1679 142.957 94.4892C141.216 95.2531 139.138 95.3617 137.723 96.6287C136.307 97.8957 135.982 99.8867 135.323 101.653C134.664 103.42 132.401 106.471 130.544 106.196C136.774 107.087 143.453 107.956 150.57 105.675L155.493 102.71L147.164 86.3659Z" fill="#263238"/>
<path d="M151.616 104.021C151.697 103.82 151.797 103.627 151.913 103.445L152.811 101.831C153.897 99.8473 154.818 97.7781 155.566 95.644C156.695 92.4891 157.182 89.1399 156.996 85.794C156.76 82.0654 155.417 77.9024 152.398 74.7602C149.379 71.6181 145.524 69.7827 142.121 68.1972C138.718 66.6116 135.511 65.2541 133.071 63.7084C131.105 62.5392 129.34 61.0615 127.844 59.3318C127.445 58.8597 127.082 58.3588 126.758 57.8331C126.633 57.6572 126.526 57.4692 126.439 57.272C126.483 57.2431 126.932 57.996 127.992 59.2123C129.523 60.8748 131.298 62.2944 133.256 63.4224C135.699 64.9175 138.834 66.2677 142.306 67.8062C145.777 69.3447 149.636 71.2162 152.742 74.4453C155.848 77.6743 157.22 81.9713 157.448 85.7723C157.615 89.1698 157.088 92.5656 155.899 95.7526C155.122 97.8875 154.153 99.9473 153.003 101.907C152.597 102.602 152.261 103.13 152.025 103.481C151.911 103.676 151.773 103.857 151.616 104.021Z" fill="#455A64"/>
<g clip-path="url(#clip0_1_35)">
<path d="M73.9306 47.4001C70.0523 46.6341 66.3199 47.0959 62.651 48.8003C61.8483 49.1722 60.5814 49.8812 59.766 50.4121C59.2281 50.7589 58.6649 51.1581 57.8573 51.7575C56.4766 52.7793 55.5962 53.2042 54.7048 53.2791C54.5261 53.2903 54.0035 53.2869 53.538 53.2655C52.2825 53.206 51.7481 53.2326 50.8959 53.3845C49.9954 53.5493 49.42 53.7569 48.7562 54.1549C47.6633 54.8145 46.8158 55.8979 46.1806 57.4591C45.7764 58.4509 45.3696 59.8296 45.3005 60.4645C45.1321 61.944 45.7108 63.3432 46.9426 64.4263L47.2297 64.6805L47.8612 64.8497C48.2101 64.9432 48.5051 65.0148 48.5183 65.0073C48.5315 64.9997 48.5493 64.9196 48.554 64.8322C48.5861 64.4052 48.7345 63.7399 48.8977 63.2705C49.2747 62.2123 49.6764 61.5226 50.3915 60.7101C51.0114 60.0013 51.6151 59.5207 52.4444 59.0636C53.8911 58.27 55.4501 57.9642 57.1171 58.1487C57.6905 58.2138 58.7895 58.5082 59.2977 58.733C61.4678 59.7058 62.9869 61.4049 63.6724 63.6337C64.1535 65.1876 64.0801 67.0248 63.4863 68.5011C63.3975 68.7209 63.3177 68.9211 63.3121 68.9417C63.3029 68.9762 64.1968 69.2268 67.6614 70.1551C70.0618 70.7983 72.0236 71.3203 72.0254 71.3134C72.0264 71.3099 72.049 71.1277 72.0765 70.9136C72.1353 70.4568 72.3341 69.6869 72.502 69.2556C73.2641 67.3187 74.7895 65.7709 76.7274 64.9722C79.4339 63.859 82.562 64.3686 84.796 66.2888C86.7869 67.9999 87.7647 70.547 87.4185 73.1233C87.3651 73.504 87.3102 73.7366 87.1534 74.252C87.0435 74.6065 86.93 74.96 86.8958 75.0321L86.8379 75.1642L87.0688 75.0563C87.1965 74.9982 87.4543 74.8458 87.6442 74.7232C89.1203 73.7639 90.1338 72.1306 90.4626 70.192C90.642 69.1178 90.5685 68.094 90.2427 67.1465C90.087 66.695 89.7183 66.0056 89.4745 65.7151C89.3238 65.5381 89.3205 65.5224 89.3677 65.4022C89.5536 64.9315 89.6186 63.7122 89.5343 62.2683C89.4848 61.406 89.4506 61.1569 89.2873 60.4265C88.9363 58.8337 88.2458 57.0982 87.1018 54.92C86.654 54.0654 86.2604 53.5944 85.3072 52.7557C83.155 50.8648 80.1243 49.2664 76.3878 48.0548C75.6269 47.8103 74.5557 47.5233 73.9306 47.4001ZM73.7524 50.4238C74.4141 50.8152 74.8899 51.4817 75.0314 52.2099C75.135 52.7582 75.1302 52.7901 74.7418 54.2956C74.3679 55.7607 74.0528 56.769 73.8549 57.1589C73.6083 57.6466 73.2565 57.9547 72.8986 58.0065L72.7082 58.033L67.2567 56.5649L61.8062 55.0933L61.6285 54.9608C61.4353 54.8168 61.1956 54.4831 61.1543 54.3022C61.1048 54.0822 61.1487 53.8208 61.2819 53.5611C61.5185 53.0966 62.0013 52.6206 62.8509 52.0176C65.6297 50.0488 67.8106 49.2784 70.0253 49.4842C70.7396 49.5538 70.984 49.6045 72.3045 49.9657C73.3599 50.2559 73.5909 50.3288 73.7524 50.4238ZM80.9861 52.7349C81.57 53.0538 82.4046 53.6097 82.7099 53.8798C83.2514 54.3571 83.8637 55.1561 84.215 55.8409C84.9899 57.3591 85.3702 59.1776 85.115 60.1576C85.029 60.4927 84.9357 60.6596 84.7542 60.8066C84.5692 60.9527 84.3994 61.0143 84.1244 61.0218C83.9089 61.0305 83.723 60.9844 80.6667 60.1655C77.4882 59.3138 77.4358 59.2998 77.3078 59.1916C77.1529 59.0578 77.0718 58.8441 77.0491 58.5242C77.033 58.2911 77.0487 58.2325 77.6605 55.8935C78.3311 53.3488 78.487 52.8368 78.7003 52.5433C78.8672 52.3111 79.0973 52.1919 79.3368 52.2192C79.4312 52.2297 79.5458 52.2346 79.5879 52.2311C79.6309 52.2241 79.8595 52.278 80.0984 52.3494C80.4367 52.4548 80.6282 52.5356 80.9861 52.7349Z" fill="#263238"/>
<path d="M57.2866 59.4419C54.7676 59.0179 52.2286 60.1059 50.8322 62.2051C50.4308 62.8101 50.281 63.1317 50.0561 63.8873C49.7239 65.0017 49.6791 65.8388 49.8847 66.9275C50.2385 68.7611 51.4484 70.4143 53.1036 71.3266C56.0908 72.9761 59.8195 72.0814 61.6722 69.2702C62.2873 68.3423 62.6427 67.2672 62.7088 66.1553C62.9049 62.9112 60.5428 59.9895 57.2866 59.4419ZM57.7949 63.1553C57.9269 63.2349 58.1513 63.4021 58.2931 63.5287C58.7981 63.9889 59.1033 64.5247 59.2334 65.1835C59.3257 65.6623 59.3279 65.9471 59.2324 66.4014C58.9222 67.8799 57.5074 68.9036 55.9676 68.7605C55.8286 68.7491 55.5502 68.6856 55.3087 68.6098C54.9461 68.4979 54.8469 68.4491 54.5676 68.2635C53.8597 67.7933 53.4297 67.165 53.2553 66.3504C53.1485 65.8418 53.1567 65.5044 53.2944 64.9765C53.4905 64.2169 53.8609 63.6996 54.5371 63.2274C55.0365 62.885 55.8509 62.6787 56.4945 62.733C56.8189 62.7645 57.5179 62.9888 57.7949 63.1553Z" fill="#263238"/>
<path d="M80.7756 65.7321C77.3766 65.1868 74.157 67.3217 73.4219 70.6096C72.651 74.0725 74.8442 77.499 78.3292 78.2814C79.6802 78.5844 81.0467 78.4669 82.3094 77.9414C82.7655 77.7462 83.5097 77.2996 83.902 76.9801C85.6995 75.5052 86.5425 73.1544 86.0934 70.867C85.6917 68.8213 84.2845 67.0673 82.3667 66.2138C81.9655 66.0361 81.173 65.7979 80.7756 65.7321ZM81.0004 69.303C81.9191 69.7264 82.578 70.5748 82.7493 71.5547C82.8379 72.0473 82.811 72.4129 82.6442 72.9515C82.5396 73.3 82.469 73.4657 82.3608 73.6323C82.0227 74.1546 81.5221 74.5852 80.9893 74.8153C80.6599 74.956 80.0936 75.0737 79.7486 75.0772C79.4116 75.0792 78.6987 74.9067 78.3857 74.749C77.2901 74.2044 76.617 73.0457 76.6897 71.8396C76.711 71.4392 76.9061 70.8086 77.1031 70.4922C77.7083 69.5173 78.7903 68.9545 79.9291 69.0307C80.2265 69.0514 80.7377 69.181 81.0004 69.303Z" fill="#263238"/>
</g>
<path d="M93.5454 82.7459C93.4814 82.9827 80.2939 79.6026 64.0836 75.2185C47.8733 70.8344 34.7698 67.1042 34.8338 66.8673C34.8979 66.6304 48.0854 70.0105 64.3057 74.3973C80.526 78.7841 93.601 82.5406 93.5454 82.7459Z" fill="#263238"/>
<defs>
<clipPath id="clip0_1_35">
<rect width="46.2348" height="28.7406" fill="white" transform="translate(50.4387 41.0649) rotate(15)"/>
</clipPath>
</defs>
</svg>
