<svg width="265" height="60" viewBox="0 0 265 60" fill="none" xmlns="http://www.w3.org/2000/svg">
<path d="M107.052 37V24.4H111.768C112.836 24.4 113.754 24.574 114.522 24.922C115.29 25.258 115.878 25.75 116.286 26.398C116.706 27.034 116.916 27.808 116.916 28.72C116.916 29.608 116.706 30.376 116.286 31.024C115.878 31.66 115.29 32.152 114.522 32.5C113.754 32.836 112.836 33.004 111.768 33.004H107.79L108.384 32.392V37H107.052ZM115.656 37L112.416 32.428H113.856L117.114 37H115.656ZM108.384 32.5L107.79 31.87H111.732C112.992 31.87 113.946 31.594 114.594 31.042C115.254 30.49 115.584 29.716 115.584 28.72C115.584 27.712 115.254 26.932 114.594 26.38C113.946 25.828 112.992 25.552 111.732 25.552H107.79L108.384 24.922V32.5ZM125.136 37.108C123.528 37.108 122.262 36.646 121.338 35.722C120.414 34.798 119.952 33.43 119.952 31.618V24.4H121.284V31.564C121.284 33.052 121.62 34.15 122.292 34.858C122.964 35.566 123.912 35.92 125.136 35.92C126.372 35.92 127.326 35.566 127.998 34.858C128.67 34.15 129.006 33.052 129.006 31.564V24.4H130.302V31.618C130.302 33.43 129.84 34.798 128.916 35.722C128.004 36.646 126.744 37.108 125.136 37.108ZM137.79 37.108C136.854 37.108 135.954 36.958 135.09 36.658C134.238 36.346 133.578 35.95 133.11 35.47L133.632 34.444C134.076 34.876 134.67 35.242 135.414 35.542C136.17 35.83 136.962 35.974 137.79 35.974C138.582 35.974 139.224 35.878 139.716 35.686C140.22 35.482 140.586 35.212 140.814 34.876C141.054 34.54 141.174 34.168 141.174 33.76C141.174 33.268 141.03 32.872 140.742 32.572C140.466 32.272 140.1 32.038 139.644 31.87C139.188 31.69 138.684 31.534 138.132 31.402C137.58 31.27 137.028 31.132 136.476 30.988C135.924 30.832 135.414 30.628 134.946 30.376C134.49 30.124 134.118 29.794 133.83 29.386C133.554 28.966 133.416 28.42 133.416 27.748C133.416 27.124 133.578 26.554 133.902 26.038C134.238 25.51 134.748 25.09 135.432 24.778C136.116 24.454 136.992 24.292 138.06 24.292C138.768 24.292 139.47 24.394 140.166 24.598C140.862 24.79 141.462 25.06 141.966 25.408L141.516 26.47C140.976 26.11 140.4 25.846 139.788 25.678C139.188 25.51 138.606 25.426 138.042 25.426C137.286 25.426 136.662 25.528 136.17 25.732C135.678 25.936 135.312 26.212 135.072 26.56C134.844 26.896 134.73 27.28 134.73 27.712C134.73 28.204 134.868 28.6 135.144 28.9C135.432 29.2 135.804 29.434 136.26 29.602C136.728 29.77 137.238 29.92 137.79 30.052C138.342 30.184 138.888 30.328 139.428 30.484C139.98 30.64 140.484 30.844 140.94 31.096C141.408 31.336 141.78 31.66 142.056 32.068C142.344 32.476 142.488 33.01 142.488 33.67C142.488 34.282 142.32 34.852 141.984 35.38C141.648 35.896 141.132 36.316 140.436 36.64C139.752 36.952 138.87 37.108 137.79 37.108ZM144.734 32.68V31.564H149.45V32.68H144.734ZM153.731 33.868L153.677 32.248L161.309 24.4H162.839L157.277 30.232L156.521 31.042L153.731 33.868ZM152.579 37V24.4H153.911V37H152.579ZM161.633 37L156.197 30.736L157.097 29.764L163.217 37H161.633ZM170.427 37.108C169.479 37.108 168.597 36.952 167.781 36.64C166.977 36.316 166.275 35.866 165.675 35.29C165.087 34.702 164.625 34.024 164.289 33.256C163.965 32.476 163.803 31.624 163.803 30.7C163.803 29.776 163.965 28.93 164.289 28.162C164.625 27.382 165.087 26.704 165.675 26.128C166.275 25.54 166.977 25.09 167.781 24.778C168.585 24.454 169.467 24.292 170.427 24.292C171.375 24.292 172.251 24.454 173.055 24.778C173.859 25.09 174.555 25.534 175.143 26.11C175.743 26.686 176.205 27.364 176.529 28.144C176.865 28.924 177.033 29.776 177.033 30.7C177.033 31.624 176.865 32.476 176.529 33.256C176.205 34.036 175.743 34.714 175.143 35.29C174.555 35.866 173.859 36.316 173.055 36.64C172.251 36.952 171.375 37.108 170.427 37.108ZM170.427 35.92C171.183 35.92 171.879 35.794 172.515 35.542C173.163 35.278 173.721 34.912 174.189 34.444C174.669 33.964 175.041 33.412 175.305 32.788C175.569 32.152 175.701 31.456 175.701 30.7C175.701 29.944 175.569 29.254 175.305 28.63C175.041 27.994 174.669 27.442 174.189 26.974C173.721 26.494 173.163 26.128 172.515 25.876C171.879 25.612 171.183 25.48 170.427 25.48C169.671 25.48 168.969 25.612 168.321 25.876C167.673 26.128 167.109 26.494 166.629 26.974C166.161 27.442 165.789 27.994 165.513 28.63C165.249 29.254 165.117 29.944 165.117 30.7C165.117 31.444 165.249 32.134 165.513 32.77C165.789 33.406 166.161 33.964 166.629 34.444C167.109 34.912 167.673 35.278 168.321 35.542C168.969 35.794 169.671 35.92 170.427 35.92ZM180.019 37V24.4H184.735C185.803 24.4 186.721 24.574 187.489 24.922C188.257 25.258 188.845 25.75 189.253 26.398C189.673 27.034 189.883 27.808 189.883 28.72C189.883 29.608 189.673 30.376 189.253 31.024C188.845 31.66 188.257 32.152 187.489 32.5C186.721 32.836 185.803 33.004 184.735 33.004H180.757L181.351 32.392V37H180.019ZM188.623 37L185.383 32.428H186.823L190.081 37H188.623ZM181.351 32.5L180.757 31.87H184.699C185.959 31.87 186.913 31.594 187.561 31.042C188.221 30.49 188.551 29.716 188.551 28.72C188.551 27.712 188.221 26.932 187.561 26.38C186.913 25.828 185.959 25.552 184.699 25.552H180.757L181.351 24.922V32.5ZM194.215 30.034H200.875V31.168H194.215V30.034ZM194.359 35.848H201.937V37H193.027V24.4H201.667V25.552H194.359V35.848ZM203.052 37L208.812 24.4H210.126L215.886 37H214.482L209.19 25.174H209.73L204.438 37H203.052ZM205.32 33.634L205.716 32.554H213.042L213.438 33.634H205.32ZM107.052 59V46.4H112.182C113.526 46.4 114.702 46.67 115.71 47.21C116.73 47.738 117.522 48.476 118.086 49.424C118.65 50.372 118.932 51.464 118.932 52.7C118.932 53.936 118.65 55.028 118.086 55.976C117.522 56.924 116.73 57.668 115.71 58.208C114.702 58.736 113.526 59 112.182 59H107.052ZM108.384 57.848H112.11C113.226 57.848 114.192 57.632 115.008 57.2C115.836 56.756 116.478 56.15 116.934 55.382C117.39 54.602 117.618 53.708 117.618 52.7C117.618 51.68 117.39 50.786 116.934 50.018C116.478 49.25 115.836 48.65 115.008 48.218C114.192 47.774 113.226 47.552 112.11 47.552H108.384V57.848ZM121.923 59V46.4H126.639C127.707 46.4 128.625 46.574 129.393 46.922C130.161 47.258 130.749 47.75 131.157 48.398C131.577 49.034 131.787 49.808 131.787 50.72C131.787 51.608 131.577 52.376 131.157 53.024C130.749 53.66 130.161 54.152 129.393 54.5C128.625 54.836 127.707 55.004 126.639 55.004H122.661L123.255 54.392V59H121.923ZM130.527 59L127.287 54.428H128.727L131.985 59H130.527ZM123.255 54.5L122.661 53.87H126.603C127.863 53.87 128.817 53.594 129.465 53.042C130.125 52.49 130.455 51.716 130.455 50.72C130.455 49.712 130.125 48.932 129.465 48.38C128.817 47.828 127.863 47.552 126.603 47.552H122.661L123.255 46.922V54.5ZM134.931 59V46.4H136.263V59H134.931ZM143.804 59L138.224 46.4H139.664L144.884 58.262H144.092L149.348 46.4H150.698L145.118 59H143.804ZM152.527 59V46.4H153.859V59H152.527ZM157.958 59V46.4H159.056L167.75 57.344H167.174V46.4H168.488V59H167.39L158.714 48.056H159.29V59H157.958ZM178.127 59.108C177.167 59.108 176.279 58.952 175.463 58.64C174.659 58.316 173.957 57.866 173.357 57.29C172.769 56.714 172.307 56.036 171.971 55.256C171.647 54.476 171.485 53.624 171.485 52.7C171.485 51.776 171.647 50.924 171.971 50.144C172.307 49.364 172.775 48.686 173.375 48.11C173.975 47.534 174.677 47.09 175.481 46.778C176.297 46.454 177.185 46.292 178.145 46.292C179.105 46.292 179.981 46.442 180.773 46.742C181.577 47.042 182.261 47.498 182.825 48.11L181.997 48.956C181.469 48.428 180.887 48.05 180.251 47.822C179.615 47.594 178.931 47.48 178.199 47.48C177.419 47.48 176.699 47.612 176.039 47.876C175.391 48.128 174.821 48.494 174.329 48.974C173.849 49.442 173.471 49.994 173.195 50.63C172.931 51.254 172.799 51.944 172.799 52.7C172.799 53.444 172.931 54.134 173.195 54.77C173.471 55.406 173.849 55.964 174.329 56.444C174.821 56.912 175.391 57.278 176.039 57.542C176.699 57.794 177.413 57.92 178.181 57.92C178.901 57.92 179.579 57.812 180.215 57.596C180.863 57.38 181.457 57.014 181.997 56.498L182.753 57.506C182.153 58.034 181.451 58.436 180.647 58.712C179.843 58.976 179.003 59.108 178.127 59.108ZM181.475 57.344V52.7H182.753V57.506L181.475 57.344ZM196.706 59.108C195.758 59.108 194.882 58.952 194.078 58.64C193.274 58.316 192.578 57.866 191.99 57.29C191.402 56.714 190.94 56.036 190.604 55.256C190.28 54.476 190.118 53.624 190.118 52.7C190.118 51.776 190.28 50.924 190.604 50.144C190.94 49.364 191.402 48.686 191.99 48.11C192.59 47.534 193.292 47.09 194.096 46.778C194.9 46.454 195.776 46.292 196.724 46.292C197.636 46.292 198.494 46.448 199.298 46.76C200.102 47.06 200.78 47.516 201.332 48.128L200.486 48.974C199.97 48.446 199.4 48.068 198.776 47.84C198.152 47.6 197.48 47.48 196.76 47.48C196.004 47.48 195.302 47.612 194.654 47.876C194.006 48.128 193.442 48.494 192.962 48.974C192.482 49.442 192.104 49.994 191.828 50.63C191.564 51.254 191.432 51.944 191.432 52.7C191.432 53.456 191.564 54.152 191.828 54.788C192.104 55.412 192.482 55.964 192.962 56.444C193.442 56.912 194.006 57.278 194.654 57.542C195.302 57.794 196.004 57.92 196.76 57.92C197.48 57.92 198.152 57.8 198.776 57.56C199.4 57.32 199.97 56.936 200.486 56.408L201.332 57.254C200.78 57.866 200.102 58.328 199.298 58.64C198.494 58.952 197.63 59.108 196.706 59.108ZM205.359 52.034H212.019V53.168H205.359V52.034ZM205.503 57.848H213.081V59H204.171V46.4H212.811V47.552H205.503V57.848ZM216.212 59V46.4H217.31L226.004 57.344H225.428V46.4H226.742V59H225.644L216.968 48.056H217.544V59H216.212ZM233.303 59V47.552H228.875V46.4H239.063V47.552H234.635V59H233.303ZM242.379 52.034H249.039V53.168H242.379V52.034ZM242.523 57.848H250.101V59H241.191V46.4H249.831V47.552H242.523V57.848ZM253.232 59V46.4H257.948C259.016 46.4 259.934 46.574 260.702 46.922C261.47 47.258 262.058 47.75 262.466 48.398C262.886 49.034 263.096 49.808 263.096 50.72C263.096 51.608 262.886 52.376 262.466 53.024C262.058 53.66 261.47 54.152 260.702 54.5C259.934 54.836 259.016 55.004 257.948 55.004H253.97L254.564 54.392V59H253.232ZM261.836 59L258.596 54.428H260.036L263.294 59H261.836ZM254.564 54.5L253.97 53.87H257.912C259.172 53.87 260.126 53.594 260.774 53.042C261.434 52.49 261.764 51.716 261.764 50.72C261.764 49.712 261.434 48.932 260.774 48.38C260.126 47.828 259.172 47.552 257.912 47.552H253.97L254.564 46.922V54.5Z" fill="black"/>
<path d="M106.871 0.20569C121.909 0.358368 124.698 3.67346 146.074 15.372C147.95 16.371 149.022 16.6582 151 16.8761C148.67 16.9835 146.032 16.813 144.946 16.1658C122.777 2.94806 117.49 1.09717 106.871 1.16664C84.9102 1.16664 76.3997 1.0971 64.5364 3.00498L93.7611 3.33922C85.3866 15.0325 80.9023 18.6726 79.6498 18.9651C79.2342 18.1752 78.6394 17.9163 76.8108 17.837C64.7 17.3827 57.541 17.2823 44.3296 17.2939C61.0914 16.4914 71.5301 15.8803 79.6498 16.4165C82.3218 14.5782 89.7532 6.05495 89.5444 4.96866C78.2136 4.8661 71.8668 4.79242 60.612 4.42551C53.8068 7.72616 45.8653 12.7631 42.0751 15.8733C45.8656 12.3692 47.7916 10.6664 51.6775 8.22753C45.7491 10.7344 44.9489 11.5135 35.9379 17.837C18.5645 20.6345 10.8857 22.438 5.58597 26.6109C5.01983 27.7588 5.02886 28.8948 5.12672 30.9143C5.23665 33.0843 5.29146 34.2793 4.58398 34.2149C4.18101 34.1542 3.96479 34.0839 3.66549 33.6718C4.25898 31.6288 4.14926 31.0484 3.24799 30.9143C1.64402 32.896 1.84294 34.9516 2.18991 38.5372L2.20425 38.6854C7.1307 41.443 6.17046 43.532 4.58398 46.5819C3.65785 46.51 3.31422 46.2326 3.08099 45.245C4.38385 45.6759 4.37523 42.2095 3.08099 41.9443C1.86329 41.6948 1.90036 43.7579 2.3295 48.5456C22.8576 50.0933 34.8559 50.3244 56.6875 50.1751C56.9992 38.2087 59.276 32.3348 65.9977 29.7444C71.2218 28.1513 76.0948 29.9841 78.4808 36.2204C79.5096 40.0082 79.5663 46.7073 78.4808 51.3449L103.865 50.9271L77.4788 52.2223C78.2098 43.0705 78.4808 41.8147 77.2845 37.034C76.2491 33.7514 71.9484 29.4648 66.8326 30.7472C59.6977 33.0432 58.729 39.1396 58.0235 51.6374C43.0354 52.2641 13.7689 51.6374 0.701326 50.384C-0.342407 44.66 -0.384096 32.2095 1.70332 27.0705C9.49533 20.6023 17.7171 18.629 35.2283 16.3329C45.6283 9.70618 50.9874 5.23675 60.612 1.58444C76.1703 -0.359343 78.0634 -0.0867798 106.871 0.20569Z" fill="black"/>
<path d="M134.885 16.9179L88.8764 17.5028L139.101 18.9651C122.318 -1.25662 97.3934 -4.26482 87.0812 15.4555C99.2303 -1.38197 119.27 0.874176 134.885 16.9179Z" fill="black"/>
<path d="M37.6497 28.0314C31.7666 25.9589 14.9379 25.9424 10.5124 28.0314C13.9776 27.2794 28.2969 26.6666 35.2283 29.1595L30.6357 37.8081L17.1089 40.0224C16.0626 40.3044 15.8702 40.27 14.9379 39.9389L6.92196 37.3067L6.29571 32.0424L6.00346 38.1005L13.9776 41.1923C15.2178 41.6659 15.9628 41.7363 17.4846 41.5265L32.3475 39.3957L37.6497 28.0314Z" fill="black"/>
<path d="M58.6497 25.2739C50.3588 26.4563 46.7789 27.7027 43.7451 31.7499C44.7179 26.8262 48.9638 24.9815 61.6557 22.5164C66.8326 22.1822 67.4291 24.3864 64.3277 25.2739C58.2174 27.528 54.9498 28.8089 55.2263 31.7499C55.3921 32.9076 55.0229 33.0491 54.0155 32.9198C52.9718 41.443 52.1785 45.5374 49.2143 47.1669L36.3137 46.8744L34.268 46.0806L48.3376 45.8717C50.8581 43.0987 51.4575 40.4639 52.1785 35.3012C52.3455 34.3403 51.093 34.2567 51.093 35.1759L50.5503 37.8081C49.8548 40.4587 48.4221 40.8349 45.4151 41.0252L35.6457 42.8217L32.3475 44.9943L35.2283 41.9443L44.6219 39.73L44.6695 39.7256C47.0403 39.5071 48.3835 39.3834 48.7551 37.5574L49.5066 33.3793L45.6656 33.1287L53.6398 31.4992C53.8286 28.7621 54.8457 27.3843 58.6497 25.2739Z" fill="black"/>
<path d="M74.7651 45.0779C75.3913 33.5882 67.4589 28.6581 62.0732 36.7635C65.9977 28.2403 76.8526 29.7444 77.1031 45.0779C77.1031 58.1551 64.5364 63.8373 61.1964 52.2223C64.7452 60.9126 74.4311 58.364 74.7651 45.0779Z" fill="black"/>
</svg>
