<svg width="350" height="312" viewBox="0 0 350 312" fill="none" xmlns="http://www.w3.org/2000/svg">
<g clip-path="url(#clip0_1_1393)">
<path d="M95.4169 71.459C89.0565 71.459 82.9566 68.9323 78.4591 64.4348C73.9616 59.9373 71.4349 53.8374 71.4349 47.477C71.4349 41.1166 73.9616 35.0166 78.4591 30.5191C82.9566 26.0216 89.0565 23.495 95.4169 23.495V23.495C101.777 23.495 107.877 26.0216 112.375 30.5191C116.872 35.0166 119.399 41.1166 119.399 47.477C119.399 53.8374 116.872 59.9373 112.375 64.4348C107.877 68.9323 101.777 71.459 95.4169 71.459Z" fill="#FF6BA6"/>
<path d="M89.502 42.136H84.539V58.173H89.502V42.136Z" fill="white"/>
<path d="M86.9959 40.036C87.5827 40.0415 88.1579 39.8726 88.6485 39.5506C89.1391 39.2287 89.523 38.7682 89.7514 38.2277C89.9798 37.6871 90.0425 37.0909 89.9314 36.5147C89.8203 35.9385 89.5406 35.4083 89.1276 34.9914C88.7146 34.5745 88.1871 34.2897 87.612 34.1731C87.0368 34.0566 86.4401 34.1136 85.8974 34.3368C85.3547 34.5601 84.8906 34.9396 84.564 35.4271C84.2374 35.9146 84.063 36.4882 84.0629 37.075C84.0611 37.856 84.3686 38.606 84.9182 39.1609C85.4679 39.7158 86.2149 40.0304 86.9959 40.036V40.036Z" fill="white"/>
<path d="M97.44 49.752C97.44 47.498 98.476 46.154 100.464 46.154C102.284 46.154 103.166 47.442 103.166 49.752V58.152H108.101V48.016C108.101 43.718 105.672 41.646 102.27 41.646C101.305 41.6335 100.353 41.8706 99.5072 42.3342C98.661 42.7978 97.9489 43.4722 97.44 44.292V42.136H92.673V58.166H97.44V49.752Z" fill="white"/>
<path d="M127.554 -0.277008L130.837 5.72199L136.843 9.01199L130.837 12.295L127.554 18.294L124.271 12.295L118.265 9.01199L124.271 5.72199L127.554 -0.277008Z" fill="#F5F5F5"/>
<path d="M264.509 162.389L266.973 166.897L271.474 169.354L266.973 171.818L264.509 176.326L262.045 171.818L257.544 169.354L262.045 166.897L264.509 162.389Z" fill="#EBEBEB"/>
<path d="M271.474 140.157L272.587 142.187L274.617 143.3L272.587 144.413L271.474 146.443L270.368 144.413L268.331 143.3L270.368 142.187L271.474 140.157Z" fill="#E0E0E0"/>
<path d="M104.097 1.97699L105.21 4.01399L107.24 5.11999L105.21 6.23299L104.097 8.26299L102.991 6.23299L100.954 5.11999L102.991 4.01399L104.097 1.97699Z" fill="#E0E0E0"/>
<path d="M48.391 190.732C49.6826 190.14 50.7726 189.183 51.5264 187.979C52.2803 186.775 52.665 185.376 52.633 183.956C52.633 179.945 49.518 176.725 45.759 176.753C42 176.781 38.983 180.064 39.018 184.075C39.0078 185.507 39.4228 186.91 40.2103 188.106C40.9978 189.303 42.1225 190.238 43.442 190.795C32.984 192.51 33.6 203.892 33.6 203.892L58.373 203.682C58.373 203.682 58.8 192.167 48.391 190.732Z" fill="#FF6BA6"/>
<path d="M286.048 265.758C285.873 264.86 285.385 264.054 284.671 263.482C283.957 262.911 283.063 262.612 282.148 262.639C281.234 262.666 280.359 263.017 279.679 263.629C279 264.241 278.56 265.075 278.439 265.982C278.312 265.077 277.867 264.246 277.185 263.638C276.502 263.03 275.626 262.685 274.712 262.663C273.798 262.641 272.906 262.944 272.195 263.519C271.484 264.094 271 264.902 270.83 265.8C270.647 267.127 270.983 268.474 271.768 269.559C272.545 270.629 273.458 271.594 274.484 272.429C275.884 273.668 277.151 274.823 278.537 276.055C279.937 274.809 281.078 273.64 282.45 272.394C283.471 271.55 284.377 270.576 285.145 269.496C285.911 268.411 286.234 267.074 286.048 265.758V265.758Z" fill="#EBEBEB"/>
<path d="M302.183 118.205L304.836 117.68L309.036 108.454L307.986 103.155C307.986 103.155 312.039 102.091 312.935 109.126C313.831 116.161 313.999 114.292 313.999 114.292C313.999 114.292 322.714 112.598 323.589 113.207C324.226 113.655 326.179 122.265 327.201 126.941C327.484 128.062 327.383 129.245 326.915 130.302C326.447 131.359 325.638 132.228 324.618 132.772C324.327 132.915 324.019 133.019 323.701 133.08C321.531 133.514 310.079 133.948 310.079 133.948L305.494 134.858L302.183 118.205Z" fill="#E0E0E0"/>
<path d="M294.294 118.254L299.523 136.09L304.073 135.187L300.545 117.4L294.294 118.254Z" fill="#E0E0E0"/>
<path d="M329.329 311.524C329.329 311.629 259.91 311.706 174.3 311.706C88.6901 311.706 19.2501 311.629 19.2501 311.524C19.2501 311.419 88.6551 311.342 174.3 311.342C259.945 311.342 329.329 311.426 329.329 311.524Z" fill="#263238"/>
<path d="M275.401 111.205C268.617 114.502 260.801 114.971 253.672 112.507C246.543 110.043 240.684 104.849 237.384 98.066V98.066C234.087 91.2821 233.618 83.4662 236.082 76.3371C238.546 69.208 243.74 63.3492 250.523 60.049V60.049C253.882 58.4153 257.53 57.4593 261.258 57.2354C264.987 57.0116 268.723 57.5244 272.253 58.7445C275.783 59.9645 279.038 61.868 281.833 64.3463C284.628 66.8245 286.907 69.829 288.54 73.188V73.188C290.174 76.5469 291.13 80.1948 291.354 83.9232C291.577 87.6516 291.065 91.3876 289.845 94.9179C288.624 98.4481 286.721 101.703 284.243 104.498C281.764 107.293 278.76 109.572 275.401 111.205V111.205Z" fill="#455A64"/>
<path d="M244.544 84.9598L251.671 87.6132L254.449 96.5384C254.57 97.1414 255.295 97.2621 255.778 96.9002L259.764 93.6437C260.126 93.2819 260.73 93.2819 261.214 93.6437L268.341 98.83C268.824 99.1918 269.549 98.9506 269.669 98.3476L274.984 73.0193C275.105 72.4163 274.501 71.8132 273.897 72.0545L244.544 83.3919C243.819 83.6331 243.819 84.7186 244.544 84.9598ZM254.087 86.2865L268.099 77.7232C268.341 77.6025 268.582 77.9644 268.341 78.085L256.865 88.8193C256.503 89.1812 256.14 89.6636 256.14 90.2667L255.778 93.1613C255.778 93.5231 255.174 93.6437 255.053 93.1613L253.603 87.8544C253.241 87.2514 253.483 86.5277 254.087 86.2865Z" fill="white"/>
<path d="M303.8 191.432C301.393 190.514 299.19 189.13 297.318 187.36C295.446 185.59 293.941 183.468 292.89 181.116C291.838 178.764 291.261 176.227 291.191 173.652C291.121 171.076 291.559 168.512 292.481 166.106V166.106C293.398 163.699 294.781 161.496 296.551 159.624C298.32 157.751 300.441 156.246 302.793 155.194C305.144 154.142 307.68 153.564 310.255 153.493C312.83 153.422 315.394 153.859 317.8 154.78V154.78C320.207 155.698 322.41 157.082 324.282 158.852C326.154 160.622 327.659 162.744 328.71 165.096C329.762 167.448 330.339 169.985 330.409 172.56C330.479 175.136 330.041 177.7 329.119 180.106V180.106C328.202 182.513 326.819 184.716 325.049 186.588C323.28 188.461 321.159 189.966 318.807 191.018C316.456 192.07 313.92 192.648 311.345 192.719C308.77 192.79 306.206 192.353 303.8 191.432V191.432Z" fill="#455A64"/>
<path fill-rule="evenodd" clip-rule="evenodd" d="M321.048 176.438C321.923 173.865 321.772 171.054 320.627 168.589C319.483 166.124 317.432 164.195 314.901 163.203C312.371 162.212 309.556 162.234 307.041 163.264C304.526 164.295 302.505 166.256 301.399 168.738C301.336 168.878 301.28 169.025 301.224 169.165C300.539 170.948 300.36 172.886 300.706 174.765L296.919 179.336L303.051 179.686C304.233 181.083 305.758 182.15 307.476 182.781C309.194 183.412 311.046 183.585 312.852 183.284C314.657 182.984 316.353 182.219 317.774 181.066C319.195 179.912 320.292 178.409 320.957 176.704C320.992 176.617 321.023 176.528 321.048 176.438V176.438ZM307.944 181.149C306.321 180.533 304.916 179.452 303.905 178.041L300.328 177.838L302.533 175.178C302.039 173.386 302.13 171.483 302.792 169.746C302.897 169.48 303.016 169.214 303.142 168.962C304.139 166.987 305.838 165.455 307.905 164.666C309.973 163.877 312.26 163.888 314.32 164.697C316.38 165.507 318.063 167.055 319.041 169.04C320.018 171.026 320.22 173.304 319.606 175.43C319.543 175.654 319.473 175.871 319.389 176.088C318.541 178.276 316.86 180.038 314.714 180.986C312.568 181.935 310.133 181.994 307.944 181.149V181.149Z" fill="white"/>
<path fill-rule="evenodd" clip-rule="evenodd" d="M314.86 176.62C314.657 176.41 313.698 175.374 313.502 175.22C313.306 175.066 313.166 174.954 312.914 175.136C312.662 175.318 311.983 175.675 311.787 175.78C311.591 175.885 311.437 175.85 311.241 175.64C310.635 175.085 310.13 174.429 309.75 173.701C309.41 173.016 309.174 172.285 309.05 171.531C309.008 171.237 309.176 171.153 309.344 171.083C309.512 171.013 309.694 170.894 309.869 170.803L310.002 170.719C310.094 170.648 310.18 170.571 310.261 170.488C310.32 170.436 310.365 170.369 310.391 170.294C310.417 170.219 310.423 170.139 310.408 170.061C310.408 169.921 310.359 168.549 310.338 167.996C310.317 167.443 310.086 167.443 309.946 167.387C309.806 167.331 309.652 167.247 309.491 167.191C309.367 167.146 309.236 167.128 309.104 167.136C308.973 167.145 308.845 167.18 308.728 167.24C308.358 167.395 308.024 167.625 307.747 167.915C307.47 168.206 307.255 168.55 307.118 168.927C307.016 169.204 306.953 169.494 306.929 169.788C306.889 170.461 306.967 171.137 307.16 171.783C307.223 171.986 307.818 175.08 309.904 176.984C311.99 178.888 312.123 178.566 312.585 178.692C312.952 178.764 313.329 178.754 313.692 178.665C314.055 178.575 314.394 178.408 314.685 178.174C314.983 177.879 315.185 177.501 315.266 177.089C315.189 176.956 315.056 176.83 314.86 176.62Z" fill="white"/>
<path d="M48.741 100.768C44.7736 100.768 40.9687 99.192 38.1634 96.3867C35.358 93.5813 33.782 89.7764 33.782 85.809V85.809C33.782 81.8417 35.358 78.0368 38.1634 75.2314C40.9687 72.4261 44.7736 70.85 48.741 70.85V70.85C50.7054 70.85 52.6506 71.237 54.4655 71.9887C56.2805 72.7405 57.9295 73.8424 59.3186 75.2314C60.7077 76.6205 61.8095 78.2696 62.5613 80.0845C63.3131 81.8994 63.7 83.8446 63.7 85.809V85.809C63.7 87.7735 63.3131 89.7187 62.5613 91.5336C61.8095 93.3485 60.7077 94.9976 59.3186 96.3867C57.9295 97.7757 56.2805 98.8776 54.4655 99.6294C52.6506 100.381 50.7054 100.768 48.741 100.768Z" fill="#455A64"/>
<path d="M40.775 90.8C42.2117 91.7165 43.8723 92.2211 45.576 92.2588C47.2796 92.2965 48.961 91.8659 50.4368 91.014C51.9126 90.162 53.1263 88.9213 53.9456 87.4271C54.7648 85.9328 55.1583 84.2424 55.083 82.54C55.7154 82.0808 56.2626 81.5147 56.7 80.867C56.1008 81.13 55.4665 81.3045 54.817 81.385C55.5016 80.9849 56.0187 80.351 56.273 79.6C55.6251 79.9854 54.9142 80.2531 54.173 80.391C53.6821 79.854 53.0264 79.4958 52.3092 79.3727C51.5921 79.2496 50.8545 79.3688 50.2126 79.7114C49.5707 80.054 49.0612 80.6005 48.7643 81.2648C48.4674 81.9291 48.4001 82.6733 48.573 83.38C47.2724 83.3131 46.0003 82.9738 44.8391 82.3842C43.6779 81.7945 42.6535 80.9676 41.832 79.957C41.4158 80.6781 41.2891 81.5304 41.4775 82.3413C41.666 83.1523 42.1555 83.8614 42.847 84.325C42.3268 84.3116 41.8176 84.1723 41.363 83.919C41.3543 84.6812 41.6118 85.4226 42.0909 86.0155C42.57 86.6084 43.2409 87.0156 43.988 87.167C43.5064 87.2982 43.0012 87.3173 42.511 87.223C42.7206 87.8715 43.1272 88.4386 43.6743 88.8451C44.2214 89.2516 44.8816 89.4774 45.563 89.491C44.1995 90.5363 42.4808 91.0062 40.775 90.8V90.8Z" fill="white"/>
<path d="M75.5999 268.327C68.9566 269.905 61.9586 268.78 56.1439 265.201C50.3291 261.622 46.1734 255.88 44.5899 249.238C43.8049 245.945 43.6765 242.53 44.2122 239.187C44.7479 235.845 45.9372 232.641 47.712 229.758C49.4868 226.876 51.8123 224.371 54.5556 222.388C57.2989 220.405 60.4063 218.982 63.6999 218.2V218.2C66.9909 217.416 70.4041 217.287 73.7446 217.822C77.0852 218.357 80.2877 219.545 83.1692 221.317C86.0508 223.09 88.5549 225.413 90.5387 228.153C92.5225 230.894 93.947 233.998 94.7309 237.289V237.289C95.5157 240.583 95.6431 244 95.1061 247.344C94.5691 250.687 93.378 253.892 91.6011 256.775C89.8242 259.658 87.4964 262.162 84.7507 264.144C82.005 266.126 78.8955 267.548 75.5999 268.327V268.327Z" fill="#FF6BA6"/>
<path d="M66.969 232.004C70.637 231.129 71.078 231.038 72.569 230.758C73.4415 230.562 74.3412 230.517 75.229 230.625C75.8788 230.703 76.5029 230.926 77.056 231.276C77.6141 231.615 78.0918 232.071 78.456 232.613C78.9514 233.358 79.316 234.182 79.534 235.049C79.947 236.484 80.066 236.918 80.934 240.586C81.802 244.254 81.893 244.695 82.173 246.186C82.3726 247.058 82.4177 247.958 82.306 248.846C82.2345 249.497 82.0116 250.123 81.655 250.673C81.3207 251.232 80.8665 251.711 80.325 252.073C79.5776 252.568 78.7515 252.933 77.882 253.151C76.482 253.564 76.02 253.683 72.352 254.551C68.684 255.419 68.243 255.517 66.752 255.797C65.8775 255.996 64.9749 256.041 64.085 255.93C63.4347 255.854 62.8101 255.631 62.258 255.279C61.7054 254.93 61.2407 254.458 60.9 253.9C60.4001 253.157 60.033 252.333 59.815 251.464C59.409 250.029 59.29 249.602 58.415 245.934C57.5399 242.266 57.449 241.825 57.169 240.334C56.9767 239.459 56.9318 238.557 57.036 237.667C57.122 237.02 57.3435 236.398 57.6861 235.842C58.0286 235.286 58.4845 234.808 59.024 234.44C59.7678 233.942 60.5918 233.574 61.46 233.355C62.86 232.949 63.329 232.83 66.997 231.955L66.969 232.004ZM66.409 229.477C62.678 230.366 62.209 230.492 60.76 230.912C59.6262 231.193 58.5489 231.667 57.575 232.312C56.7486 232.883 56.05 233.62 55.5234 234.476C54.9969 235.331 54.6538 236.287 54.5159 237.282C54.3689 238.449 54.421 239.632 54.6699 240.782C54.9569 242.259 55.048 242.735 55.937 246.466C56.826 250.197 56.952 250.666 57.337 252.108C57.617 253.242 58.0906 254.32 58.737 255.293C59.3066 256.15 60.0598 256.87 60.942 257.4C61.7909 257.934 62.7467 258.276 63.742 258.401C64.9089 258.549 66.0925 258.497 67.242 258.247C68.719 257.967 69.195 257.869 72.926 256.98C76.657 256.091 77.126 255.965 78.568 255.58C79.7001 255.294 80.7766 254.821 81.753 254.18C82.5879 253.617 83.2901 252.879 83.811 252.017C84.3424 251.166 84.6861 250.211 84.819 249.217C84.9639 248.05 84.9094 246.866 84.658 245.717C84.378 244.233 84.28 243.764 83.391 240.033C82.502 236.302 82.376 235.833 81.991 234.384C81.7034 233.252 81.2304 232.176 80.591 231.199C80.0276 230.366 79.2895 229.666 78.428 229.148C77.5804 228.61 76.6242 228.265 75.628 228.14C74.461 227.992 73.2774 228.044 72.128 228.294C70.644 228.581 70.175 228.672 66.444 229.561" fill="white"/>
<path d="M67.97 236.211C66.5749 236.544 65.3096 237.282 64.3342 238.334C63.3589 239.385 62.7172 240.702 62.4903 242.118C62.2634 243.534 62.4615 244.986 63.0595 246.29C63.6576 247.593 64.6287 248.69 65.8502 249.442C67.0716 250.193 68.4885 250.566 69.9217 250.512C71.3549 250.459 72.7401 249.982 73.902 249.141C75.064 248.3 75.9506 247.134 76.4497 245.789C76.9488 244.445 77.038 242.982 76.706 241.587C76.2591 239.717 75.0881 238.1 73.4502 237.092C71.8122 236.084 69.8413 235.767 67.97 236.211V236.211ZM70.77 247.852C69.8636 248.066 68.9141 248.007 68.0414 247.681C67.1688 247.356 66.4122 246.779 65.8672 246.024C65.3222 245.269 65.0133 244.369 64.9794 243.438C64.9456 242.507 65.1885 241.588 65.6772 240.795C66.166 240.002 66.8788 239.372 67.7255 238.984C68.5722 238.596 69.5149 238.468 70.4345 238.616C71.354 238.763 72.2092 239.18 72.8918 239.814C73.5745 240.447 74.0541 241.269 74.27 242.175C74.4136 242.778 74.437 243.403 74.3387 244.014C74.2405 244.626 74.0226 245.212 73.6975 245.739C73.3724 246.267 72.9465 246.725 72.4441 247.087C71.9418 247.45 71.3729 247.71 70.77 247.852" fill="white"/>
<path d="M76.8879 233.796C76.9645 234.122 76.9428 234.463 76.8255 234.777C76.7083 235.09 76.5009 235.362 76.2293 235.558C75.9578 235.753 75.6344 235.864 75.2999 235.876C74.9654 235.888 74.6348 235.801 74.3499 235.625C74.065 235.45 73.8384 235.194 73.6989 234.889C73.5594 234.585 73.5132 234.246 73.5661 233.916C73.6189 233.585 73.7685 233.278 73.9959 233.032C74.2234 232.787 74.5184 232.614 74.8439 232.536C75.0609 232.483 75.2863 232.474 75.5069 232.508C75.7276 232.543 75.9391 232.622 76.1293 232.739C76.3194 232.856 76.4844 233.01 76.6146 233.191C76.7449 233.373 76.8378 233.578 76.8879 233.796" fill="white"/>
<path d="M270.767 245.654C269.189 245.655 267.626 245.345 266.168 244.742C264.71 244.138 263.385 243.254 262.269 242.138C261.152 241.023 260.267 239.698 259.663 238.24C259.059 236.783 258.748 235.22 258.748 233.642C258.748 232.064 259.059 230.501 259.663 229.044C260.267 227.586 261.152 226.261 262.269 225.146C263.385 224.03 264.71 223.146 266.168 222.542C267.626 221.939 269.189 221.629 270.767 221.63V221.63C272.346 221.627 273.91 221.936 275.37 222.538C276.83 223.141 278.157 224.025 279.274 225.141C280.392 226.257 281.279 227.582 281.884 229.04C282.489 230.499 282.8 232.063 282.8 233.642C282.8 235.221 282.489 236.785 281.884 238.244C281.279 239.702 280.392 241.027 279.274 242.143C278.157 243.259 276.83 244.143 275.37 244.746C273.91 245.348 272.346 245.657 270.767 245.654V245.654Z" fill="#455A64"/>
<path d="M268.933 240.901H271.859V233.6H273.896L274.12 231.15H271.859V229.75C271.859 229.176 271.978 228.945 272.559 228.945H274.148V226.397H272.118C269.941 226.397 268.961 227.356 268.961 229.197V231.157H267.4V233.6H268.919L268.933 240.901Z" fill="white"/>
<path d="M229.789 312.035L133.266 312C127.696 312 122.355 309.788 118.417 305.849C114.478 301.911 112.266 296.57 112.266 291L112.308 49.024C112.308 46.2627 112.853 43.5285 113.911 40.9779C114.968 38.4274 116.519 36.1105 118.474 34.1599C120.428 32.2093 122.748 30.6633 125.301 29.6105C127.853 28.5576 130.589 28.0185 133.35 28.024L229.866 28.08C235.436 28.08 240.777 30.2925 244.715 34.2308C248.654 38.169 250.866 43.5105 250.866 49.08L250.824 291C250.829 293.764 250.288 296.501 249.232 299.055C248.177 301.609 246.627 303.93 244.673 305.884C242.719 307.839 240.398 309.388 237.844 310.443C235.29 311.499 232.553 312.04 229.789 312.035V312.035Z" fill="#263238"/>
<path d="M229.761 36.564H211.043C209.814 36.5934 208.647 37.1074 207.796 37.9938C206.945 38.8803 206.479 40.0673 206.5 41.296V44.691C206.514 45.3011 206.407 45.9079 206.186 46.4768C205.966 47.0457 205.635 47.5654 205.213 48.0062C204.791 48.447 204.286 48.8003 203.727 49.0458C203.169 49.2914 202.567 49.4243 201.957 49.437H165.48C164.869 49.4234 164.268 49.2896 163.709 49.0433C163.15 48.7971 162.646 48.4431 162.224 48.0017C161.802 47.5603 161.471 47.0401 161.25 46.4709C161.029 45.9016 160.923 45.2944 160.937 44.684V41.268C160.961 40.0362 160.497 38.8449 159.646 37.9543C158.795 37.0636 157.626 36.5462 156.394 36.515H149.8H133.427C131.494 36.5104 129.578 36.8872 127.791 37.6239C126.003 38.3606 124.379 39.4427 123.01 40.8081C121.641 42.1736 120.555 43.7957 119.814 45.5815C119.073 47.3672 118.692 49.2816 118.692 51.215L118.643 287.402C118.643 291.301 120.192 295.04 122.948 297.796C125.705 300.553 129.444 302.102 133.343 302.102L229.677 302.158C231.607 302.158 233.519 301.778 235.302 301.039C237.086 300.3 238.706 299.218 240.071 297.852C241.436 296.487 242.519 294.867 243.258 293.083C243.997 291.3 244.377 289.388 244.377 287.458L244.426 51.264C244.426 47.3714 242.882 43.6377 240.133 40.8819C237.384 38.1261 233.654 36.5733 229.761 36.564Z" fill="white"/>
<path d="M231.168 55.751C231.168 55.814 228.732 55.884 225.736 55.905C222.74 55.926 220.297 55.905 220.297 55.842C220.297 55.779 222.726 55.702 225.729 55.681C228.732 55.66 231.168 55.688 231.168 55.751Z" fill="#263238"/>
<path d="M231.189 58.53C231.189 58.593 228.76 58.663 225.757 58.691C222.754 58.719 220.318 58.691 220.318 58.621C220.318 58.551 222.754 58.488 225.757 58.46C228.76 58.432 231.189 58.467 231.189 58.53Z" fill="#263238"/>
<path d="M231.217 61.309C231.217 61.372 228.781 61.449 225.778 61.47C222.775 61.491 220.346 61.47 220.339 61.4C220.332 61.33 222.775 61.267 225.778 61.239C228.781 61.211 231.217 61.246 231.217 61.309Z" fill="#263238"/>
<path d="M128.8 64.025H129.087H129.878L132.804 63.955L132.72 64.032C132.72 63.388 132.72 62.681 132.685 61.932C132.685 61.54 132.685 61.169 132.685 60.714C132.731 60.4788 132.851 60.2645 133.027 60.1021C133.203 59.9397 133.427 59.8378 133.665 59.811C134.141 59.811 134.554 59.811 135.065 59.811C135.333 59.8542 135.576 59.9914 135.752 60.1979C135.928 60.4045 136.024 60.6668 136.024 60.938C136.024 61.932 136.024 62.961 136.059 64.032L135.926 63.899H139.615L139.475 64.039C139.475 62.555 139.475 61.015 139.433 59.44C139.433 59.048 139.433 58.663 139.433 58.271C139.417 58.0968 139.362 57.9283 139.273 57.7781C139.183 57.6279 139.061 57.4997 138.915 57.403L137.305 55.807L135.744 54.274L134.995 53.532C134.736 53.28 134.533 53.021 134.232 52.958C134.088 52.92 133.937 52.9147 133.79 52.9426C133.644 52.9705 133.505 53.0307 133.385 53.119C133.161 53.308 132.923 53.574 132.685 53.819L131.355 55.156C130.522 56.017 129.654 56.808 129.024 57.557C128.837 57.9984 128.774 58.4824 128.842 58.957C128.842 59.412 128.842 59.846 128.842 60.252C128.842 61.05 128.842 61.75 128.842 62.352C128.842 62.954 128.842 63.325 128.842 63.689C128.852 63.8498 128.852 64.0111 128.842 64.172C128.834 64.0251 128.834 63.8779 128.842 63.731C128.842 63.374 128.842 62.933 128.842 62.408C128.842 61.883 128.842 61.099 128.793 60.308C128.793 59.888 128.793 59.447 128.793 58.978C128.793 58.74 128.793 58.502 128.793 58.278C128.791 58.0079 128.861 57.7422 128.996 57.508C129.696 56.675 130.494 55.933 131.334 55.044L132.65 53.693C132.888 53.462 133.077 53.231 133.35 52.993C133.5 52.8783 133.675 52.7991 133.86 52.7616C134.046 52.724 134.238 52.7289 134.421 52.776C134.769 52.9039 135.077 53.1241 135.31 53.413L136.066 54.155L137.627 55.688L139.244 57.27C139.395 57.4059 139.534 57.5559 139.657 57.718C139.778 57.9038 139.846 58.1193 139.853 58.341C139.853 58.733 139.853 59.125 139.853 59.517C139.853 61.092 139.853 62.632 139.888 64.116V64.256H139.748H136.059H135.8V64.123C135.8 63.052 135.8 62.023 135.8 61.029C135.804 60.8154 135.732 60.6073 135.596 60.4428C135.459 60.2782 135.269 60.1683 135.058 60.133C134.631 60.133 134.127 60.133 133.714 60.133C133.525 60.1519 133.347 60.2296 133.205 60.3553C133.063 60.4809 132.965 60.648 132.923 60.833C132.923 61.204 132.923 61.631 132.923 62.009C132.923 62.772 132.923 63.486 132.923 64.109V64.193H132.839H129.864H129.087C128.986 64.1471 128.889 64.0908 128.8 64.025Z" fill="#263238"/>
<path d="M192.5 248.587C192.164 248.64 191.825 248.663 191.485 248.657L188.727 248.713C186.403 248.748 183.183 248.769 179.627 248.769C176.071 248.769 172.851 248.769 170.527 248.713L167.769 248.657C167.429 248.663 167.09 248.639 166.754 248.587C167.089 248.53 167.429 248.507 167.769 248.517L170.527 248.454C172.851 248.454 176.071 248.405 179.627 248.405C183.183 248.405 186.396 248.405 188.727 248.454L191.485 248.517C191.825 248.506 192.165 248.53 192.5 248.587V248.587Z" fill="#455A64"/>
<path d="M232.939 254.915C232.939 255.02 218.12 255.097 199.843 255.097C181.566 255.097 166.747 255.02 166.747 254.915C166.747 254.81 181.566 254.733 199.843 254.733C218.12 254.733 232.939 254.817 232.939 254.915Z" fill="#455A64"/>
<path d="M212.254 260.9C212.254 261.005 202.069 261.082 189.504 261.082C176.939 261.082 166.747 261.005 166.747 260.9C166.747 260.795 176.932 260.718 189.504 260.718C202.076 260.718 212.254 260.774 212.254 260.9Z" fill="#455A64"/>
<path d="M234.248 272.471L232.19 270.406L230.23 272.359V266.451H234.241L234.248 272.471ZM232.19 270.147L232.253 270.21L234.066 272.03V266.64H230.419V271.925L232.19 270.147Z" fill="#263238"/>
<path d="M179.487 271.701L178.787 271.379C178.369 271.576 177.893 271.609 177.451 271.473C177.01 271.337 176.635 271.042 176.4 270.644C176.165 270.246 176.087 269.775 176.181 269.323C176.275 268.871 176.534 268.47 176.908 268.199C177.282 267.928 177.744 267.806 178.203 267.857C178.662 267.908 179.086 268.129 179.39 268.476C179.695 268.823 179.86 269.271 179.852 269.733C179.844 270.195 179.664 270.637 179.347 270.973L179.487 271.701ZM177.8 267.767C177.321 267.8 176.873 268.015 176.548 268.367C176.222 268.72 176.043 269.183 176.048 269.663C176.052 270.143 176.24 270.603 176.572 270.949C176.904 271.295 177.356 271.502 177.835 271.526C178.155 271.504 178.464 271.406 178.738 271.239V271.239L179.277 271.477L179.151 270.952C179.398 270.683 179.56 270.347 179.619 269.986C179.678 269.625 179.63 269.255 179.481 268.922C179.332 268.588 179.09 268.305 178.782 268.107C178.475 267.909 178.116 267.806 177.751 267.809L177.8 267.767Z" fill="#263238"/>
<path d="M184.149 271.4L183.323 269.37L181.762 267.97H185.542L184.149 271.4ZM182.112 268.089L183.442 269.307L184.142 271.036L185.332 268.061L182.112 268.089Z" fill="#263238"/>
<path d="M185.463 267.924L183.398 269.268L183.474 269.386L185.539 268.042L185.463 267.924Z" fill="#263238"/>
<path d="M173.53 268.362C173.474 268.092 173.325 267.85 173.108 267.68C172.892 267.509 172.622 267.421 172.346 267.43C172.07 267.439 171.807 267.545 171.602 267.73C171.397 267.915 171.265 268.166 171.227 268.439C171.189 268.163 171.054 267.909 170.845 267.723C170.637 267.538 170.369 267.433 170.09 267.428C169.811 267.423 169.54 267.518 169.324 267.696C169.109 267.873 168.965 268.122 168.917 268.397C168.863 268.8 168.966 269.208 169.204 269.538C169.441 269.862 169.718 270.154 170.03 270.406C170.457 270.777 170.842 271.106 171.262 271.498C171.682 271.12 172.032 270.763 172.452 270.385C172.76 270.128 173.033 269.831 173.264 269.503C173.498 269.172 173.594 268.763 173.53 268.362V268.362Z" fill="#455A64"/>
<path d="M238.462 277.7C238.462 277.7 238.462 277.469 238.462 277.042C238.462 276.615 238.462 275.964 238.462 275.124C238.462 273.437 238.462 270.924 238.427 267.732C238.427 261.299 238.392 251.94 238.364 240.201L238.483 240.32L126.546 240.383L126.728 240.201C126.728 253.235 126.728 265.87 126.728 277.7L126.553 277.525L206.654 277.602L230.034 277.651H236.334H237.958H238.518H237.979H236.376H230.139L206.794 277.7L126.574 277.784H126.392V277.7C126.392 265.87 126.392 253.235 126.392 240.201V240.019H126.588L238.525 240.082H238.644V240.201C238.644 251.968 238.595 261.355 238.581 267.809C238.581 271.015 238.581 273.486 238.581 275.173C238.581 275.999 238.581 276.629 238.581 277.063C238.581 277.497 238.462 277.7 238.462 277.7Z" fill="#263238"/>
<path d="M131.181 246.471L131.039 271.264L162.048 271.443L162.191 246.649L131.181 246.471Z" fill="#EBEBEB"/>
<path d="M162.183 246.634H161.588H159.894H153.531L131.131 246.585L131.299 246.424C131.264 253.809 131.222 262.265 131.18 271.211C131.215 271.26 130.837 270.868 130.998 271.029H133.133H135.233H139.433L147.483 271.078L162.001 271.183L161.854 271.337C161.924 263.889 161.987 257.715 162.036 253.375C162.036 251.219 162.085 249.525 162.099 248.342C162.099 247.775 162.099 247.334 162.099 247.012C162.099 246.69 162.099 246.543 162.099 246.543C162.099 246.543 162.099 246.683 162.099 246.977C162.099 247.271 162.099 247.726 162.099 248.286C162.099 249.455 162.099 251.142 162.099 253.284C162.099 257.645 162.099 263.854 162.099 271.337V271.484H161.945L147.427 271.428L139.377 271.386H135.177H133.077H130.942L130.753 271.197C130.816 262.244 130.865 253.788 130.914 246.41V246.242H131.082L153.552 246.445L159.852 246.529H161.511H161.931L162.183 246.634Z" fill="#263238"/>
<path d="M132.243 248.038L132.119 269.71L160.951 269.876L161.076 248.204L132.243 248.038Z" fill="#E0E0E0"/>
<path d="M132.104 269.692L142.254 256.28L148.442 264.743L152.698 260.263L160.937 269.86L132.104 269.692Z" fill="#F5F5F5"/>
<path d="M151.151 254.684C151.15 255.134 151.015 255.574 150.763 255.947C150.512 256.321 150.155 256.611 149.738 256.782C149.322 256.953 148.864 256.996 148.423 256.906C147.981 256.817 147.577 256.598 147.26 256.278C146.943 255.958 146.728 255.552 146.642 255.11C146.557 254.668 146.604 254.21 146.779 253.795C146.953 253.38 147.247 253.026 147.623 252.778C147.999 252.53 148.44 252.399 148.89 252.402C149.188 252.403 149.484 252.463 149.759 252.578C150.034 252.693 150.284 252.862 150.494 253.074C150.704 253.286 150.87 253.537 150.983 253.813C151.096 254.09 151.153 254.386 151.151 254.684V254.684Z" fill="#F5F5F5"/>
<path d="M183.463 85.809C183.352 85.8278 183.238 85.8278 183.127 85.809L182.182 85.844L178.682 85.907C175.735 85.907 171.682 85.956 167.16 85.956C162.638 85.956 158.585 85.956 155.638 85.907L152.138 85.844L151.186 85.809C151.077 85.8284 150.966 85.8284 150.857 85.809C150.964 85.7824 151.075 85.7706 151.186 85.774H152.138L155.638 85.718C158.585 85.683 162.638 85.662 167.16 85.662C171.682 85.662 175.735 85.662 178.682 85.718L182.182 85.774H183.127C183.24 85.7711 183.353 85.7829 183.463 85.809Z" fill="#263238"/>
<path d="M229.271 222.855L226.219 219.789L223.3 222.694V213.916H229.264L229.271 222.855ZM226.219 219.411L226.31 219.502L229.005 222.204V214.196H223.573V222.05L226.219 219.411Z" fill="#263238"/>
<path d="M151.669 221.931L150.269 221.294C149.454 221.673 148.526 221.735 147.668 221.466C146.81 221.198 146.083 220.619 145.629 219.844C145.174 219.068 145.026 218.15 145.212 217.271C145.398 216.391 145.906 215.613 146.636 215.087C147.366 214.562 148.265 214.328 149.158 214.431C150.051 214.533 150.874 214.965 151.466 215.642C152.057 216.319 152.375 217.193 152.357 218.092C152.339 218.991 151.986 219.85 151.368 220.503L151.669 221.931ZM148.33 214.196C147.845 214.2 147.365 214.3 146.918 214.489C146.471 214.679 146.066 214.955 145.726 215.301C145.385 215.647 145.117 216.057 144.935 216.507C144.753 216.957 144.661 217.438 144.665 217.924C144.67 218.409 144.769 218.889 144.959 219.336C145.148 219.782 145.424 220.188 145.77 220.528C146.116 220.868 146.526 221.137 146.976 221.319C147.426 221.501 147.908 221.592 148.393 221.588C149.023 221.55 149.633 221.358 150.171 221.028L150.234 220.993L151.284 221.462L151.046 220.426L151.095 220.377C151.581 219.846 151.902 219.185 152.017 218.475C152.132 217.764 152.037 217.035 151.743 216.378C151.449 215.721 150.969 215.165 150.363 214.777C149.756 214.389 149.05 214.187 148.33 214.196V214.196Z" fill="#263238"/>
<path d="M160.853 221.322L159.215 217.325L156.149 214.525L163.597 214.469L160.853 221.322ZM156.842 214.791L159.46 217.192L160.86 220.594L163.198 214.742L156.842 214.791Z" fill="#263238"/>
<path d="M163.449 214.457L159.389 217.099L159.537 217.327L163.598 214.686L163.449 214.457Z" fill="#263238"/>
<path d="M139.951 215.4C139.845 214.864 139.552 214.383 139.125 214.043C138.697 213.703 138.163 213.526 137.617 213.544C137.071 213.562 136.549 213.773 136.144 214.14C135.74 214.507 135.479 215.005 135.408 215.547C135.328 215.008 135.059 214.514 134.649 214.155C134.239 213.795 133.714 213.593 133.169 213.583C132.624 213.574 132.093 213.759 131.671 214.104C131.249 214.45 130.963 214.934 130.865 215.47C130.76 216.262 130.963 217.064 131.432 217.71C131.902 218.348 132.45 218.924 133.063 219.425C133.896 220.125 134.659 220.825 135.492 221.574C136.304 220.832 137.004 220.132 137.823 219.383C138.428 218.874 138.966 218.291 139.426 217.647C139.881 216.993 140.069 216.189 139.951 215.4V215.4Z" fill="#455A64"/>
<path d="M139.272 90.863C142.063 90.863 144.326 88.6002 144.326 85.809C144.326 83.0177 142.063 80.755 139.272 80.755C136.481 80.755 134.218 83.0177 134.218 85.809C134.218 88.6002 136.481 90.863 139.272 90.863Z" fill="#EBEBEB"/>
<path d="M227.367 193.875C227.367 193.98 206.185 194.064 180.061 194.064C153.937 194.064 132.748 193.98 132.748 193.875C132.748 193.77 153.93 193.693 180.061 193.693C206.192 193.693 227.367 193.777 227.367 193.875Z" fill="#455A64"/>
<path d="M227.367 186C227.367 186.098 206.185 186.182 180.061 186.182C153.937 186.182 132.748 186.098 132.748 186C132.748 185.902 153.93 185.818 180.061 185.818C206.192 185.818 227.367 185.902 227.367 186Z" fill="#455A64"/>
<path d="M184.247 201.862C184.247 201.96 172.718 202.044 158.501 202.044C144.284 202.044 132.748 201.96 132.748 201.862C132.748 201.764 144.277 201.68 158.501 201.68C172.725 201.68 184.247 201.764 184.247 201.862Z" fill="#455A64"/>
<path d="M177.898 287.703C177.891 288.101 177.767 288.488 177.54 288.815C177.314 289.142 176.996 289.395 176.626 289.542C176.257 289.689 175.852 289.723 175.463 289.64C175.073 289.557 174.718 289.361 174.44 289.076C174.162 288.792 173.974 288.431 173.901 288.04C173.828 287.649 173.872 287.245 174.027 286.879C174.183 286.513 174.443 286.201 174.776 285.983C175.109 285.764 175.498 285.649 175.896 285.652C176.162 285.655 176.425 285.71 176.67 285.815C176.915 285.919 177.137 286.071 177.323 286.262C177.509 286.452 177.655 286.678 177.754 286.925C177.853 287.172 177.902 287.437 177.898 287.703V287.703Z" fill="#263238"/>
<path d="M184.1 287.731C184.092 288.127 183.967 288.511 183.741 288.836C183.515 289.161 183.198 289.412 182.829 289.557C182.461 289.703 182.058 289.736 181.671 289.654C181.284 289.571 180.93 289.375 180.654 289.092C180.377 288.809 180.191 288.45 180.117 288.061C180.044 287.672 180.087 287.27 180.241 286.906C180.396 286.541 180.654 286.23 180.984 286.012C181.315 285.794 181.702 285.679 182.098 285.68C182.364 285.682 182.628 285.736 182.873 285.841C183.119 285.945 183.341 286.097 183.527 286.288C183.713 286.478 183.86 286.704 183.958 286.952C184.056 287.2 184.105 287.464 184.1 287.731V287.731Z" fill="#263238"/>
<path d="M190.351 287.759C190.343 288.155 190.218 288.539 189.992 288.864C189.766 289.189 189.449 289.44 189.08 289.585C188.712 289.731 188.309 289.764 187.922 289.682C187.535 289.599 187.181 289.403 186.905 289.12C186.628 288.837 186.442 288.478 186.368 288.089C186.295 287.7 186.338 287.298 186.492 286.934C186.647 286.569 186.905 286.259 187.235 286.041C187.566 285.822 187.953 285.707 188.349 285.708C188.615 285.711 188.878 285.766 189.123 285.871C189.368 285.975 189.59 286.127 189.776 286.318C189.962 286.508 190.108 286.734 190.207 286.981C190.306 287.228 190.355 287.493 190.351 287.759V287.759Z" fill="#263238"/>
<path d="M239.134 95.8051H127.183V164.265H239.134V95.8051Z" fill="#E0E0E0"/>
<path d="M137.522 164.286L169.596 121.348L189.49 148.2L202.965 133.836L229.404 164.258L137.522 164.286Z" fill="#F5F5F5"/>
<path d="M197.918 116.077C197.919 117.509 197.496 118.909 196.702 120.1C195.907 121.291 194.777 122.22 193.455 122.769C192.132 123.318 190.677 123.462 189.272 123.184C187.868 122.905 186.577 122.217 185.564 121.205C184.551 120.193 183.861 118.903 183.582 117.499C183.302 116.094 183.445 114.639 183.992 113.316C184.54 111.993 185.468 110.862 186.658 110.066C187.848 109.271 189.248 108.846 190.68 108.846C192.598 108.846 194.438 109.608 195.796 110.963C197.153 112.319 197.916 114.159 197.918 116.077Z" fill="#F5F5F5"/>
<path d="M238.833 227.895C238.833 226.432 238.763 164.587 238.665 73.027L238.833 73.195H126.896L127.078 73.013C127.078 130.931 127.078 184.53 127.078 227.881L126.924 227.734L238.875 227.881L126.924 228.035H126.777V227.881C126.777 184.53 126.777 130.931 126.742 73.013V72.831H126.938H238.875H239.043V72.992C239.008 118.821 238.98 157.552 238.959 184.838C238.959 198.46 238.924 209.219 238.917 216.583C238.917 220.251 238.917 223.072 238.917 224.983C238.917 225.928 238.917 226.649 238.917 227.139C238.917 227.629 238.833 227.895 238.833 227.895Z" fill="#263238"/>
<path d="M186.2 247.11L188.678 238.787C189.112 236.981 189.686 234.853 190.456 232.424C191.156 230.24 192.934 227.944 194.558 226.292C197.085 223.723 198.289 223.709 199.983 222.344C200.137 222.246 200.312 222.099 200.459 222.022C200.779 221.848 201.061 221.609 201.285 221.322C202.748 219.74 201.341 217.283 198.366 217.521C196.133 217.696 192.479 218.333 186.543 224.458C186.466 224.556 186.389 224.633 186.319 224.724C183.204 228.777 180.278 217.213 179.746 212.908C179.643 212.241 179.391 211.605 179.009 211.049C178.627 210.492 178.124 210.029 177.539 209.692C176.953 209.356 176.3 209.156 175.626 209.107C174.953 209.058 174.277 209.161 173.649 209.408L159.187 216.17C157.808 215.77 156.337 215.819 154.987 216.31C153.975 216.665 153.132 217.385 152.622 218.328C152.112 219.272 151.972 220.372 152.229 221.413L158.102 244.8L140.875 302.13H178.01L186.2 247.11Z" fill="#FFBE9D"/>
<path d="M214.76 194.456L203.28 216.954L197.54 215.358L168.7 238.829C167.523 239.792 166.017 240.258 164.501 240.127C162.986 239.996 161.582 239.279 160.587 238.129L149.597 225.368C149.597 225.368 171.752 215.827 175.847 207.931C179.942 200.035 175.21 198.236 175.21 198.236L185.633 186.392L214.76 194.456Z" fill="#455A64"/>
<path d="M199.871 148.508C199.871 148.508 183.071 144.791 159.418 122.055C135.765 99.319 124.663 69.1 121.8 69.268C118.937 69.436 106.267 63.549 82.229 115.832C58.191 168.115 67.662 180.232 72.429 180.162C77.196 180.092 109.683 171.013 129.969 173.316C150.255 175.619 176.33 186.196 176.33 186.196L199.871 148.508Z" fill="#455A64"/>
<path d="M235.564 177.005L229.831 187.904L227.262 192.804C225.566 196.029 222.698 198.481 219.247 199.653C215.797 200.826 212.029 200.629 208.719 199.104L172.704 186.553L193.704 138.673L229.684 157.846C232.994 159.617 235.47 162.625 236.571 166.214C237.673 169.803 237.311 173.682 235.564 177.005Z" fill="#455A64"/>
<g opacity="0.4">
<path opacity="0.4" d="M235.564 177.005L229.831 187.904L227.262 192.804C225.566 196.029 222.698 198.481 219.247 199.653C215.797 200.826 212.029 200.629 208.719 199.104L172.704 186.553L193.704 138.673L229.684 157.846C232.994 159.617 235.47 162.625 236.571 166.214C237.673 169.803 237.311 173.682 235.564 177.005Z" fill="black"/>
</g>
<path d="M84.147 116.784C71.358 145.106 66.031 170.348 72.247 173.155C78.463 175.962 93.884 155.284 106.673 126.955C119.462 98.626 124.789 73.398 118.573 70.584C112.357 67.77 96.936 88.462 84.147 116.784Z" fill="#455A64"/>
<g opacity="0.5">
<path opacity="0.5" d="M84.147 116.784C71.358 145.106 66.031 170.348 72.247 173.155C78.463 175.962 93.884 155.284 106.673 126.955C119.462 98.626 124.789 73.398 118.573 70.584C112.357 67.77 96.936 88.462 84.147 116.784Z" fill="black"/>
</g>
<path d="M238.658 192.755L228.893 189.689L234.934 178.209L242.256 182.759L238.658 192.755Z" fill="#455A64"/>
<g opacity="0.6">
<path opacity="0.6" d="M234.934 178.209L228.893 189.689L230.902 190.319L235.809 178.748L234.934 178.209Z" fill="black"/>
</g>
<path d="M228.2 180.855C228.06 181.17 223.188 179.28 217.322 176.655C211.456 174.03 206.822 171.594 206.955 171.279C207.088 170.964 211.967 172.861 217.84 175.514C223.713 178.167 228.347 180.54 228.2 180.855Z" fill="#455A64"/>
<path d="M231.21 174.016C231.056 174.324 226.646 172.469 221.361 169.865C216.076 167.261 211.918 164.902 212.072 164.587C212.226 164.272 216.629 166.134 221.914 168.738C227.199 171.342 231.364 173.701 231.21 174.016Z" fill="#455A64"/>
<path d="M224.42 188.03C224.371 188.198 223.209 187.932 221.361 187.33C220.437 187.043 219.338 186.679 218.127 186.266C216.916 185.853 215.677 185.195 214.34 184.586C208.999 182.108 204.918 179.686 205.051 179.392C205.184 179.098 209.573 180.995 214.851 183.452C216.181 184.054 217.413 184.712 218.575 185.195C219.737 185.678 220.78 186.105 221.655 186.497C223.405 187.302 224.469 187.862 224.42 188.03Z" fill="#455A64"/>
<path d="M110.222 110.491C110.222 110.491 95.6201 101.433 87.6331 121.166C79.6461 140.899 95.0041 144.14 95.0041 144.14C101.636 133.696 106.76 122.368 110.222 110.491V110.491Z" fill="#455A64"/>
<g opacity="0.5">
<path opacity="0.5" d="M125.755 86.971C125.846 86.971 125.636 88.329 125.188 90.744C124.74 93.159 124.068 96.652 123.13 100.95L121.1 107.859C120.731 109.096 120.351 110.377 119.959 111.702L119.364 113.711C119.147 114.411 118.86 115.048 118.608 115.727L115.311 124.239C115.024 124.981 114.73 125.723 114.443 126.472C114.156 127.221 113.743 127.935 113.414 128.677L111.244 133.157L109.067 137.63C108.696 138.33 108.367 139.114 107.968 139.8C107.569 140.486 107.149 141.2 106.75 141.865L102.095 149.726C101.717 150.342 101.395 150.979 100.975 151.567L99.764 153.282L97.44 156.558L93.24 162.417C90.44 165.798 88.102 168.465 86.492 170.32C85.7012 171.324 84.8278 172.261 83.881 173.12C84.5391 172.027 85.2884 170.992 86.121 170.026C87.675 168.045 89.866 165.273 92.554 161.864L96.579 155.963L98.833 152.68C99.225 152.12 99.617 151.546 100.016 150.965C100.415 150.384 100.716 149.747 101.101 149.124L105.7 141.27L106.897 139.212C107.31 138.512 107.597 137.812 107.982 137.056L110.138 132.611C110.838 131.106 111.587 129.629 112.301 128.166C112.637 127.466 113.043 126.724 113.323 125.982L114.198 123.77L117.544 115.37C117.803 114.67 118.097 114.047 118.321 113.375C118.545 112.703 118.734 112.045 118.937 111.387L120.127 107.586L122.276 100.761L124.705 90.681C124.949 89.4167 125.3 88.1755 125.755 86.971V86.971Z" fill="black"/>
</g>
<g opacity="0.4">
<path opacity="0.4" d="M153.083 223.8C154.42 226.222 155.778 228.7 157.745 230.611C159.712 232.522 162.4 233.88 165.2 233.6C168 233.32 170.555 231.038 170.583 228.28C171.899 229.267 173.922 228.735 175.014 227.496C176.106 226.257 176.463 224.542 176.589 222.897C178.381 223.954 180.873 223.121 182.07 221.42C182.62 220.534 182.967 219.538 183.088 218.502C183.209 217.466 183.101 216.417 182.77 215.428C182.088 213.46 181.119 211.603 179.893 209.919C181.293 210.031 182.735 210.129 183.967 209.506C185.199 208.883 186.067 207.245 185.318 206.069C184.826 205.412 184.112 204.957 183.309 204.788C181.146 204.088 179.634 203.57 177.38 203.829C176.862 203.829 178.283 209.765 164.164 217.871C155.785 222.666 153.083 223.8 153.083 223.8Z" fill="black"/>
</g>
<path d="M184.877 232.34C184.877 232.403 183.932 232.221 182.406 232.263C180.423 232.31 178.473 232.779 176.684 233.637C174.896 234.495 173.31 235.723 172.032 237.24C171.045 238.402 170.632 239.249 170.541 239.214C170.599 238.996 170.691 238.788 170.814 238.598C171.114 238.065 171.453 237.555 171.829 237.072C173.087 235.475 174.695 234.188 176.529 233.309C178.362 232.431 180.373 231.984 182.406 232.004C183.017 232.008 183.625 232.064 184.226 232.172C184.451 232.189 184.672 232.246 184.877 232.34V232.34Z" fill="#EB996E"/>
<path d="M154 220.013C156.275 222.197 157.829 224.612 160.216 226.81C161.301 227.811 163.016 229.701 164.416 229.953C165.816 230.205 166.796 230.016 167.37 228.658C167.839 227.559 166.999 226.054 166.425 225.158C164.906 222.771 163.45 220.909 162.316 219.054C161.777 218.186 162.47 218.004 162.722 218.41C163.814 219.544 165.452 220.51 166.432 221.763C167.776 223.45 168.014 225.697 171.528 224.983C171.998 224.907 172.444 224.722 172.83 224.444C174.153 223.429 174.23 221.644 173.656 220.244C173.16 219.163 172.499 218.167 171.696 217.29C173.194 218.977 174.825 220.79 177.205 220.944C177.877 221.025 178.558 220.896 179.154 220.574C179.75 220.252 180.23 219.752 180.53 219.145C181.23 217.549 180.229 216.002 179.214 214.756C177.417 212.54 175.418 210.497 173.243 208.652C172.431 207.969 171.406 207.591 170.345 207.581C169.113 207.581 167.545 207.805 166.845 208.869C166.445 209.382 166.154 209.971 165.989 210.601C165.824 211.23 165.789 211.887 165.886 212.53C165.886 212.53 162.806 210.969 160.328 212.6C158.803 213.671 157.706 215.249 157.234 217.052L154 220.013Z" fill="#FFBE9D"/>
<path d="M170.415 206.909C169.922 206.337 169.617 205.628 169.539 204.877C169.462 204.126 169.616 203.37 169.981 202.709C170.506 201.68 171.164 200.679 171.836 200.455C174.769 199.468 187.593 201.687 187.474 204.529C187.355 207.371 186.417 208.729 179.466 207.728C178.241 207.553 176.323 207.315 176.323 207.315L174.643 209.835L170.415 206.909Z" fill="#FFBE9D"/>
<path d="M172.711 218.823C171.028 216.048 168.574 213.822 165.648 212.418C166.125 212.495 166.585 212.656 167.006 212.894C169.113 213.913 170.882 215.517 172.102 217.514C172.385 217.909 172.591 218.353 172.711 218.823Z" fill="#EB996E"/>
<path d="M174.867 210.08C174.804 210.136 173.957 209.45 172.802 208.743C172.319 208.437 171.819 208.159 171.304 207.91C170.905 207.728 170.639 207.679 170.646 207.623C170.653 207.567 170.947 207.539 171.388 207.672C171.956 207.855 172.497 208.111 172.998 208.435C174.181 209.156 174.958 210.003 174.867 210.08Z" fill="#EB996E"/>
<path d="M177.023 207.434C176.189 207.531 175.343 207.435 174.552 207.154C173.973 206.977 173.436 206.687 172.97 206.3C172.62 205.999 172.473 205.754 172.508 205.719C173.181 206.155 173.902 206.512 174.657 206.783C175.459 206.947 176.25 207.165 177.023 207.434Z" fill="#EB996E"/>
<path d="M164.563 222.344C164.121 221.88 163.729 221.371 163.394 220.825C162.595 219.532 161.585 218.382 160.405 217.423C159.183 216.529 157.668 216.129 156.163 216.303C155.546 216.413 154.946 216.604 154.378 216.87C154.378 216.87 154.504 216.723 154.791 216.548C155.2 216.3 155.651 216.129 156.121 216.044C156.905 215.917 157.706 215.948 158.477 216.134C159.249 216.321 159.976 216.659 160.615 217.129C161.833 218.108 162.85 219.313 163.611 220.678C163.975 221.206 164.293 221.763 164.563 222.344V222.344Z" fill="#EB996E"/>
<path d="M174.37 250.694C172.644 251.061 170.894 251.311 169.134 251.443C167.384 251.697 165.618 251.828 163.849 251.835C165.578 251.468 167.33 251.218 169.092 251.086C170.841 250.837 172.604 250.706 174.37 250.694V250.694Z" fill="#EB996E"/>
<path d="M284.641 17.888L285.432 19.337L286.874 20.128L285.432 20.919L284.641 22.361L283.85 20.919L282.408 20.128L283.85 19.337L284.641 17.888Z" fill="#455A64"/>
<path d="M301.168 53.707L301.959 55.156L303.401 55.947L301.959 56.738L301.168 58.18L300.377 56.738L298.928 55.947L300.377 55.156L301.168 53.707Z" fill="#455A64"/>
<path d="M36.33 149.271L37.121 150.72L38.57 151.511L37.121 152.295L36.33 153.744L35.539 152.295L34.097 151.511L35.539 150.72L36.33 149.271Z" fill="#455A64"/>
<path d="M262.962 26.792L264.789 30.131L268.128 31.958L264.789 33.778L262.962 37.117L261.142 33.778L257.803 31.958L261.142 30.131L262.962 26.792Z" fill="#455A64"/>
<path d="M51.142 126.57L52.962 129.895L56.294 131.715L52.962 133.542L51.142 136.867L49.322 133.542L45.99 131.715L49.322 129.895L51.142 126.57Z" fill="#455A64"/>
<path d="M305.662 205.992L307.482 209.324L310.807 211.144L307.482 212.964L305.662 216.296L303.842 212.964L300.51 211.144L303.842 209.324L305.662 205.992Z" fill="#455A64"/>
</g>
<defs>
<clipPath id="clip0_1_1393">
<rect width="350" height="312" fill="white"/>
</clipPath>
</defs>
</svg>
