<svg width="36" height="36" viewBox="0 0 36 36" fill="none" xmlns="http://www.w3.org/2000/svg">
<circle cx="18" cy="18" r="18" fill="#2F89CE"/>
<path d="M8.31563 18.3365L12.4539 19.8796L14.0671 25.0699C14.1373 25.4206 14.5581 25.4908 14.8387 25.2804L17.1533 23.3866C17.3637 23.1762 17.7144 23.1762 17.995 23.3866L22.1333 26.4026C22.4138 26.613 22.8347 26.4727 22.9048 26.122L25.991 11.3926C26.0611 11.0419 25.7104 10.6912 25.3597 10.8315L8.31563 17.4247C7.89479 17.5649 7.89479 18.1962 8.31563 18.3365ZM13.8567 19.108L21.993 14.1281C22.1333 14.0579 22.2735 14.2683 22.1333 14.3385L15.4699 20.581C15.2595 20.7914 15.0491 21.0719 15.0491 21.4226L14.8387 23.106C14.8387 23.3164 14.488 23.3866 14.4178 23.106L13.5761 20.0198C13.3657 19.6691 13.506 19.2483 13.8567 19.108Z" fill="white"/>
</svg>
