<svg width="36" height="36" viewBox="0 0 36 36" fill="none" xmlns="http://www.w3.org/2000/svg">
<circle cx="18" cy="18" r="18" fill="#48C95F"/>
<path d="M25.1341 10.7562C23.3561 8.98437 20.9854 8 18.4829 8C13.2805 8 9.06585 12.2 9.06585 17.3844C9.06585 19.025 9.52683 20.6656 10.3171 22.0437L9 26.9L14.0049 25.5875C15.3878 26.3094 16.9024 26.7031 18.4829 26.7031C23.6854 26.7031 27.9 22.5031 27.9 17.3188C27.8341 14.8906 26.9122 12.5281 25.1341 10.7562ZM23.0268 20.7312C22.8293 21.2562 21.9073 21.7812 21.4463 21.8469C21.0512 21.9125 20.5244 21.9125 19.9976 21.7813C19.6683 21.65 19.2073 21.5188 18.6805 21.2563C16.3098 20.2719 14.7951 17.9094 14.6634 17.7125C14.5317 17.5813 13.6756 16.4656 13.6756 15.2844C13.6756 14.1031 14.2683 13.5781 14.4659 13.3156C14.6634 13.0531 14.9268 13.0531 15.1244 13.0531C15.2561 13.0531 15.4537 13.0531 15.5854 13.0531C15.7171 13.0531 15.9146 12.9875 16.1122 13.4469C16.3098 13.9062 16.7707 15.0875 16.8366 15.1531C16.9024 15.2844 16.9024 15.4156 16.8366 15.5469C16.7707 15.6781 16.7049 15.8094 16.5732 15.9406C16.4415 16.0719 16.3098 16.2688 16.2439 16.3344C16.1122 16.4656 15.9805 16.5969 16.1122 16.7937C16.2439 17.0562 16.7049 17.7781 17.4293 18.4344C18.3512 19.2219 19.0756 19.4844 19.339 19.6156C19.6024 19.7469 19.7341 19.6812 19.8659 19.55C19.9976 19.4187 20.4585 18.8938 20.5902 18.6313C20.722 18.3688 20.9195 18.4344 21.1171 18.5C21.3146 18.5656 22.5 19.1563 22.6976 19.2875C22.961 19.4188 23.0927 19.4844 23.1585 19.55C23.2244 19.7469 23.2244 20.2062 23.0268 20.7312Z" fill="white"/>
</svg>
